<svg width="390" height="147" viewBox="0 0 390 147" fill="none" xmlns="http://www.w3.org/2000/svg">
<mask id="mask0_22_35752" style="mask-type:luminance" maskUnits="userSpaceOnUse" x="-11" y="0" width="401" height="201">
<path d="M389.678 0H-11V200.523H389.678V0Z" fill="white"/>
</mask>
<g mask="url(#mask0_22_35752)">
<path d="M-11 53.17C-10.7115 50.1248 -11.3526 47.5204 -8.72415 45.9578C-6.0957 44.3951 -3.03452 43.7621 -0.0294304 43.2252C8.22454 41.7587 16.7991 41.0054 24.9168 43.2252C41.7453 47.8089 53.0284 64.6855 55.6408 81.9146C60.0242 73.2199 65.3933 66.6087 74.4006 62.9145C83.4078 59.2202 94.0659 59.3725 102.64 63.9723C111.215 68.5721 117.353 77.7396 117.642 87.4761C120.296 80.4716 124.457 74.1359 129.83 68.9166C133.519 65.1258 137.888 62.0621 142.708 59.8854C147.079 57.9867 151.797 57.0211 156.562 57.0502C161.327 57.0794 166.033 58.1027 170.38 60.0547C174.727 62.0068 178.618 64.8445 181.806 68.3864C184.993 71.9284 187.406 76.0966 188.89 80.6245C194.283 62.642 210.311 49.3075 228.958 46.9675C247.606 44.6275 267.175 54.1396 276.847 70.2068C279.989 63.0988 281.976 58.3788 287.433 52.8495C292.89 47.3201 300.199 43.3293 307.94 43.137C315.881 42.9367 323.638 46.8152 328.951 52.7533C334.264 58.6913 337.262 66.3764 338.255 74.2938C342.526 68.8846 348.513 66.8171 355.036 69.0208C358.29 70.1871 361.12 72.3026 363.16 75.0939C365.2 77.8853 366.356 81.2242 366.479 84.6793C367.637 80.0893 369.445 75.6881 371.848 71.6092C374.164 67.6024 377.922 64.2367 382.458 63.4915C384.63 63.1389 387.475 63.3953 389.67 63.0267V200.523H-11V53.17Z" fill="#0C8346"/>
<path d="M61.7713 106.765C59.2697 103.534 56.5946 100.442 53.7577 97.501C51.3537 94.9928 47.5232 98.8072 49.9353 101.315C52.7723 104.256 55.4474 107.348 57.9488 110.579C58.8464 111.741 60.8177 111.509 61.7633 110.579C62.9173 109.457 62.6528 107.911 61.7633 106.765H61.7713Z" fill="#249161"/>
<path d="M48.3005 105.883L45.3515 103.351C44.8413 102.861 44.1594 102.591 43.4523 102.599C42.7452 102.606 42.0692 102.891 41.5697 103.392C41.0702 103.892 40.787 104.569 40.7809 105.276C40.7747 105.983 41.0462 106.664 41.537 107.173L44.486 109.698C44.9982 110.191 45.6819 110.467 46.3932 110.467C47.1046 110.467 47.7882 110.191 48.3005 109.698C49.23 108.688 49.4464 106.861 48.3005 105.883Z" fill="#249161"/>
<path d="M40.5913 91.539C39.2173 90.4788 37.9863 89.2452 36.9291 87.8688C36.5524 87.2673 35.9599 86.8327 35.2731 86.6539C34.5863 86.4751 33.8571 86.5657 33.2349 86.9071C32.0729 87.5803 31.3918 89.4154 32.2652 90.6014C33.8389 92.7456 35.7305 94.6372 37.8747 96.2109C39.0447 97.0763 40.8878 96.4032 41.569 95.2412C41.9154 94.6172 42.0071 93.8835 41.8249 93.1935C41.6427 92.5034 41.2006 91.9106 40.5913 91.539Z" fill="#249161"/>
<path d="M33.5556 97.4529L28.0262 92.0358C25.542 89.6317 21.7195 93.4141 24.2117 95.8502L29.7411 101.275C32.2253 103.679 36.0478 99.8891 33.5556 97.4529Z" fill="#249161"/>
<path d="M33.4593 108.367L28.4348 104.545C27.2648 103.663 25.4137 104.361 24.7405 105.515C23.9392 106.901 24.5402 108.319 25.7021 109.209L30.7347 113.031C31.8966 113.913 33.7558 113.208 34.4289 112.062C34.7736 111.439 34.8652 110.708 34.6846 110.02C34.504 109.332 34.0651 108.74 33.4593 108.367Z" fill="#249161"/>
<path d="M46.6096 121.886L43.2439 118.937C42.7328 118.43 42.0412 118.147 41.3213 118.15C40.6015 118.153 39.9123 118.442 39.4054 118.953C38.8985 119.464 38.6154 120.156 38.6184 120.876C38.6214 121.596 38.9103 122.285 39.4214 122.792L42.7951 125.741C43.3089 126.206 43.9818 126.456 44.6746 126.438C45.3673 126.421 46.027 126.138 46.517 125.648C47.007 125.158 47.2899 124.499 47.3071 123.806C47.3244 123.113 47.0746 122.44 46.6096 121.926V121.886Z" fill="#249161"/>
<path d="M32.714 122.728L27.2407 118.096C26.7253 117.605 26.041 117.332 25.3295 117.332C24.618 117.332 23.9337 117.605 23.4183 118.096C22.919 118.605 22.6394 119.29 22.6394 120.003C22.6394 120.716 22.919 121.401 23.4183 121.91L28.8915 126.542C29.407 127.033 30.0913 127.306 30.8028 127.306C31.5143 127.306 32.1985 127.033 32.714 126.542C33.2132 126.033 33.4928 125.348 33.4928 124.635C33.4928 123.922 33.2132 123.237 32.714 122.728Z" fill="#249161"/>
<path d="M16.5907 107.975L11.5422 104.601C10.9237 104.239 10.1866 104.137 9.49308 104.318C8.79952 104.499 8.20631 104.948 7.84394 105.567C7.48157 106.185 7.37973 106.922 7.56082 107.616C7.74192 108.309 8.1911 108.903 8.80958 109.265L13.8661 112.631C14.1724 112.831 14.5162 112.967 14.8765 113.03C15.2369 113.093 15.6064 113.083 15.9626 112.999C16.3188 112.915 16.6542 112.76 16.9485 112.542C17.2428 112.325 17.4899 112.05 17.6747 111.734C17.8595 111.418 17.9782 111.068 18.0236 110.705C18.069 110.342 18.0402 109.974 17.9388 109.622C17.8374 109.27 17.6656 108.943 17.4339 108.66C17.2022 108.377 16.9153 108.144 16.5907 107.975Z" fill="#249161"/>
<path d="M17.9691 101.251L12.0791 96.6115C11.5609 96.1264 10.8777 95.8566 10.1679 95.8566C9.45807 95.8566 8.77483 96.1264 8.25663 96.6115C7.31904 97.5491 7.10268 99.5285 8.25663 100.434L14.1546 105.066C14.6715 105.55 15.3534 105.82 16.0618 105.82C16.7703 105.82 17.4522 105.55 17.9691 105.066C18.9067 104.128 19.123 102.157 17.9691 101.251Z" fill="#249161"/>
<path d="M16.2462 86.9552L13.6819 84.463C13.1681 83.9979 12.4952 83.7482 11.8025 83.7654C11.1097 83.7827 10.4501 84.0656 9.96005 84.5556C9.47004 85.0456 9.18714 85.7052 9.1699 86.398C9.15266 87.0907 9.40239 87.7636 9.86742 88.2774L12.4238 90.7776C12.9306 91.2845 13.6181 91.5693 14.335 91.5693C15.0518 91.5693 15.7393 91.2845 16.2462 90.7776C16.7531 90.2707 17.0379 89.5833 17.0379 88.8664C17.0379 88.1496 16.7531 87.4621 16.2462 86.9552Z" fill="#249161"/>
<path d="M22.8814 80.6405L19.091 78.1162C18.4716 77.7592 17.7363 77.6607 17.0447 77.8422C16.3532 78.0238 15.761 78.4706 15.3968 79.0859C15.0521 79.7081 14.9605 80.4393 15.1411 81.1273C15.3217 81.8154 15.7606 82.4073 16.3664 82.7801L20.1568 85.2964C20.7753 85.6541 21.5099 85.7538 22.2013 85.5738C22.8928 85.3938 23.4855 84.9487 23.8511 84.3348C24.1978 83.7129 24.2905 82.9811 24.1097 82.2925C23.929 81.6039 23.4888 81.0119 22.8814 80.6405Z" fill="#249161"/>
<path d="M2.80745 106.765L1.1246 104.657C0.875232 104.404 0.578341 104.203 0.251021 104.066C-0.0762999 103.928 -0.427588 103.857 -0.782626 103.856C-1.49864 103.863 -2.18321 104.151 -2.68985 104.657C-3.1988 105.162 -3.48696 105.848 -3.49121 106.564C-3.45155 107.273 -3.16851 107.947 -2.68985 108.472L-1.00701 110.579C-0.757634 110.832 -0.460745 111.033 -0.133424 111.17C0.193896 111.308 0.545186 111.379 0.900223 111.381C1.61581 111.378 2.30148 111.093 2.80748 110.587C3.31348 110.081 3.59868 109.396 3.60079 108.68C3.56113 107.971 3.27809 107.297 2.79944 106.773L2.80745 106.765Z" fill="#249161"/>
<path d="M1.42916 92.8051L-3.19467 89.8481C-3.50091 89.6692 -3.83938 89.5523 -4.19077 89.5042C-4.54215 89.4562 -4.89957 89.4778 -5.24262 89.5678C-5.58566 89.6578 -5.90761 89.8145 -6.19008 90.029C-6.47256 90.2435 -6.71002 90.5115 -6.88892 90.8177C-7.06782 91.124 -7.18466 91.4624 -7.23275 91.8138C-7.28084 92.1652 -7.25925 92.5226 -7.16921 92.8657C-7.07917 93.2087 -6.92244 93.5307 -6.70798 93.8131C-6.49352 94.0956 -6.22552 94.3331 -5.91928 94.512L-1.29545 97.469C-0.989219 97.6479 -0.650744 97.7647 -0.299357 97.8128C0.0520296 97.8609 0.409448 97.8393 0.752491 97.7493C1.09553 97.6592 1.41748 97.5025 1.69996 97.288C1.98243 97.0736 2.2199 96.8056 2.3988 96.4993C2.5777 96.1931 2.69453 95.8546 2.74262 95.5032C2.79071 95.1519 2.76912 94.7944 2.67908 94.4514C2.58904 94.1083 2.43232 93.7864 2.21786 93.5039C2.00339 93.2215 1.73539 92.984 1.42916 92.8051Z" fill="#249161"/>
<path d="M2.62314 89.0147C6.10103 89.0147 6.10904 83.6135 2.62314 83.6135C-0.862761 83.6135 -0.854747 89.0147 2.62314 89.0147Z" fill="#249161"/>
<path d="M10.6847 117.246L6.47758 115.147C5.85911 114.786 5.12244 114.685 4.42963 114.867C3.73682 115.048 3.14463 115.498 2.78332 116.117C2.42202 116.735 2.3212 117.472 2.50304 118.164C2.68488 118.857 3.13449 119.45 3.75297 119.811L7.96009 121.91C8.26632 122.089 8.6048 122.206 8.95618 122.254C9.30757 122.302 9.66499 122.281 10.008 122.191C10.3511 122.101 10.673 121.944 10.9555 121.729C11.238 121.515 11.4754 121.247 11.6543 120.941C11.8332 120.634 11.9501 120.296 11.9982 119.945C12.0463 119.593 12.0247 119.236 11.9346 118.893C11.8446 118.55 11.6879 118.228 11.4734 117.945C11.2589 117.663 10.9909 117.425 10.6847 117.246Z" fill="#249161"/>
<path d="M9.03405 73.0276L7.3512 72.2262C6.71639 71.8744 5.9716 71.777 5.26767 71.9538C4.75541 72.0952 4.29627 72.3846 3.94775 72.7858C3.59923 73.187 3.37682 73.6821 3.30838 74.2091C3.23994 74.7361 3.32851 75.2716 3.56299 75.7485C3.79747 76.2254 4.16745 76.6225 4.62659 76.8901L6.30943 77.7315C6.94424 78.0834 7.68903 78.1807 8.39296 78.004C8.90522 77.8625 9.36436 77.5731 9.71288 77.1719C10.0614 76.7708 10.2838 76.2757 10.3523 75.7487C10.4207 75.2217 10.3321 74.6862 10.0976 74.2093C9.86316 73.7324 9.49318 73.3353 9.03405 73.0677V73.0276Z" fill="#249161"/>
<path d="M1.38909 121.942L-5.82311 117.759C-8.8282 116.004 -11.5528 120.668 -8.54773 122.423L-1.33552 126.606C1.66957 128.361 4.39418 123.697 1.38909 121.942Z" fill="#249161"/>
<path d="M19.123 129.018C18.8078 128.837 18.5033 128.636 18.2095 128.417C18.506 128.634 18.3537 128.538 18.1534 128.369C17.953 128.201 17.8809 128.129 17.7447 128.001C17.6085 127.872 17.2799 127.536 17.0635 127.287C16.8472 127.039 16.7911 126.935 17.0074 127.231C16.8792 127.055 16.751 126.879 16.6308 126.694C16.4519 126.388 16.2144 126.12 15.932 125.906C15.6495 125.691 15.3275 125.535 14.9845 125.445C14.6415 125.355 14.284 125.333 13.9326 125.381C13.5813 125.429 13.2428 125.546 12.9366 125.725C12.6303 125.904 12.3623 126.141 12.1479 126.424C11.9334 126.706 11.7767 127.028 11.6866 127.371C11.5966 127.714 11.575 128.072 11.6231 128.423C11.6712 128.774 11.788 129.113 11.9669 129.419C13.0985 131.16 14.6146 132.619 16.3984 133.682C17.0169 134.044 17.7536 134.144 18.4464 133.963C19.1392 133.781 19.7314 133.331 20.0927 132.713C20.454 132.094 20.5548 131.358 20.3729 130.665C20.1911 129.972 19.7415 129.38 19.123 129.018Z" fill="#249161"/>
<path d="M31.2957 131.607C30.6735 131.158 30.0843 130.665 29.5327 130.132C28.8786 129.52 28.258 128.872 27.6736 128.193C27.1659 127.687 26.4787 127.404 25.7623 127.404C25.0459 127.404 24.3587 127.687 23.8511 128.193C23.3612 128.707 23.0879 129.39 23.0879 130.1C23.0879 130.81 23.3612 131.493 23.8511 132.007C25.2557 133.605 26.8395 135.035 28.5711 136.271C29.1908 136.632 29.9287 136.733 30.6228 136.552C31.3169 136.37 31.9105 135.92 32.2733 135.301C32.6114 134.676 32.6984 133.947 32.5167 133.26C32.3351 132.574 31.8984 131.982 31.2957 131.607Z" fill="#249161"/>
<path d="M45.6399 131.991L43.1157 130.309C42.4962 129.952 41.761 129.853 41.0694 130.035C40.3778 130.216 39.7857 130.663 39.4214 131.278C39.0787 131.901 38.9883 132.631 39.1687 133.319C39.3492 134.006 39.7867 134.598 40.3911 134.972L42.9153 136.655C43.5353 137.01 44.2698 137.108 44.9608 136.926C45.6518 136.745 46.2439 136.299 46.6096 135.686C46.9563 135.064 47.049 134.332 46.8682 133.643C46.6875 132.955 46.2473 132.363 45.6399 131.991Z" fill="#249161"/>
<path d="M57.6042 116.509C57.0353 115.532 56.4583 114.562 55.8813 113.584C55.52 112.966 54.9278 112.516 54.235 112.334C53.5422 112.153 52.8055 112.253 52.187 112.615C51.5686 112.976 51.119 113.568 50.9371 114.261C50.7553 114.954 50.8561 115.69 51.2174 116.309C51.7944 117.287 52.3714 118.256 52.9403 119.234C53.1192 119.54 53.3567 119.808 53.6392 120.023C53.9216 120.237 54.2436 120.394 54.5866 120.484C54.9297 120.574 55.2871 120.595 55.6385 120.547C55.9899 120.499 56.3283 120.382 56.6346 120.204C56.9408 120.025 57.2088 119.787 57.4233 119.505C57.6377 119.222 57.7945 118.9 57.8845 118.557C57.9745 118.214 57.9961 117.857 57.948 117.505C57.9 117.154 57.7831 116.816 57.6042 116.509Z" fill="#249161"/>
<path d="M64.3276 128.209L60.9539 125.26C60.7029 125.008 60.4047 124.808 60.0764 124.671C59.748 124.534 59.396 124.463 59.0403 124.463C58.6846 124.462 58.3322 124.531 58.0033 124.667C57.6744 124.802 57.3754 125.001 57.1234 125.252C56.8713 125.503 56.6712 125.801 56.5344 126.13C56.3976 126.458 56.3268 126.81 56.3261 127.166C56.3253 127.521 56.3946 127.874 56.5301 128.203C56.6655 128.531 56.8644 128.83 57.1154 129.083L60.4891 132.023C60.9949 132.533 61.6822 132.82 62.3998 132.822C63.1174 132.824 63.8065 132.541 64.3156 132.036C64.8246 131.53 65.1118 130.842 65.1141 130.125C65.1163 129.407 64.8334 128.718 64.3276 128.209Z" fill="#249161"/>
<path d="M52.1149 144.18L49.1659 141.223C48.9167 140.965 48.6185 140.758 48.2886 140.616C47.9588 140.475 47.604 140.4 47.2449 140.397C46.8859 140.394 46.5298 140.462 46.1976 140.598C45.8654 140.734 45.5636 140.936 45.31 141.19C45.0564 141.444 44.856 141.746 44.7205 142.079C44.5851 142.411 44.5173 142.767 44.5212 143.126C44.525 143.485 44.6004 143.84 44.743 144.17C44.8856 144.499 45.0924 144.797 45.3514 145.045L48.3004 147.994C48.8096 148.485 49.4909 148.757 50.198 148.751C50.9051 148.745 51.5817 148.461 52.0822 147.962C52.5828 147.462 52.8675 146.786 52.8751 146.079C52.8827 145.372 52.6126 144.69 52.1229 144.18H52.1149Z" fill="#249161"/>
<path d="M36.3763 143.779L33.0106 141.223C32.3916 140.864 31.6557 140.764 30.9635 140.946C30.2713 141.128 29.6791 141.576 29.3163 142.193C28.9756 142.816 28.8863 143.546 29.0666 144.233C29.2469 144.92 29.6832 145.511 30.286 145.887L33.6517 148.411C33.9579 148.59 34.2964 148.707 34.6478 148.755C34.9992 148.803 35.3566 148.782 35.6996 148.692C36.0427 148.601 36.3646 148.445 36.6471 148.23C36.9296 148.016 37.167 147.748 37.3459 147.442C37.6866 146.818 37.776 146.089 37.5957 145.402C37.4154 144.715 36.9791 144.123 36.3763 143.747V143.779Z" fill="#249161"/>
<path d="M20.9181 143.787C19.3795 142.377 17.8356 140.972 16.2863 139.572C15.7731 139.08 15.0898 138.806 14.3791 138.806C13.6683 138.806 12.985 139.08 12.4718 139.572C11.9726 140.082 11.693 140.766 11.693 141.479C11.693 142.193 11.9726 142.877 12.4718 143.387C14.0104 144.797 15.5544 146.202 17.1037 147.602C17.6169 148.094 18.3002 148.368 19.0109 148.368C19.7217 148.368 20.405 148.094 20.9181 147.602C21.4193 147.094 21.7002 146.408 21.7002 145.695C21.7002 144.981 21.4193 144.296 20.9181 143.787Z" fill="#249161"/>
<path d="M2.29454 138.683L-1.88854 135.702C-2.50751 135.343 -3.24347 135.243 -3.93567 135.425C-4.62786 135.606 -5.22002 136.054 -5.5828 136.671C-5.92335 137.297 -6.01012 138.03 -5.82511 138.717C-5.64011 139.405 -5.19753 139.995 -4.58911 140.366L-0.406033 143.347C0.21343 143.704 0.948685 143.802 1.64026 143.621C2.33183 143.439 2.92396 142.992 3.28822 142.377C3.6309 141.754 3.72136 141.024 3.54091 140.336C3.36047 139.649 2.9229 139.057 2.31858 138.683H2.29454Z" fill="#249161"/>
<path d="M34.7175 76.7699L26.3032 72.122C23.2581 70.4392 20.5334 75.1031 23.5786 76.7859L31.9928 81.4338C35.038 83.1167 37.7626 78.4528 34.7175 76.7699Z" fill="#249161"/>
<path d="M18.2416 65.8955L12.3436 62.5378C9.31449 60.8229 6.58987 65.4868 9.619 67.2017L15.517 70.5594C18.5461 72.2823 21.2707 67.6184 18.2416 65.8955Z" fill="#249161"/>
<path d="M30.4542 64.6614L23.3302 61.2236C22.7089 60.8782 21.9784 60.7854 21.2904 60.9645C20.6025 61.1435 20.01 61.5807 19.6359 62.1852C19.276 62.8066 19.1759 63.545 19.3575 64.2398C19.539 64.9346 19.9876 65.5297 20.6056 65.8955L27.7296 69.3413C28.3523 69.684 29.0828 69.7745 29.7703 69.594C30.4578 69.4136 31.0497 68.976 31.4239 68.3717C31.7788 67.7517 31.8761 67.0172 31.6947 66.3262C31.5134 65.6352 31.0679 65.0432 30.4542 64.6774V64.6614Z" fill="#249161"/>
<path d="M51.562 84.7915C49.8637 83.6146 48.3021 82.2519 46.9061 80.7286C46.397 80.2378 45.7156 79.9663 45.0085 79.9725C44.3014 79.9786 43.6248 80.2618 43.1243 80.7613C42.6237 81.2609 42.3391 81.9368 42.3315 82.6439C42.3239 83.351 42.5939 84.0329 43.0836 84.5431C44.8138 86.3854 46.7405 88.0326 48.8294 89.4554C49.4478 89.8177 50.1849 89.9196 50.8785 89.7385C51.572 89.5574 52.1652 89.1082 52.5276 88.4898C52.89 87.8713 52.9918 87.1342 52.8107 86.4406C52.6296 85.7471 52.1804 85.1538 51.562 84.7915Z" fill="#249161"/>
<path d="M4.81881 62.0169L0.627718 59.8773C0.321482 59.6984 -0.0169916 59.5816 -0.368379 59.5335C-0.719766 59.4854 -1.07718 59.507 -1.42023 59.597C-1.76327 59.6871 -2.08522 59.8438 -2.3677 60.0583C-2.65017 60.2727 -2.88764 60.5407 -3.06654 60.847C-3.24544 61.1532 -3.36227 61.4917 -3.41036 61.8431C-3.45845 62.1945 -3.43686 62.5518 -3.34682 62.8949C-3.25678 63.2379 -3.10005 63.5599 -2.88559 63.8424C-2.67113 64.1248 -2.40313 64.3623 -2.09689 64.5412L2.0942 66.6969C2.71267 67.0582 3.44934 67.159 4.14215 66.9771C4.83495 66.7953 5.42715 66.3457 5.78845 65.7272C6.14976 65.1088 6.25058 64.3721 6.06874 63.6793C5.8869 62.9865 5.43728 62.3943 4.81881 62.033V62.0169Z" fill="#249161"/>
<path d="M295.92 86.1939C291.998 84.4262 287.985 82.8668 283.899 81.522C280.59 80.4402 279.171 85.657 282.465 86.7308C286.128 87.9158 289.725 89.2934 293.243 90.8578C296.392 92.2682 299.141 87.6523 295.968 86.1939H295.92Z" fill="#249161"/>
<path d="M283.018 91.5389L279.227 90.6975C278.537 90.5073 277.799 90.5992 277.176 90.9531C276.553 91.3071 276.096 91.8939 275.906 92.5847C275.716 93.2754 275.808 94.0134 276.161 94.6363C276.515 95.2593 277.102 95.7161 277.793 95.9063L281.583 96.7477C282.274 96.9379 283.012 96.846 283.635 96.4921C284.258 96.1381 284.715 95.5512 284.905 94.8605C285.095 94.1698 285.003 93.4318 284.649 92.8089C284.295 92.1859 283.709 91.7291 283.018 91.5389Z" fill="#249161"/>
<path d="M270.156 82.6439C268.218 82.387 266.328 81.847 264.547 81.0412C263.923 80.7024 263.194 80.6142 262.507 80.7943C261.821 80.9745 261.229 81.4095 260.852 82.0108C260.497 82.6308 260.4 83.3653 260.581 84.0563C260.763 84.7472 261.208 85.3394 261.822 85.7051C264.006 86.772 266.337 87.5067 268.738 87.8848C269.434 88.0454 270.165 87.9319 270.78 87.5678C271.394 87.2038 271.845 86.6171 272.039 85.9294C272.392 84.6633 271.607 82.8282 270.156 82.6118V82.6439Z" fill="#249161"/>
<path d="M266.045 91.0421L258.616 88.8624C255.275 87.8847 253.848 93.0936 257.182 94.0712L264.611 96.2509C267.952 97.2286 269.379 92.0197 266.045 91.0421Z" fill="#249161"/>
<path d="M271.783 100.827L265.548 99.8249C264.858 99.6543 264.129 99.7544 263.511 100.105C262.892 100.455 262.431 101.029 262.223 101.708C261.87 102.998 262.663 104.801 264.106 105.034L270.348 106.035C271.038 106.201 271.765 106.098 272.382 105.747C272.998 105.395 273.457 104.822 273.666 104.144C274.019 102.862 273.233 101.059 271.783 100.827Z" fill="#249161"/>
<path d="M289.068 106.444L284.701 105.426C284.359 105.332 284.001 105.306 283.649 105.35C283.297 105.394 282.957 105.507 282.649 105.682C282.341 105.857 282.07 106.092 281.852 106.372C281.634 106.651 281.473 106.972 281.379 107.314C281.285 107.656 281.259 108.013 281.303 108.365C281.347 108.717 281.459 109.057 281.635 109.365C281.81 109.674 282.044 109.945 282.324 110.163C282.604 110.38 282.924 110.541 283.266 110.635L287.626 111.645C288.303 111.797 289.012 111.683 289.607 111.326C290.203 110.97 290.637 110.397 290.822 109.728C291.007 109.059 290.926 108.345 290.598 107.734C290.27 107.122 289.719 106.66 289.06 106.444H289.068Z" fill="#249161"/>
<path d="M277.208 113.728L270.196 112.222C266.806 111.493 265.388 116.701 268.762 117.431L275.774 118.937C279.163 119.667 280.582 114.466 277.208 113.728Z" fill="#249161"/>
<path d="M255.996 108.367L249.954 107.774C249.238 107.774 248.551 108.059 248.044 108.565C247.538 109.072 247.253 109.759 247.253 110.475C247.253 111.191 247.538 111.878 248.044 112.385C248.551 112.891 249.238 113.176 249.954 113.176L255.996 113.769C257.455 113.913 258.697 112.422 258.697 111.068C258.682 110.356 258.393 109.678 257.89 109.174C257.386 108.671 256.708 108.382 255.996 108.367Z" fill="#249161"/>
<path d="M254.089 101.724L246.7 100.418C246.011 100.246 245.282 100.345 244.665 100.696C244.047 101.046 243.588 101.621 243.383 102.301C243.022 103.607 243.823 105.37 245.266 105.627L252.654 106.933C253.343 107.103 254.071 107.003 254.688 106.653C255.306 106.302 255.765 105.729 255.972 105.05C256.333 103.744 255.531 101.981 254.089 101.724Z" fill="#249161"/>
<path d="M245.843 89.9363L242.413 88.9426C241.722 88.7524 240.984 88.8443 240.361 89.1983C239.738 89.5522 239.282 90.139 239.091 90.8298C238.901 91.5205 238.993 92.2585 239.347 92.8814C239.701 93.5044 240.288 93.9612 240.979 94.1514L244.408 95.1451C245.099 95.3353 245.837 95.2434 246.46 94.8894C247.083 94.5355 247.54 93.9486 247.73 93.2579C247.92 92.5672 247.828 91.8292 247.474 91.2062C247.12 90.5833 246.534 90.1265 245.843 89.9363Z" fill="#249161"/>
<path d="M248.64 81.2494L244.104 80.8167C242.653 80.6725 241.403 82.155 241.403 83.5173C241.418 84.229 241.707 84.9076 242.21 85.411C242.714 85.9144 243.392 86.2035 244.104 86.2178L248.64 86.6506C250.09 86.7948 251.34 85.3123 251.34 83.95C251.324 83.2389 251.034 82.5614 250.531 82.0585C250.028 81.5555 249.351 81.2657 248.64 81.2494Z" fill="#249161"/>
<path d="M243.936 113.977L241.427 112.911C240.791 112.563 240.048 112.466 239.344 112.639C239.002 112.732 238.682 112.892 238.402 113.11C238.122 113.328 237.888 113.598 237.713 113.906C237.538 114.215 237.426 114.554 237.383 114.906C237.339 115.258 237.366 115.615 237.461 115.956C237.547 116.294 237.702 116.61 237.916 116.886C238.13 117.162 238.397 117.391 238.703 117.559L241.179 118.625C241.818 118.965 242.558 119.062 243.262 118.897C243.952 118.706 244.537 118.25 244.89 117.628C245.243 117.006 245.335 116.269 245.146 115.58C245.055 115.243 244.899 114.928 244.686 114.653C244.473 114.378 244.207 114.148 243.904 113.977H243.936Z" fill="#249161"/>
<path d="M235.481 102.093L230.008 101.668C229.295 101.674 228.613 101.96 228.108 102.463C227.603 102.967 227.316 103.648 227.307 104.361C227.32 105.073 227.608 105.753 228.112 106.257C228.616 106.76 229.296 107.049 230.008 107.061L235.481 107.494C236.196 107.488 236.879 107.201 237.384 106.696C237.889 106.191 238.176 105.508 238.182 104.793C238.168 104.082 237.878 103.403 237.375 102.9C236.872 102.396 236.193 102.107 235.481 102.093Z" fill="#249161"/>
<path d="M233.542 98.5187C237.02 98.5187 237.028 93.1176 233.542 93.1176C230.056 93.1176 230.064 98.5187 233.542 98.5187Z" fill="#249161"/>
<path d="M255.163 119.298L250.451 119.418C249.734 119.418 249.047 119.703 248.541 120.209C248.035 120.716 247.75 121.402 247.75 122.119C247.75 122.835 248.035 123.522 248.541 124.028C249.047 124.535 249.734 124.819 250.451 124.819L255.163 124.691C255.529 124.711 255.896 124.656 256.24 124.53C256.585 124.403 256.9 124.208 257.166 123.955C257.433 123.703 257.645 123.399 257.79 123.062C257.935 122.725 258.01 122.362 258.01 121.995C258.01 121.627 257.935 121.264 257.79 120.927C257.645 120.59 257.433 120.286 257.166 120.034C256.9 119.781 256.585 119.586 256.24 119.459C255.896 119.333 255.529 119.278 255.163 119.298Z" fill="#249161"/>
<path d="M238.366 119.675L232.861 118.312C229.487 117.511 228.053 122.688 231.426 123.521L236.932 124.883C240.305 125.685 241.74 120.508 238.366 119.675Z" fill="#249161"/>
<path d="M224.367 108.984H218.148C214.67 108.984 214.662 114.362 218.148 114.378H224.367C227.836 114.378 227.844 109.001 224.367 108.977V108.984Z" fill="#249161"/>
<path d="M220.119 98.3826L214.101 98.7271C213.39 98.7435 212.713 99.0332 212.21 99.5362C211.707 100.039 211.417 100.717 211.401 101.428C211.407 102.142 211.693 102.825 212.198 103.33C212.704 103.835 213.387 104.122 214.101 104.128L220.119 103.776C220.83 103.761 221.507 103.473 222.01 102.972C222.513 102.47 222.803 101.793 222.82 101.083C222.816 100.368 222.53 99.6837 222.024 99.1782C221.519 98.6726 220.834 98.3868 220.119 98.3826Z" fill="#249161"/>
<path d="M224.944 88.6381L220.608 88.566C219.892 88.566 219.205 88.8505 218.699 89.3569C218.192 89.8634 217.908 90.5503 217.908 91.2665C217.908 91.9828 218.192 92.6697 218.699 93.1761C219.205 93.6826 219.892 93.9671 220.608 93.9671L224.944 94.0392C225.66 94.0392 226.347 93.7547 226.853 93.2483C227.36 92.7418 227.644 92.0549 227.644 91.3387C227.644 90.6224 227.36 89.9355 226.853 89.4291C226.347 88.9226 225.66 88.6381 224.944 88.6381Z" fill="#249161"/>
<path d="M232.845 81.1213L230.962 81.1694C230.245 81.1694 229.559 81.4539 229.052 81.9604C228.546 82.4669 228.261 83.1537 228.261 83.87C228.261 84.5862 228.546 85.2731 229.052 85.7796C229.559 86.286 230.245 86.5706 230.962 86.5706L232.845 86.5225C233.561 86.5225 234.248 86.238 234.754 85.7315C235.261 85.2251 235.545 84.5381 235.545 83.8219C235.545 83.1057 235.261 82.4188 234.754 81.9123C234.248 81.4059 233.561 81.1213 232.845 81.1213Z" fill="#249161"/>
<path d="M249.168 127.816L240.866 127.504C237.389 127.376 237.397 132.777 240.866 132.905L249.168 133.218C252.646 133.346 252.638 127.945 249.168 127.816Z" fill="#249161"/>
<path d="M268.145 125.701C267.025 125.624 265.934 125.315 264.939 124.795C264.633 124.616 264.294 124.499 263.943 124.451C263.592 124.403 263.234 124.425 262.891 124.515C262.548 124.605 262.226 124.762 261.944 124.976C261.661 125.191 261.424 125.459 261.245 125.765C261.066 126.071 260.949 126.409 260.901 126.761C260.853 127.112 260.875 127.47 260.965 127.813C261.055 128.156 261.211 128.478 261.426 128.76C261.64 129.043 261.908 129.28 262.215 129.459C264.053 130.449 266.091 131.01 268.177 131.102C268.893 131.102 269.58 130.817 270.086 130.311C270.593 129.804 270.877 129.117 270.877 128.401C270.877 127.685 270.593 126.998 270.086 126.492C269.58 125.985 268.893 125.701 268.177 125.701H268.145Z" fill="#249161"/>
<path d="M280.822 122.351C278.945 122.082 277.104 121.604 275.333 120.925C273.97 120.396 272.376 121.502 272.015 122.808C271.841 123.498 271.939 124.229 272.29 124.848C272.64 125.468 273.217 125.928 273.898 126.134C275.669 126.813 277.51 127.291 279.388 127.56C280.83 127.76 282.289 127.207 282.705 125.669C283.058 124.403 282.273 122.559 280.822 122.351Z" fill="#249161"/>
<path d="M292.939 115.828L289.917 115.532C289.202 115.534 288.516 115.819 288.01 116.325C287.504 116.831 287.219 117.517 287.217 118.232C287.233 118.943 287.523 119.621 288.026 120.124C288.529 120.627 289.206 120.916 289.917 120.933L292.939 121.229C293.654 121.227 294.34 120.942 294.846 120.436C295.352 119.93 295.637 119.244 295.639 118.529C295.619 117.819 295.328 117.144 294.826 116.641C294.324 116.139 293.648 115.848 292.939 115.828Z" fill="#249161"/>
<path d="M296.248 96.5074L293.347 94.7444C292.727 94.3895 291.993 94.2922 291.302 94.4736C290.611 94.6549 290.019 95.1004 289.653 95.714C289.306 96.3358 289.214 97.0677 289.394 97.7563C289.575 98.4449 290.015 99.0369 290.623 99.4083C291.592 99.9933 292.562 100.578 293.524 101.171C293.83 101.35 294.168 101.467 294.52 101.515C294.871 101.563 295.228 101.542 295.572 101.452C295.915 101.362 296.237 101.205 296.519 100.99C296.801 100.776 297.039 100.508 297.218 100.202C297.397 99.8954 297.514 99.5569 297.562 99.2055C297.61 98.8541 297.588 98.4967 297.498 98.1537C297.408 97.8106 297.251 97.4887 297.037 97.2062C296.822 96.9238 296.554 96.6863 296.248 96.5074Z" fill="#249161"/>
<path d="M307.643 103.687L303.284 102.678C302.593 102.488 301.855 102.58 301.232 102.933C300.609 103.287 300.153 103.874 299.962 104.565C299.772 105.256 299.864 105.994 300.218 106.617C300.572 107.24 301.159 107.696 301.85 107.887L306.209 108.896C306.9 109.087 307.638 108.995 308.261 108.641C308.884 108.287 309.34 107.7 309.531 107.009C309.721 106.318 309.629 105.58 309.275 104.957C308.921 104.335 308.334 103.878 307.643 103.687Z" fill="#249161"/>
<path d="M304.422 123.513L300.415 122.295C299.724 122.104 298.986 122.195 298.362 122.548C297.739 122.901 297.281 123.487 297.09 124.178C296.898 124.869 296.989 125.607 297.342 126.231C297.696 126.855 298.282 127.313 298.973 127.504L302.98 128.722C303.67 128.905 304.405 128.81 305.026 128.458C305.648 128.106 306.107 127.525 306.305 126.839C306.48 126.147 306.38 125.416 306.028 124.796C305.675 124.176 305.097 123.717 304.414 123.513H304.422Z" fill="#249161"/>
<path d="M291.039 130.693L286.88 130.052C285.486 129.836 283.907 130.405 283.555 131.935C283.258 133.226 283.947 135.029 285.438 135.261L289.605 135.902C290.991 136.118 292.578 135.549 292.922 134.011C293.219 132.729 292.53 130.926 291.039 130.693Z" fill="#249161"/>
<path d="M276.727 137.857L270.653 136.327C267.279 135.477 265.845 140.686 269.218 141.536L275.285 143.066C278.658 143.916 280.093 138.715 276.727 137.857Z" fill="#249161"/>
<path d="M257.855 142.153L252.759 141.495C251.308 141.311 250.058 142.866 250.058 144.196C250.058 145.799 251.308 146.704 252.759 146.897L257.855 147.554C259.306 147.738 260.556 146.175 260.556 144.853C260.556 143.25 259.306 142.337 257.855 142.153Z" fill="#249161"/>
<path d="M233.246 139.62L231.162 139.3C230.46 139.128 229.72 139.225 229.086 139.572C228.78 139.75 228.513 139.987 228.298 140.269C228.084 140.551 227.927 140.872 227.837 141.214C227.747 141.557 227.725 141.913 227.773 142.264C227.821 142.615 227.938 142.953 228.117 143.259C228.287 143.562 228.517 143.829 228.792 144.042C229.068 144.255 229.383 144.411 229.72 144.501L231.803 144.821C232.507 144.994 233.251 144.897 233.887 144.549C234.49 144.192 234.934 143.619 235.129 142.946C235.314 142.243 235.216 141.495 234.856 140.862C234.683 140.561 234.453 140.297 234.178 140.086C233.903 139.874 233.589 139.718 233.253 139.628L233.246 139.62Z" fill="#249161"/>
<path d="M230.345 129.684L227.492 128.818C226.801 128.636 226.067 128.731 225.446 129.085C224.826 129.439 224.369 130.022 224.174 130.709C224 131.398 224.098 132.128 224.449 132.746C224.8 133.365 225.376 133.823 226.057 134.027L228.91 134.892C229.6 135.075 230.333 134.98 230.954 134.628C231.574 134.276 232.031 133.695 232.228 133.009C232.405 132.319 232.307 131.587 231.956 130.967C231.605 130.347 231.028 129.887 230.345 129.684Z" fill="#249161"/>
<path d="M257.294 72.3064L247.678 72.1701C244.208 72.122 244.2 77.5232 247.678 77.5713L257.294 77.7075C260.772 77.7556 260.772 72.3544 257.294 72.3064Z" fill="#249161"/>
<path d="M237.645 70.4472L230.857 70.2709C227.38 70.1828 227.38 75.5759 230.857 75.6721L237.645 75.8484C241.123 75.9445 241.115 70.5434 237.645 70.4472Z" fill="#249161"/>
<path d="M247.838 63.5956L239.937 63.9161C236.475 64.0524 236.459 69.4535 239.937 69.3173L247.838 68.9967C251.308 68.8525 251.324 63.4514 247.838 63.5956Z" fill="#249161"/>
<path d="M275.926 71.4089C273.885 71.1558 271.878 70.683 269.94 69.9985C269.25 69.8157 268.517 69.9105 267.896 70.2626C267.276 70.6147 266.818 71.196 266.622 71.8817C266.443 72.572 266.54 73.3048 266.891 73.9254C267.242 74.5459 267.821 75.0056 268.505 75.2073C270.913 76.0089 273.401 76.5463 275.926 76.81C277.376 76.9783 278.626 75.4477 278.626 74.1095C278.608 73.399 278.318 72.7226 277.815 72.2201C277.313 71.7175 276.636 71.4272 275.926 71.4089Z" fill="#249161"/>
<path d="M201.36 93.5663L196.079 93.5102C192.601 93.5102 192.601 98.8713 196.079 98.9114L201.36 98.9674C204.829 98.9674 204.837 93.5983 201.36 93.5663Z" fill="#249161"/>
<path d="M206.6 107.101H200.382C196.904 107.101 196.904 112.51 200.382 112.502H206.6C210.07 112.502 210.078 107.101 206.6 107.101Z" fill="#249161"/>
<path d="M213.837 117.086L209.133 117.174C208.416 117.174 207.73 117.459 207.223 117.965C206.717 118.472 206.432 119.159 206.432 119.875C206.432 120.591 206.717 121.278 207.223 121.784C207.73 122.291 208.416 122.575 209.133 122.575L213.837 122.487C214.553 122.487 215.24 122.203 215.746 121.696C216.253 121.19 216.537 120.503 216.537 119.787C216.537 119.071 216.253 118.384 215.746 117.877C215.24 117.371 214.553 117.086 213.837 117.086Z" fill="#249161"/>
<path d="M216.585 126.558L209.221 126.246C205.751 126.101 205.751 131.503 209.221 131.647L216.585 131.959C220.055 132.104 220.047 126.702 216.585 126.558Z" fill="#249161"/>
<path d="M192.16 115.395C190.696 115.71 189.177 115.646 187.744 115.211C184.395 114.257 182.936 119.466 186.31 120.42C188.684 121.093 191.189 121.157 193.594 120.604C194.285 120.414 194.872 119.957 195.226 119.334C195.58 118.711 195.672 117.973 195.482 117.283C195.291 116.592 194.835 116.005 194.212 115.651C193.589 115.297 192.851 115.205 192.16 115.395Z" fill="#249161"/>
<path d="M198.955 123.697C198.955 123.697 198.106 123.866 198.611 123.81C198.344 123.829 198.076 123.829 197.809 123.81C197.281 123.81 198.002 123.93 197.457 123.762C197.369 123.762 196.656 123.505 197.08 123.689C195.782 123.136 194.131 123.249 193.386 124.651C192.777 125.813 192.969 127.76 194.356 128.345C196.245 129.223 198.382 129.415 200.398 128.89C201.089 128.7 201.675 128.243 202.029 127.62C202.383 126.997 202.475 126.259 202.285 125.569C202.095 124.878 201.638 124.291 201.015 123.937C200.392 123.583 199.654 123.491 198.963 123.681L198.955 123.697Z" fill="#249161"/>
<path d="M211.817 83.7657L206.737 84.1023C206.026 84.1166 205.349 84.4046 204.846 84.9063C204.342 85.408 204.052 86.0845 204.036 86.7949C204.042 87.5092 204.329 88.1924 204.834 88.6975C205.339 89.2026 206.022 89.4892 206.737 89.4955L211.817 89.1669C212.528 89.1506 213.206 88.8608 213.709 88.3579C214.212 87.8549 214.501 87.1775 214.518 86.4663C214.511 85.752 214.225 85.0688 213.72 84.5637C213.215 84.0586 212.531 83.772 211.817 83.7657Z" fill="#249161"/>
<path d="M223.974 73.3401L219.262 73.4283C218.546 73.4283 217.859 73.7128 217.352 74.2193C216.846 74.7257 216.561 75.4126 216.561 76.1289C216.561 76.8451 216.846 77.532 217.352 78.0385C217.859 78.5449 218.546 78.8294 219.262 78.8294L223.974 78.7413C224.69 78.7413 225.377 78.4568 225.883 77.9503C226.39 77.4438 226.674 76.757 226.674 76.0407C226.674 75.3245 226.39 74.6376 225.883 74.1311C225.377 73.6247 224.69 73.3401 223.974 73.3401Z" fill="#249161"/>
<path d="M389.678 93.2378C389.39 90.1926 390.031 87.5882 387.403 86.0256C384.774 84.463 381.713 83.8299 378.708 83.293C370.454 81.8265 361.879 81.0732 353.762 83.293C336.933 87.8767 325.65 104.753 323.038 121.982C318.654 113.288 313.285 106.677 304.278 102.982C295.271 99.288 284.613 99.4403 276.038 104.04C267.463 108.64 261.325 117.807 261.037 127.544C258.382 120.539 254.221 114.204 248.848 108.984C245.159 105.194 240.791 102.13 235.97 99.9532C231.6 98.0545 226.881 97.0889 222.116 97.1181C217.352 97.1472 212.645 98.1705 208.298 100.123C203.952 102.075 200.06 104.912 196.873 108.454C193.685 111.996 191.272 116.164 189.788 120.692C184.395 102.71 168.368 89.3753 149.72 87.0353C131.073 84.6954 111.503 94.2075 101.831 110.275C98.6898 103.167 96.7024 98.4466 91.2452 92.9173C85.7879 87.3879 78.4235 83.3731 70.6904 83.1808C62.749 82.9805 54.9918 86.859 49.6788 92.7971C44.3658 98.7351 41.3688 106.42 40.3751 114.338C36.1038 108.928 30.1177 106.861 23.5947 109.065C20.3443 110.233 17.5184 112.348 15.4816 115.138C13.4448 117.927 12.2904 121.263 12.1673 124.715C11.0089 120.125 9.20098 115.724 6.79824 111.645C4.48232 107.638 0.72396 104.272 -3.81172 103.527C-5.98339 103.175 -8.82821 103.431 -11.0239 103.062V200.523H389.678V93.2378Z" fill="#0D5D56"/>
<path d="M316.795 162.435C319.296 159.204 321.971 156.112 324.808 153.171C327.213 150.671 323.406 146.841 320.994 149.349C318.157 152.292 315.482 155.387 312.98 158.621C312.496 159.137 312.226 159.819 312.226 160.528C312.226 161.236 312.496 161.918 312.98 162.435C313.902 163.381 315.913 163.589 316.803 162.435H316.795Z" fill="#249161"/>
<path d="M336.885 148.115C339.029 146.541 340.921 144.649 342.494 142.505C343.36 141.335 342.687 139.492 341.525 138.819C340.904 138.472 340.173 138.378 339.484 138.557C338.796 138.736 338.203 139.175 337.83 139.781C336.768 141.155 335.535 142.389 334.16 143.451C333.559 143.828 333.124 144.42 332.945 145.107C332.767 145.794 332.857 146.523 333.199 147.145C333.872 148.299 335.707 148.98 336.893 148.107L336.885 148.115Z" fill="#249161"/>
<path d="M345.003 153.171L350.532 147.746C353.024 145.342 349.202 141.496 346.718 143.932L341.188 149.349C338.704 151.753 342.518 155.607 345.003 153.171Z" fill="#249161"/>
<path d="M362.304 142.673L364.86 140.173C365.325 139.659 365.575 138.987 365.558 138.294C365.541 137.601 365.258 136.941 364.768 136.451C364.278 135.961 363.618 135.678 362.925 135.661C362.232 135.644 361.56 135.894 361.046 136.359L358.481 138.851C357.982 139.362 357.702 140.048 357.702 140.762C357.702 141.477 357.982 142.163 358.481 142.673C358.996 143.166 359.681 143.44 360.393 143.44C361.105 143.44 361.789 143.166 362.304 142.673Z" fill="#249161"/>
<path d="M354.587 137.216L358.385 134.7C359.004 134.338 359.453 133.744 359.634 133.051C359.815 132.357 359.713 131.62 359.351 131.002C358.989 130.383 358.395 129.934 357.702 129.753C357.008 129.572 356.271 129.674 355.653 130.036L351.862 132.56C351.538 132.729 351.251 132.962 351.019 133.246C350.787 133.529 350.616 133.856 350.514 134.208C350.413 134.559 350.384 134.928 350.429 135.291C350.475 135.654 350.594 136.004 350.778 136.32C350.963 136.636 351.21 136.911 351.505 137.128C351.799 137.345 352.134 137.501 352.49 137.585C352.847 137.668 353.216 137.679 353.577 137.616C353.937 137.552 354.281 137.416 354.587 137.216Z" fill="#249161"/>
<path d="M376.055 149.365L380.679 146.408C381.298 146.046 381.747 145.454 381.929 144.761C382.111 144.069 382.01 143.332 381.649 142.714C381.287 142.095 380.695 141.645 380.002 141.464C379.31 141.282 378.573 141.383 377.954 141.744L373.331 144.701C372.725 145.074 372.286 145.666 372.105 146.354C371.925 147.042 372.016 147.773 372.361 148.395C372.727 149.009 373.319 149.454 374.01 149.636C374.701 149.817 375.435 149.72 376.055 149.365Z" fill="#249161"/>
<path d="M372.161 140.903C375.631 140.903 375.639 135.509 372.161 135.509C368.683 135.509 368.675 140.903 372.161 140.903Z" fill="#249161"/>
<path d="M389.093 150.206L394.567 147.249C397.628 145.598 394.903 140.935 391.842 142.593L386.369 145.55C383.315 147.201 386.032 151.865 389.093 150.206Z" fill="#249161"/>
<path d="M387.843 138.819L393.316 136.295C394.639 135.686 394.967 133.77 394.286 132.6C393.913 131.995 393.321 131.556 392.633 131.375C391.945 131.195 391.214 131.286 390.592 131.631L385.119 134.155C384.503 134.519 384.056 135.111 383.875 135.803C383.693 136.495 383.792 137.23 384.149 137.849C384.52 138.457 385.112 138.897 385.801 139.078C386.489 139.258 387.221 139.166 387.843 138.819Z" fill="#249161"/>
<path d="M378.996 132.536L382.787 130.429C383.4 130.063 383.846 129.471 384.027 128.78C384.209 128.089 384.111 127.355 383.756 126.735C383.384 126.129 382.792 125.69 382.104 125.509C381.415 125.329 380.684 125.42 380.062 125.765L376.272 127.872C375.965 128.051 375.697 128.289 375.483 128.571C375.268 128.854 375.112 129.176 375.022 129.519C374.932 129.862 374.91 130.219 374.958 130.571C375.006 130.922 375.123 131.261 375.302 131.567C375.481 131.873 375.718 132.141 376.001 132.355C376.283 132.57 376.605 132.727 376.948 132.817C377.291 132.907 377.649 132.928 378 132.88C378.352 132.832 378.69 132.715 378.996 132.536Z" fill="#249161"/>
<path d="M368.466 129.587L370.149 128.746C370.765 128.382 371.211 127.79 371.393 127.098C371.574 126.406 371.476 125.671 371.119 125.052C370.746 124.446 370.154 124.007 369.466 123.826C368.778 123.646 368.047 123.737 367.425 124.082L365.742 124.923C365.127 125.288 364.68 125.88 364.498 126.571C364.317 127.263 364.415 127.998 364.772 128.618C365.144 129.225 365.736 129.665 366.424 129.846C367.113 130.027 367.845 129.934 368.466 129.587Z" fill="#249161"/>
<path d="M342.751 133.33L351.165 128.682C354.21 126.999 351.486 122.335 348.44 124.018L340.026 128.666C336.981 130.349 339.706 135.013 342.751 133.33Z" fill="#249161"/>
<path d="M359.227 122.471L365.133 119.114C368.154 117.399 365.437 112.703 362.408 114.45L356.502 117.807C353.481 119.522 356.198 124.218 359.227 122.471Z" fill="#249161"/>
<path d="M347.014 121.189L354.138 117.743C354.753 117.379 355.2 116.787 355.382 116.095C355.563 115.404 355.465 114.668 355.108 114.049C354.735 113.443 354.143 113.004 353.455 112.824C352.767 112.643 352.036 112.735 351.414 113.079L344.289 116.525C343.677 116.892 343.233 117.484 343.052 118.175C342.871 118.865 342.967 119.599 343.32 120.219C343.693 120.825 344.285 121.264 344.973 121.445C345.661 121.625 346.392 121.534 347.014 121.189Z" fill="#249161"/>
<path d="M325.914 141.351C328.004 139.921 329.931 138.265 331.66 136.415C331.919 136.166 332.125 135.867 332.267 135.538C332.409 135.208 332.483 134.853 332.486 134.494C332.489 134.135 332.421 133.779 332.285 133.447C332.149 133.114 331.948 132.813 331.693 132.559C331.439 132.305 331.137 132.105 330.805 131.97C330.472 131.834 330.116 131.766 329.757 131.77C329.398 131.774 329.043 131.849 328.714 131.992C328.384 132.135 328.086 132.341 327.838 132.6C326.441 134.12 324.882 135.482 323.19 136.663C322.584 137.036 322.145 137.628 321.964 138.316C321.784 139.004 321.875 139.735 322.22 140.358C322.586 140.971 323.178 141.417 323.869 141.598C324.56 141.779 325.294 141.682 325.914 141.327V141.351Z" fill="#249161"/>
<path d="M388.284 122.047L392.916 119.955C394.246 119.354 394.567 117.423 393.885 116.261C393.513 115.655 392.921 115.216 392.233 115.035C391.545 114.855 390.813 114.946 390.191 115.291L385.551 117.383C384.229 117.984 383.909 119.915 384.59 121.077C384.961 121.684 385.553 122.124 386.242 122.305C386.93 122.486 387.662 122.393 388.284 122.047Z" fill="#249161"/>
<path d="M372.649 118.577L376.841 116.437C377.457 116.074 377.906 115.482 378.087 114.79C378.269 114.098 378.169 113.362 377.81 112.743C377.436 112.138 376.844 111.701 376.157 111.52C375.469 111.34 374.739 111.43 374.116 111.773L369.925 113.913C369.308 114.276 368.86 114.868 368.678 115.56C368.496 116.252 368.596 116.988 368.955 117.607C369.327 118.214 369.919 118.655 370.607 118.835C371.296 119.016 372.028 118.923 372.649 118.577Z" fill="#249161"/>
<path d="M73.8397 151.641L67.9417 148.283C64.9126 146.568 62.188 151.232 65.2091 152.947L71.1151 156.305C74.1442 158.027 76.8688 153.364 73.8397 151.641Z" fill="#249161"/>
<path d="M86.0523 150.375L78.9283 146.937C78.307 146.591 77.5765 146.499 76.8885 146.678C76.2006 146.857 75.6081 147.294 75.234 147.898C74.8791 148.518 74.7818 149.253 74.9632 149.944C75.1445 150.635 75.59 151.227 76.2037 151.593L83.3277 155.038C83.9504 155.381 84.6809 155.472 85.3684 155.291C86.0559 155.111 86.6478 154.673 87.022 154.069C87.3748 153.448 87.4709 152.714 87.2897 152.024C87.1085 151.334 86.6644 150.742 86.0523 150.375Z" fill="#249161"/>
<path d="M60.4169 147.73L56.2258 145.598C55.9196 145.398 55.5758 145.262 55.2154 145.199C54.855 145.136 54.4855 145.146 54.1294 145.23C53.7732 145.314 53.4378 145.469 53.1434 145.687C52.8491 145.904 52.6021 146.179 52.4173 146.495C52.2324 146.811 52.1137 147.161 52.0683 147.524C52.023 147.887 52.0518 148.255 52.1532 148.607C52.2546 148.959 52.4263 149.286 52.6581 149.569C52.8898 149.852 53.1766 150.085 53.5012 150.254L57.6923 152.394C57.9986 152.573 58.337 152.69 58.6884 152.738C59.0398 152.786 59.3972 152.764 59.7403 152.674C60.0833 152.584 60.4053 152.427 60.6877 152.213C60.9702 151.999 61.2077 151.731 61.3866 151.424C61.5655 151.118 61.6823 150.78 61.7304 150.428C61.7785 150.077 61.7569 149.719 61.6669 149.376C61.5768 149.033 61.4201 148.711 61.2056 148.429C60.9912 148.146 60.7232 147.909 60.4169 147.73Z" fill="#249161"/>
<path d="M313.966 75.0149C313.747 73.5591 313.93 72.0711 314.495 70.7116C314.768 70.1907 315.345 69.6538 315.881 69.9103C316.045 70.0259 316.18 70.1781 316.274 70.3548C316.369 70.5314 316.421 70.7277 316.426 70.928C316.962 74.555 316.531 78.2591 315.176 81.6662C314.191 79.9673 314.126 76.9943 313.966 75.0149Z" fill="white"/>
<path d="M316.386 88.3335C316.608 89.7886 316.428 91.2766 315.865 92.6368C315.593 93.1657 315.016 93.6946 314.479 93.4381C314.315 93.3225 314.181 93.1703 314.086 92.9936C313.992 92.817 313.94 92.6207 313.934 92.4204C313.383 88.791 313.803 85.0804 315.152 81.6662C316.17 83.3651 316.234 86.3301 316.386 88.3335Z" fill="white"/>
<path d="M321.827 80.4562C323.282 80.2345 324.771 80.4146 326.131 80.977C326.66 81.2495 327.188 81.8265 326.932 82.3634C326.816 82.527 326.664 82.6614 326.488 82.756C326.311 82.8506 326.115 82.9027 325.914 82.9083C322.288 83.4462 318.584 83.0177 315.176 81.6662C316.875 80.6725 319.848 80.6084 321.827 80.4562Z" fill="white"/>
<path d="M308.533 82.8763C307.077 83.0954 305.589 82.9125 304.23 82.3474C303.701 82.0829 303.172 81.4979 303.428 80.969C303.542 80.803 303.694 80.6664 303.871 80.5702C304.048 80.4741 304.245 80.4213 304.446 80.4161C308.063 79.8838 311.756 80.315 315.152 81.6662C313.477 82.6599 310.512 82.724 308.533 82.8763Z" fill="white"/>
<path d="M319.023 76.1048C319.898 74.9227 321.078 74.0004 322.436 73.4363C322.997 73.252 323.783 73.2921 323.983 73.845C324.018 74.0434 324.006 74.2472 323.949 74.4405C323.892 74.6337 323.791 74.8111 323.654 74.9589C321.46 77.9037 318.527 80.2173 315.152 81.6662C315.681 79.759 317.74 77.6194 319.023 76.1048Z" fill="white"/>
<path d="M311.338 87.2196C310.462 88.4017 309.282 89.324 307.924 89.8881C307.355 90.0724 306.57 90.0404 306.377 89.4794C306.341 89.2822 306.351 89.0792 306.408 88.8869C306.465 88.6946 306.567 88.5187 306.706 88.3735C308.882 85.433 311.795 83.1193 315.152 81.6662C314.679 83.5654 312.62 85.705 311.338 87.2196Z" fill="white"/>
<path d="M320.762 85.5047C321.944 86.3801 322.866 87.56 323.43 88.9185C323.614 89.4875 323.574 90.2728 323.021 90.4651C322.824 90.5018 322.621 90.4912 322.429 90.4341C322.237 90.377 322.061 90.275 321.916 90.1365C318.953 87.9592 316.62 85.0369 315.152 81.6662C317.083 82.163 319.223 84.2225 320.762 85.5047Z" fill="white"/>
<path d="M309.623 77.8198C308.441 76.9443 307.518 75.7645 306.954 74.406C306.77 73.845 306.802 73.0597 307.363 72.8594C307.56 72.8246 307.763 72.8361 307.955 72.8932C308.147 72.9502 308.323 73.0511 308.469 73.1879C311.406 75.3748 313.712 78.2999 315.152 81.6663C313.277 81.1614 311.145 79.1019 309.623 77.8198Z" fill="white"/>
<path d="M316.659 81.6662C316.659 81.9594 316.572 82.2461 316.409 82.4899C316.246 82.7337 316.014 82.9237 315.743 83.0359C315.473 83.1481 315.174 83.1775 314.887 83.1203C314.599 83.0631 314.335 82.9219 314.128 82.7145C313.92 82.5072 313.779 82.243 313.722 81.9555C313.665 81.6679 313.694 81.3698 313.806 81.0989C313.919 80.828 314.109 80.5965 314.352 80.4336C314.596 80.2707 314.883 80.1837 315.176 80.1837C315.569 80.1837 315.946 80.3399 316.224 80.6179C316.502 80.896 316.659 81.273 316.659 81.6662Z" fill="#F28482"/>
<path d="M292.073 63.9723C291.929 63.0096 292.051 62.0259 292.426 61.1275C292.602 60.7749 292.987 60.4223 293.339 60.5986C293.451 60.6719 293.542 60.7719 293.605 60.8894C293.668 61.007 293.7 61.1384 293.7 61.2717C294.062 63.665 293.786 66.1116 292.898 68.3637C292.217 67.2418 292.185 65.2785 292.073 63.9723Z" fill="#F28482"/>
<path d="M293.676 72.7631C293.822 73.7251 293.702 74.7086 293.331 75.6079C293.155 75.9605 292.77 76.3051 292.418 76.1368C292.308 76.061 292.218 75.9606 292.154 75.8438C292.09 75.7269 292.054 75.5968 292.049 75.4637C291.691 73.0676 291.968 70.6197 292.85 68.3636C293.516 69.4936 293.572 71.4569 293.676 72.7631Z" fill="#F28482"/>
<path d="M297.274 67.5704C298.236 67.4204 299.22 67.5397 300.119 67.915C300.463 68.0913 300.816 68.4759 300.648 68.8285C300.574 68.9399 300.474 69.0312 300.357 69.0941C300.239 69.1571 300.108 69.1898 299.975 69.1891C297.579 69.5549 295.129 69.2784 292.875 68.3878C294.004 67.7146 295.968 67.6746 297.274 67.5704Z" fill="#F28482"/>
<path d="M288.483 69.1651C287.521 69.3159 286.536 69.1966 285.638 68.8205C285.286 68.6442 284.933 68.2596 285.109 67.907C285.182 67.7967 285.281 67.7061 285.397 67.6432C285.513 67.5803 285.643 67.547 285.775 67.5463C288.17 67.1836 290.62 67.46 292.875 68.3477C291.753 69.0208 289.789 69.101 288.483 69.1651Z" fill="#F28482"/>
<path d="M295.423 64.6935C295.997 63.9102 296.776 63.3003 297.675 62.9305C298.051 62.8023 298.572 62.8264 298.7 63.195C298.728 63.3268 298.722 63.4635 298.683 63.5924C298.643 63.7212 298.572 63.8381 298.476 63.9322C297.034 65.8824 295.097 67.4123 292.866 68.3637C293.211 67.1056 294.565 65.6952 295.423 64.6935Z" fill="#F28482"/>
<path d="M290.31 72.0419C289.734 72.8272 288.952 73.4375 288.05 73.8049C287.682 73.9251 287.161 73.909 287.033 73.5324C287.01 73.4024 287.017 73.2688 287.055 73.1422C287.092 73.0156 287.159 72.8995 287.249 72.8032C288.696 70.856 290.631 69.3247 292.858 68.3636C292.546 69.6298 291.184 71.0402 290.31 72.0419Z" fill="#F28482"/>
<path d="M296.553 70.912C297.336 71.4864 297.946 72.2655 298.316 73.1638C298.436 73.5404 298.412 74.0613 298.043 74.1895C297.913 74.2126 297.78 74.2051 297.653 74.1675C297.526 74.13 297.41 74.0634 297.314 73.9731C295.366 72.5269 293.835 70.5918 292.875 68.3636C294.133 68.7002 295.551 70.0625 296.553 70.912Z" fill="#F28482"/>
<path d="M289.204 65.8234C288.419 65.2457 287.806 64.4642 287.433 63.5635C287.313 63.1949 287.337 62.674 287.706 62.5458C287.837 62.5221 287.972 62.5292 288.1 62.5668C288.228 62.6044 288.345 62.6713 288.443 62.7622C290.388 64.2097 291.916 66.1446 292.874 68.3717C291.616 68.0351 290.198 66.6968 289.204 65.8234Z" fill="#F28482"/>
<path d="M292.874 69.3494C293.414 69.3494 293.852 68.9116 293.852 68.3717C293.852 67.8318 293.414 67.394 292.874 67.394C292.334 67.394 291.897 67.8318 291.897 68.3717C291.897 68.9116 292.334 69.3494 292.874 69.3494Z" fill="white"/>
<path d="M45.095 88.8705C44.874 87.4173 45.057 85.9313 45.6239 84.5752C45.8883 84.0463 46.4252 83.5174 47.0022 83.7738C47.1673 83.8886 47.3033 84.0404 47.3993 84.2171C47.4953 84.3938 47.5487 84.5905 47.5551 84.7915C48.0911 88.4238 47.6599 92.1332 46.305 95.5457C45.3113 93.8228 45.2552 90.8498 45.095 88.8705Z" fill="white"/>
<path d="M47.4991 102.173C47.7201 103.626 47.5371 105.112 46.9702 106.468C46.7058 106.997 46.1208 107.526 45.5919 107.27C45.4259 107.156 45.2892 107.004 45.1931 106.827C45.097 106.65 45.0441 106.453 45.0389 106.252C44.5144 102.634 44.9511 98.9415 46.3051 95.5457C47.2988 97.2206 47.3549 100.194 47.4991 102.173Z" fill="white"/>
<path d="M52.9483 94.3116C54.4041 94.0892 55.893 94.2722 57.2516 94.8405C57.7805 95.105 58.3094 95.69 58.0529 96.2189C57.9381 96.384 57.7863 96.5199 57.6096 96.6159C57.4329 96.7119 57.2362 96.7653 57.0352 96.7718C53.4129 97.3133 49.7118 96.8904 46.3051 95.5457C48.0039 94.528 50.977 94.4719 52.9483 94.3116Z" fill="white"/>
<path d="M39.6538 96.7317C38.2007 96.9527 36.7147 96.7697 35.3586 96.2028C34.8297 95.9384 34.3008 95.3534 34.5572 94.8245C34.6712 94.6604 34.8217 94.5251 34.997 94.4292C35.1722 94.3332 35.3673 94.2792 35.5669 94.2715C39.1961 93.7438 42.9002 94.1833 46.3051 95.5457C44.6062 96.5153 41.6332 96.5714 39.6538 96.7317Z" fill="white"/>
<path d="M50.1516 89.9362C51.021 88.7484 52.2027 87.8247 53.5653 87.2677C54.1263 87.0834 54.9116 87.1155 55.1039 87.6764C55.14 87.8736 55.1291 88.0765 55.072 88.2687C55.0149 88.4608 54.9133 88.6368 54.7754 88.7823C52.5981 91.7446 49.6758 94.078 46.3051 95.5457C46.8019 93.6145 48.8614 91.4748 50.1516 89.9362Z" fill="white"/>
<path d="M42.4585 101.075C41.589 102.263 40.4074 103.187 39.0448 103.744C38.4838 103.928 37.6985 103.896 37.4981 103.335C37.4656 103.137 37.4791 102.934 37.5374 102.743C37.5958 102.551 37.6975 102.375 37.8347 102.229C40.0223 99.2962 42.9437 96.9911 46.305 95.5457C45.8082 97.4289 43.7487 99.5525 42.4585 101.075Z" fill="white"/>
<path d="M51.8585 99.3682C53.0428 100.231 53.9662 101.404 54.527 102.758C54.7113 103.319 54.6792 104.104 54.1183 104.297C53.9211 104.333 53.7182 104.322 53.526 104.265C53.3339 104.207 53.1579 104.106 53.0124 103.968C50.0773 101.797 47.7643 98.8923 46.3051 95.5457C48.2043 96.0185 50.3519 98.078 51.8585 99.3682Z" fill="white"/>
<path d="M40.7516 91.6751C39.5638 90.8056 38.6401 89.624 38.0831 88.2613C37.8988 87.7004 37.9308 86.915 38.4918 86.7227C38.689 86.6866 38.8919 86.6976 39.084 86.7547C39.2762 86.8118 39.4522 86.9134 39.5977 87.0513C42.5427 89.2424 44.8565 92.1728 46.305 95.5457C44.3978 95.0248 42.2582 92.9653 40.7516 91.6751Z" fill="white"/>
<path d="M47.7796 95.5457C47.7796 95.8373 47.6931 96.1224 47.5311 96.3649C47.369 96.6074 47.1388 96.7964 46.8693 96.908C46.5999 97.0196 46.3034 97.0488 46.0174 96.9919C45.7314 96.935 45.4687 96.7946 45.2624 96.5884C45.0562 96.3821 44.9158 96.1194 44.8589 95.8334C44.802 95.5474 44.8312 95.2509 44.9428 94.9815C45.0544 94.712 45.2434 94.4817 45.4859 94.3197C45.7284 94.1577 46.0134 94.0712 46.3051 94.0712C46.6961 94.0712 47.0712 94.2266 47.3477 94.5031C47.6242 94.7796 47.7796 95.1547 47.7796 95.5457Z" fill="#F28482"/>
<path d="M23.2019 77.8278C23.0561 76.8658 23.1753 75.8823 23.5465 74.9829C23.7308 74.6384 24.1075 74.2858 24.4601 74.454C24.5696 74.5299 24.6599 74.6302 24.7239 74.7471C24.7879 74.8639 24.8238 74.9941 24.8287 75.1272C25.1911 77.5231 24.9146 79.9723 24.0273 82.2272C23.3462 81.1213 23.3061 79.134 23.2019 77.8278Z" fill="#F28482"/>
<path d="M24.8046 86.6186C24.9487 87.5813 24.8268 88.565 24.452 89.4634C24.2757 89.816 23.8911 90.1686 23.5385 90.0003C23.43 89.924 23.3409 89.8234 23.2783 89.7066C23.2157 89.5897 23.1813 89.4597 23.1779 89.3272C22.8151 86.9312 23.0916 84.482 23.9792 82.2272C24.6604 83.3491 24.7005 85.3124 24.8046 86.6186Z" fill="#F28482"/>
<path d="M28.3947 81.4258C29.3567 81.2792 30.3404 81.3983 31.2395 81.7704C31.5921 81.9467 31.9447 82.3313 31.7765 82.6839C31.6993 82.7922 31.5987 82.8815 31.4821 82.9453C31.3655 83.0092 31.236 83.0458 31.1033 83.0526C28.7074 83.4153 26.2581 83.1389 24.0033 82.2512C25.1252 81.5701 27.0885 81.53 28.3947 81.4258Z" fill="#F28482"/>
<path d="M19.6039 83.0285C18.6412 83.1718 17.6577 83.0499 16.7591 82.6759C16.4145 82.4996 16.0619 82.115 16.2302 81.7624C16.3036 81.651 16.4035 81.5597 16.5211 81.4967C16.6386 81.4338 16.77 81.4011 16.9034 81.4018C19.2993 81.0394 21.7485 81.3158 24.0034 82.2031C22.8815 82.8843 20.9101 82.9243 19.6039 83.0285Z" fill="#F28482"/>
<path d="M26.5437 78.549C27.1194 77.7636 27.9017 77.1533 28.8035 76.786C29.1721 76.6658 29.693 76.6898 29.8212 77.0584C29.8443 77.1884 29.8368 77.322 29.7992 77.4486C29.7617 77.5752 29.6951 77.6913 29.6049 77.7877C28.1578 79.7349 26.2229 81.2662 23.9954 82.2272C24.3319 80.9691 25.6942 79.5186 26.5437 78.549Z" fill="#F28482"/>
<path d="M21.463 85.9294C20.8836 86.7131 20.1027 87.3251 19.2032 87.7004C18.8266 87.8206 18.3057 87.7966 18.1775 87.428C18.1541 87.2961 18.1622 87.1606 18.2012 87.0324C18.2402 86.9043 18.309 86.7872 18.4018 86.6907C19.8475 84.7441 21.7829 83.215 24.0113 82.2592C23.6748 83.5254 22.3125 84.9037 21.463 85.9294Z" fill="#F28482"/>
<path d="M27.6735 84.7675C28.4589 85.3451 29.0713 86.1266 29.4445 87.0273C29.5647 87.3959 29.5407 87.9168 29.172 88.0451C29.0408 88.0682 28.906 88.0607 28.7781 88.0232C28.6502 87.9856 28.5327 87.9191 28.4348 87.8287C26.4921 86.3789 24.964 84.4446 24.0033 82.2192C25.2614 82.5557 26.6638 83.918 27.6735 84.7675Z" fill="#F28482"/>
<path d="M20.3251 79.6789C19.5401 79.1062 18.9297 78.3266 18.5621 77.427C18.4419 77.0504 18.466 76.5295 18.8346 76.4013C18.9652 76.3751 19.1003 76.3819 19.2276 76.4211C19.355 76.4603 19.4705 76.5306 19.5638 76.6257C21.5145 78.0692 23.0466 80.005 24.0034 82.2352C22.7452 81.9227 21.3268 80.5363 20.3251 79.6789Z" fill="#F28482"/>
<path d="M24.0033 83.2049C24.5432 83.2049 24.9809 82.7672 24.9809 82.2272C24.9809 81.6873 24.5432 81.2496 24.0033 81.2496C23.4633 81.2496 23.0256 81.6873 23.0256 82.2272C23.0256 82.7672 23.4633 83.2049 24.0033 83.2049Z" fill="white"/>
<path d="M355.124 108.984C355.042 108.442 355.111 107.887 355.324 107.382C355.42 107.181 355.645 106.981 355.845 107.077C355.908 107.122 355.959 107.181 355.995 107.249C356.031 107.317 356.051 107.393 356.053 107.47C356.255 108.845 356.092 110.249 355.581 111.541C355.261 110.727 355.106 109.858 355.124 108.984Z" fill="white"/>
<path d="M356.021 114.033C356.103 114.575 356.037 115.129 355.829 115.636C355.725 115.836 355.5 116.036 355.3 115.94C355.237 115.897 355.186 115.84 355.15 115.773C355.113 115.706 355.094 115.632 355.092 115.556C354.89 114.181 355.053 112.777 355.565 111.485C355.884 112.296 356.039 113.162 356.021 114.033Z" fill="white"/>
<path d="M358.105 111.044C358.647 110.97 359.2 111.039 359.708 111.244C359.908 111.348 360.108 111.573 360.012 111.773C359.967 111.836 359.908 111.887 359.84 111.923C359.772 111.959 359.696 111.979 359.619 111.981C358.245 112.183 356.841 112.02 355.549 111.509C356.363 111.191 357.231 111.033 358.105 111.044Z" fill="white"/>
<path d="M353.056 111.966C352.514 112.049 351.959 111.979 351.454 111.765C351.253 111.661 351.053 111.445 351.149 111.244C351.192 111.182 351.249 111.13 351.316 111.094C351.383 111.058 351.458 111.038 351.534 111.036C352.909 110.83 354.313 110.994 355.605 111.509C354.794 111.828 353.928 111.983 353.056 111.966Z" fill="white"/>
<path d="M357.039 109.401C357.371 108.95 357.82 108.599 358.337 108.383C358.546 108.319 358.85 108.327 358.922 108.544C358.934 108.618 358.929 108.695 358.907 108.767C358.885 108.84 358.846 108.906 358.794 108.96C357.967 110.075 356.861 110.954 355.589 111.509C355.932 110.719 356.424 110.004 357.039 109.401Z" fill="white"/>
<path d="M354.122 113.616C353.792 114.067 353.342 114.417 352.824 114.626C352.616 114.698 352.319 114.682 352.239 114.474C352.227 114.398 352.233 114.32 352.255 114.247C352.277 114.173 352.315 114.106 352.367 114.049C353.193 112.934 354.299 112.058 355.573 111.509C355.227 112.297 354.735 113.012 354.122 113.616Z" fill="white"/>
<path d="M357.688 112.967C358.137 113.298 358.488 113.744 358.706 114.257C358.77 114.474 358.762 114.77 358.546 114.85C358.471 114.863 358.394 114.858 358.322 114.835C358.25 114.813 358.184 114.774 358.129 114.722C357.014 113.895 356.135 112.79 355.581 111.517C356.372 111.857 357.088 112.35 357.688 112.967Z" fill="white"/>
<path d="M353.473 110.05C353.022 109.72 352.673 109.27 352.463 108.752C352.391 108.536 352.407 108.239 352.616 108.167C352.691 108.155 352.769 108.161 352.843 108.183C352.916 108.205 352.984 108.244 353.04 108.295C354.155 109.121 355.032 110.227 355.581 111.501C354.792 111.155 354.077 110.663 353.473 110.05Z" fill="white"/>
<path d="M355.581 112.07C355.89 112.07 356.142 111.818 356.142 111.509C356.142 111.199 355.89 110.948 355.581 110.948C355.271 110.948 355.02 111.199 355.02 111.509C355.02 111.818 355.271 112.07 355.581 112.07Z" fill="#F28482"/>
<path d="M355.669 122.551C355.55 121.776 355.647 120.983 355.949 120.26C356.093 119.971 356.406 119.691 356.686 119.827C356.774 119.889 356.846 119.971 356.898 120.065C356.949 120.159 356.978 120.264 356.983 120.372C357.27 122.307 357.04 124.283 356.318 126.101C355.789 125.196 355.757 123.593 355.669 122.551Z" fill="#F28482"/>
<path d="M356.959 129.651C357.077 130.427 356.98 131.22 356.678 131.943C356.534 132.224 356.23 132.512 355.941 132.368C355.854 132.308 355.782 132.228 355.732 132.135C355.682 132.041 355.654 131.937 355.653 131.831C355.366 129.896 355.595 127.919 356.318 126.101C356.823 127.007 356.879 128.594 356.959 129.651Z" fill="#F28482"/>
<path d="M359.868 125.452C360.643 125.334 361.436 125.431 362.16 125.733C362.44 125.877 362.729 126.19 362.584 126.47C362.44 126.751 362.256 126.726 362.048 126.767C360.112 127.054 358.136 126.824 356.318 126.101C357.223 125.573 358.81 125.54 359.868 125.452Z" fill="#F28482"/>
<path d="M352.768 126.743C351.993 126.862 351.2 126.765 350.476 126.462C350.187 126.318 349.907 126.013 350.043 125.725C350.105 125.637 350.186 125.565 350.281 125.515C350.376 125.464 350.481 125.438 350.588 125.436C352.523 125.15 354.5 125.379 356.318 126.101C355.412 126.63 353.826 126.662 352.768 126.743Z" fill="#F28482"/>
<path d="M358.369 123.136C358.832 122.502 359.462 122.008 360.188 121.71C360.493 121.614 360.91 121.63 360.99 121.926C361.009 122.032 361.003 122.141 360.973 122.244C360.942 122.347 360.887 122.441 360.813 122.519C359.648 124.09 358.089 125.326 356.294 126.101C356.582 125.084 357.68 123.938 358.369 123.136Z" fill="#F28482"/>
<path d="M354.266 129.066C353.796 129.697 353.165 130.189 352.439 130.493C352.143 130.589 351.718 130.573 351.638 130.268C351.622 130.164 351.629 130.057 351.659 129.956C351.69 129.855 351.743 129.762 351.814 129.684C352.982 128.112 354.544 126.876 356.342 126.101C356.021 127.119 354.947 128.257 354.266 129.066Z" fill="#F28482"/>
<path d="M359.283 128.153C359.913 128.62 360.406 129.249 360.709 129.972C360.805 130.276 360.789 130.693 360.485 130.773C360.38 130.794 360.273 130.788 360.171 130.757C360.069 130.727 359.976 130.672 359.9 130.597C358.327 129.434 357.091 127.874 356.318 126.077C357.336 126.366 358.474 127.464 359.283 128.153Z" fill="#F28482"/>
<path d="M353.353 124.05C352.718 123.584 352.224 122.952 351.926 122.223C351.83 121.926 351.846 121.502 352.143 121.422C352.249 121.405 352.358 121.413 352.461 121.445C352.563 121.477 352.658 121.532 352.736 121.606C354.307 122.771 355.542 124.33 356.318 126.126C355.3 125.837 354.154 124.731 353.353 124.05Z" fill="#F28482"/>
<path d="M357.103 126.101C357.103 126.26 357.056 126.415 356.968 126.547C356.88 126.678 356.755 126.781 356.609 126.842C356.462 126.902 356.301 126.918 356.146 126.887C355.99 126.856 355.847 126.78 355.735 126.668C355.623 126.556 355.547 126.413 355.516 126.258C355.485 126.102 355.501 125.941 355.561 125.795C355.622 125.648 355.725 125.523 355.857 125.435C355.988 125.347 356.143 125.3 356.302 125.3C356.514 125.3 356.718 125.385 356.868 125.535C357.019 125.685 357.103 125.889 357.103 126.101Z" fill="white"/>
<path d="M344.586 112.414C344.485 111.764 344.565 111.098 344.818 110.491C344.939 110.259 345.203 110.018 345.435 110.138C345.668 110.259 345.652 110.411 345.684 110.587C345.927 112.211 345.733 113.871 345.123 115.395C344.755 114.445 344.573 113.433 344.586 112.414Z" fill="#8FD5A6"/>
<path d="M345.668 118.36C345.766 119.011 345.686 119.675 345.435 120.284C345.315 120.524 345.051 120.756 344.81 120.644C344.737 120.592 344.677 120.524 344.635 120.445C344.594 120.365 344.571 120.277 344.57 120.187C344.33 118.564 344.52 116.906 345.123 115.379C345.497 116.328 345.682 117.341 345.668 118.36Z" fill="#8FD5A6"/>
<path d="M348.096 114.85C348.746 114.748 349.412 114.828 350.019 115.083C350.26 115.203 350.492 115.467 350.38 115.7C350.327 115.773 350.259 115.833 350.18 115.876C350.101 115.919 350.013 115.944 349.923 115.948C348.299 116.19 346.64 115.996 345.115 115.387C346.065 115.02 347.077 114.838 348.096 114.85Z" fill="#8FD5A6"/>
<path d="M342.15 115.932C341.499 116.027 340.834 115.944 340.227 115.692C339.994 115.58 339.754 115.315 339.874 115.075C339.924 115.001 339.99 114.941 340.069 114.899C340.147 114.857 340.234 114.835 340.323 114.834C341.946 114.593 343.605 114.784 345.131 115.387C344.183 115.763 343.17 115.948 342.15 115.932Z" fill="#8FD5A6"/>
<path d="M346.846 112.903C347.238 112.376 347.763 111.964 348.368 111.709C348.625 111.629 348.977 111.645 349.066 111.893C349.08 111.982 349.073 112.073 349.047 112.159C349.02 112.246 348.975 112.324 348.913 112.39C347.938 113.707 346.629 114.742 345.123 115.387C345.534 114.457 346.119 113.614 346.846 112.903Z" fill="#8FD5A6"/>
<path d="M343.408 117.872C343.02 118.405 342.489 118.819 341.877 119.066C341.629 119.154 341.276 119.138 341.188 118.881C341.174 118.794 341.181 118.704 341.207 118.619C341.234 118.534 341.279 118.457 341.34 118.392C342.315 117.075 343.62 116.039 345.123 115.387C344.719 116.32 344.137 117.164 343.408 117.872Z" fill="#8FD5A6"/>
<path d="M347.607 117.11C348.138 117.497 348.552 118.025 348.801 118.633C348.889 118.889 348.873 119.242 348.625 119.33C348.536 119.345 348.445 119.338 348.359 119.312C348.272 119.286 348.193 119.24 348.128 119.178C346.811 118.2 345.774 116.893 345.123 115.387C346.056 115.794 346.9 116.379 347.607 117.11Z" fill="#8FD5A6"/>
<path d="M342.639 113.672C342.11 113.279 341.697 112.75 341.445 112.142C341.365 111.893 341.381 111.541 341.629 111.453C341.718 111.439 341.809 111.445 341.895 111.471C341.981 111.498 342.06 111.543 342.126 111.605C343.443 112.578 344.477 113.883 345.123 115.387C344.193 114.98 343.349 114.398 342.639 113.672Z" fill="#8FD5A6"/>
<path d="M345.788 115.387C345.79 115.519 345.752 115.649 345.68 115.759C345.608 115.869 345.504 115.956 345.383 116.007C345.262 116.059 345.128 116.073 344.998 116.049C344.869 116.024 344.749 115.961 344.655 115.868C344.562 115.776 344.497 115.657 344.471 115.528C344.445 115.399 344.458 115.265 344.508 115.143C344.558 115.021 344.643 114.916 344.753 114.843C344.862 114.769 344.991 114.73 345.123 114.73C345.298 114.73 345.466 114.799 345.59 114.922C345.715 115.045 345.786 115.212 345.788 115.387Z" fill="#F28482"/>
<path d="M65.2812 130.236C64.7533 130.056 64.2849 129.735 63.9269 129.307C63.7987 129.123 63.7186 128.834 63.9269 128.698C63.9954 128.664 64.0708 128.646 64.1473 128.646C64.2237 128.646 64.2991 128.664 64.3677 128.698C65.6796 129.158 66.8483 129.954 67.7574 131.006C66.889 130.917 66.0472 130.655 65.2812 130.236Z" fill="white"/>
<path d="M70.1775 131.759C70.7061 131.942 71.1745 132.266 71.5318 132.697C71.66 132.881 71.7402 133.169 71.5318 133.298C71.4639 133.333 71.3882 133.352 71.3114 133.352C71.2347 133.352 71.159 133.333 71.0911 133.298C69.7789 132.842 68.6117 132.046 67.7094 130.99C68.5736 131.087 69.4113 131.348 70.1775 131.759Z" fill="white"/>
<path d="M68.4947 128.554C68.675 128.026 68.9965 127.557 69.4243 127.199C69.6086 127.071 69.8971 126.991 70.0333 127.199C70.0671 127.266 70.0847 127.341 70.0847 127.416C70.0847 127.491 70.0671 127.565 70.0333 127.632C69.5828 128.947 68.7887 130.117 67.7334 131.022C67.8201 130.157 68.0789 129.317 68.4947 128.554Z" fill="white"/>
<path d="M66.9641 133.45C66.7832 133.98 66.4619 134.451 66.0345 134.812C65.8502 134.94 65.5617 135.013 65.4255 134.812C65.3915 134.744 65.3739 134.668 65.3739 134.592C65.3739 134.515 65.3915 134.44 65.4255 134.371C65.8799 133.057 66.6765 131.886 67.7334 130.982C67.6378 131.846 67.3766 132.684 66.9641 133.45Z" fill="white"/>
<path d="M66.5393 128.73C66.2943 128.233 66.1917 127.679 66.2428 127.127C66.2428 126.911 66.4271 126.646 66.6515 126.678C66.8759 126.71 66.8919 126.855 66.964 126.991C67.5771 128.233 67.8534 129.615 67.7654 130.998C67.2118 130.33 66.7952 129.559 66.5393 128.73Z" fill="white"/>
<path d="M68.9193 133.274C69.1647 133.77 69.2674 134.325 69.2158 134.876C69.2158 135.101 69.0315 135.357 68.8071 135.325C68.5828 135.293 68.5667 135.157 68.4946 135.021C67.879 133.779 67.6025 132.397 67.6933 131.014C68.2425 131.682 68.6587 132.449 68.9193 133.274Z" fill="white"/>
<path d="M70.0012 129.812C70.4978 129.567 71.0526 129.464 71.604 129.515C71.8203 129.515 72.0767 129.7 72.0447 129.924C72.0126 130.148 71.8764 130.164 71.7402 130.236C70.494 130.836 69.1126 131.098 67.7334 130.998C68.4047 130.458 69.1751 130.055 70.0012 129.812Z" fill="white"/>
<path d="M65.4575 132.192C64.9611 132.437 64.4062 132.54 63.8548 132.488C63.6304 132.448 63.374 132.304 63.406 132.08C63.4381 131.855 63.5743 131.831 63.7106 131.767C64.9523 131.152 66.3345 130.875 67.7174 130.966C67.05 131.516 66.2827 131.932 65.4575 132.192Z" fill="white"/>
<path d="M67.9898 130.501C68.0553 130.535 68.1132 130.583 68.1603 130.64C68.2075 130.697 68.2429 130.762 68.2645 130.833C68.2861 130.904 68.2934 130.978 68.2862 131.052C68.2789 131.126 68.2572 131.197 68.2222 131.262C68.1698 131.36 68.0897 131.44 67.992 131.492C67.8942 131.544 67.7832 131.566 67.673 131.555C67.5627 131.544 67.4582 131.501 67.3725 131.431C67.2868 131.361 67.2238 131.267 67.1914 131.161C67.1591 131.055 67.1588 130.942 67.1907 130.836C67.2226 130.729 67.2852 130.635 67.3706 130.565C67.456 130.494 67.5604 130.45 67.6706 130.439C67.7808 130.428 67.8919 130.449 67.9898 130.501Z" fill="#F28482"/>
<path d="M41.505 129.892C40.7632 129.632 40.1047 129.178 39.5977 128.578C39.4134 128.321 39.3092 127.912 39.5977 127.72C39.6921 127.672 39.7964 127.647 39.9023 127.647C40.0081 127.647 40.1124 127.672 40.2068 127.72C42.0682 128.358 43.7272 129.478 45.0149 130.966C43.901 131.006 42.4746 130.301 41.505 129.892Z" fill="#F28482"/>
<path d="M48.3886 132.031C49.132 132.288 49.7913 132.742 50.2958 133.346C50.4801 133.602 50.5843 134.011 50.2958 134.195C50.2021 134.245 50.0975 134.271 49.9913 134.271C49.8851 134.271 49.7806 134.245 49.6868 134.195C47.8238 133.56 46.164 132.44 44.8787 130.95C45.9925 130.91 47.419 131.607 48.3886 132.031Z" fill="#F28482"/>
<path d="M46.0166 127.52C46.2732 126.777 46.7276 126.117 47.3308 125.613C47.5872 125.428 47.9959 125.324 48.1882 125.613C48.2339 125.709 48.2576 125.814 48.2576 125.921C48.2576 126.028 48.2339 126.133 48.1882 126.23C47.5404 128.075 46.4216 129.718 44.9427 130.998C44.8947 129.908 45.6079 128.49 46.0166 127.52Z" fill="#F28482"/>
<path d="M43.877 134.403C43.6204 135.147 43.166 135.806 42.5628 136.311C42.3063 136.495 41.8976 136.599 41.7053 136.311C41.6597 136.214 41.636 136.109 41.636 136.002C41.636 135.895 41.6597 135.79 41.7053 135.694C42.3554 133.848 43.477 132.204 44.9588 130.926C44.9989 132.007 44.2937 133.426 43.877 134.403Z" fill="#F28482"/>
<path d="M43.2679 127.768C42.9265 127.061 42.7825 126.275 42.8511 125.492C42.9072 125.18 43.1156 124.819 43.4281 124.867C43.7407 124.915 43.7727 125.1 43.8689 125.292C44.7196 127.053 45.0927 129.007 44.9507 130.958C44.1734 130.252 43.6685 128.746 43.2679 127.768Z" fill="#F28482"/>
<path d="M46.6256 134.155C46.9678 134.862 47.1118 135.649 47.0423 136.431C46.9863 136.743 46.7779 137.104 46.4654 137.056C46.1528 137.008 46.1208 136.816 46.0246 136.623C45.1712 134.863 44.8006 132.908 44.9508 130.958C45.7201 131.671 46.225 133.21 46.6256 134.155Z" fill="#F28482"/>
<path d="M48.1402 129.283C48.8472 128.941 49.6337 128.797 50.4161 128.866C50.7286 128.922 51.0892 129.131 51.0411 129.443C50.993 129.756 50.8007 129.788 50.6164 129.884C48.8558 130.736 46.901 131.106 44.9508 130.958C45.656 130.18 47.1545 129.684 48.1402 129.283Z" fill="#F28482"/>
<path d="M41.7534 132.641C41.0464 132.983 40.2599 133.127 39.4775 133.057C39.165 133.001 38.8044 132.793 38.8525 132.48C38.9006 132.168 39.0929 132.136 39.2772 132.04C41.0397 131.184 42.9973 130.811 44.9508 130.958C44.2376 131.735 42.7391 132.24 41.7534 132.641Z" fill="#F28482"/>
<path d="M45.3113 130.261C45.4538 130.332 45.5716 130.445 45.6498 130.584C45.728 130.722 45.7629 130.882 45.7502 131.04C45.7374 131.199 45.6776 131.351 45.5783 131.476C45.479 131.6 45.3447 131.693 45.1927 131.741C45.0407 131.789 44.8778 131.79 44.7249 131.745C44.5719 131.7 44.4359 131.61 44.3342 131.488C44.2325 131.365 44.1698 131.215 44.154 131.056C44.1382 130.897 44.1701 130.737 44.2455 130.597C44.3444 130.413 44.511 130.275 44.7101 130.212C44.9091 130.149 45.1248 130.167 45.3113 130.261Z" fill="white"/>
<path d="M22.7371 134.484C22.1123 134.272 21.5579 133.892 21.1344 133.386C20.9822 133.169 20.894 132.833 21.1344 132.673C21.2141 132.633 21.3019 132.612 21.3908 132.612C21.4798 132.612 21.5676 132.633 21.6473 132.673C23.197 133.213 24.5783 134.15 25.6541 135.389C24.631 135.286 23.6391 134.978 22.7371 134.484Z" fill="#8FD5A6"/>
<path d="M28.515 136.279C29.1403 136.494 29.6947 136.876 30.1177 137.384C30.2699 137.601 30.3581 137.937 30.1177 138.098C30.038 138.137 29.9502 138.158 29.8612 138.158C29.7723 138.158 29.6845 138.137 29.6048 138.098C28.0515 137.56 26.6688 136.62 25.598 135.373C26.6194 135.485 27.6097 135.793 28.515 136.279Z" fill="#8FD5A6"/>
<path d="M26.5276 132.496C26.7397 131.871 27.1195 131.317 27.6255 130.894C27.8418 130.741 28.1784 130.653 28.3387 130.894C28.3783 130.975 28.3989 131.064 28.3989 131.154C28.3989 131.244 28.3783 131.333 28.3387 131.414C27.8012 132.966 26.8641 134.348 25.6221 135.421C25.7249 134.395 26.0328 133.401 26.5276 132.496Z" fill="#8FD5A6"/>
<path d="M24.7246 138.266C24.5167 138.893 24.1362 139.448 23.6267 139.869C23.4104 140.029 23.0738 140.117 22.9135 139.869C22.874 139.789 22.8534 139.701 22.8534 139.612C22.8534 139.523 22.874 139.436 22.9135 139.356C23.4519 137.803 24.392 136.421 25.6381 135.349C25.5286 136.372 25.2182 137.363 24.7246 138.266Z" fill="#8FD5A6"/>
<path d="M24.2598 132.713C23.9734 132.12 23.8543 131.461 23.9152 130.805C23.9152 130.541 24.1315 130.236 24.396 130.277C24.6604 130.317 24.6845 130.477 24.7646 130.637C25.4774 132.112 25.7896 133.748 25.6701 135.381C25.0327 134.591 24.5539 133.685 24.2598 132.713Z" fill="#8FD5A6"/>
<path d="M27.0324 138.058C27.3188 138.65 27.4379 139.31 27.377 139.965C27.377 140.229 27.1606 140.534 26.8962 140.494C26.6317 140.454 26.6077 140.293 26.5276 140.133C25.8129 138.657 25.5032 137.017 25.63 135.381C26.262 136.177 26.7378 137.085 27.0324 138.058Z" fill="#8FD5A6"/>
<path d="M28.2665 134.011C28.8597 133.726 29.518 133.604 30.1738 133.658C30.4382 133.706 30.7427 133.883 30.7027 134.147C30.6626 134.412 30.5023 134.436 30.3421 134.516C28.8681 135.23 27.2309 135.539 25.598 135.413C26.3898 134.78 27.2957 134.304 28.2665 134.011Z" fill="#8FD5A6"/>
<path d="M22.9536 136.792C22.3611 137.078 21.7016 137.197 21.0464 137.136C20.7819 137.136 20.4774 136.92 20.5175 136.655C20.5576 136.391 20.7178 136.367 20.8781 136.287C22.3553 135.573 23.9941 135.261 25.6301 135.381C24.8367 136.019 23.928 136.497 22.9536 136.792Z" fill="#8FD5A6"/>
<path d="M25.9345 134.812C26.0212 134.847 26.0997 134.899 26.1648 134.966C26.2299 135.033 26.2803 135.113 26.3126 135.2C26.3448 135.288 26.3584 135.381 26.3522 135.474C26.346 135.567 26.3204 135.658 26.2768 135.74C26.2333 135.823 26.1729 135.895 26.0995 135.953C26.0262 136.011 25.9415 136.052 25.851 136.075C25.7606 136.098 25.6663 136.101 25.5744 136.085C25.4825 136.069 25.3949 136.034 25.3175 135.982C25.2404 135.942 25.172 135.888 25.1162 135.822C25.0603 135.755 25.0182 135.679 24.9921 135.596C24.966 135.513 24.9566 135.426 24.9643 135.34C24.972 135.253 24.9967 135.169 25.037 135.093C25.1204 134.938 25.261 134.822 25.4287 134.77C25.5964 134.717 25.7779 134.733 25.9345 134.812Z" fill="#F28482"/>
<path d="M265.716 107.013C265.563 105.999 265.691 104.963 266.085 104.016C266.269 103.647 266.678 103.279 267.047 103.463C267.162 103.542 267.256 103.647 267.323 103.77C267.39 103.892 267.427 104.029 267.431 104.168C267.805 106.693 267.506 109.272 266.566 111.645C265.869 110.467 265.829 108.367 265.716 107.013Z" fill="#8FD5A6"/>
<path d="M267.407 116.277C267.561 117.291 267.433 118.327 267.039 119.274C266.854 119.642 266.446 120.019 266.077 119.835C265.962 119.756 265.867 119.651 265.801 119.528C265.734 119.406 265.697 119.269 265.692 119.13C265.318 116.601 265.619 114.019 266.566 111.645C267.255 112.831 267.295 114.898 267.407 116.277Z" fill="#8FD5A6"/>
<path d="M271.198 110.771C272.212 110.618 273.248 110.746 274.195 111.14C274.555 111.324 274.932 111.733 274.748 112.102C274.669 112.217 274.564 112.311 274.441 112.378C274.319 112.445 274.182 112.482 274.043 112.486C271.517 112.858 268.938 112.557 266.566 111.613C267.744 110.956 269.819 110.916 271.198 110.771Z" fill="#8FD5A6"/>
<path d="M261.926 112.494C260.912 112.644 259.876 112.517 258.929 112.126C258.568 111.941 258.192 111.533 258.376 111.164C258.452 111.051 258.553 110.957 258.671 110.888C258.789 110.82 258.921 110.78 259.057 110.771C261.585 110.398 264.166 110.696 266.542 111.637C265.38 112.374 263.304 112.374 261.926 112.494Z" fill="#8FD5A6"/>
<path d="M269.242 107.774C269.857 106.945 270.689 106.302 271.647 105.915C272.039 105.787 272.584 105.811 272.72 106.204C272.749 106.346 272.742 106.493 272.702 106.633C272.662 106.772 272.588 106.9 272.488 107.005C270.97 109.057 268.935 110.669 266.59 111.677C266.911 110.323 268.345 108.832 269.242 107.774Z" fill="#8FD5A6"/>
<path d="M263.865 115.524C263.248 116.35 262.417 116.993 261.461 117.383C261.069 117.511 260.524 117.487 260.387 117.094C260.359 116.952 260.365 116.805 260.406 116.665C260.446 116.526 260.52 116.398 260.62 116.293C262.142 114.24 264.179 112.625 266.526 111.613C266.213 112.975 264.779 114.466 263.865 115.524Z" fill="#8FD5A6"/>
<path d="M270.436 114.33C271.266 114.945 271.909 115.776 272.296 116.734C272.424 117.118 272.4 117.671 272.007 117.807C271.865 117.836 271.718 117.829 271.578 117.789C271.439 117.749 271.311 117.675 271.206 117.575C269.155 116.053 267.543 114.015 266.534 111.669C267.872 111.998 269.379 113.432 270.436 114.33Z" fill="#8FD5A6"/>
<path d="M262.687 108.968C261.858 108.353 261.215 107.522 260.828 106.564C260.7 106.172 260.724 105.627 261.117 105.491C261.259 105.459 261.407 105.463 261.547 105.504C261.687 105.544 261.815 105.62 261.918 105.723C263.969 107.244 265.583 109.278 266.598 111.621C265.236 111.3 263.745 109.866 262.687 108.968Z" fill="#8FD5A6"/>
<path d="M267.592 111.645C267.593 111.85 267.534 112.051 267.421 112.222C267.308 112.394 267.146 112.527 266.957 112.606C266.768 112.686 266.559 112.707 266.358 112.667C266.157 112.628 265.972 112.529 265.827 112.384C265.682 112.239 265.583 112.054 265.544 111.853C265.504 111.651 265.525 111.443 265.604 111.254C265.684 111.064 265.817 110.903 265.989 110.79C266.16 110.677 266.361 110.618 266.566 110.619C266.837 110.621 267.097 110.73 267.289 110.922C267.481 111.114 267.59 111.374 267.592 111.645Z" fill="#F28482"/>
<path d="M231.955 110.098C231.694 108.363 231.913 106.589 232.588 104.97C232.901 104.337 233.598 103.704 234.191 104.008C234.388 104.146 234.55 104.328 234.664 104.539C234.778 104.751 234.841 104.986 234.848 105.226C235.493 109.557 234.978 113.981 233.358 118.048C232.22 116.004 232.148 112.462 231.955 110.098Z" fill="#F28482"/>
<path d="M234.848 125.997C235.109 127.732 234.89 129.506 234.215 131.126C233.895 131.759 233.205 132.392 232.564 132.088C232.369 131.949 232.208 131.767 232.096 131.555C231.983 131.344 231.921 131.109 231.915 130.869C231.271 126.54 231.782 122.116 233.398 118.048C234.584 120.059 234.656 123.593 234.848 125.997Z" fill="#F28482"/>
<path d="M241.331 116.589C243.068 116.324 244.845 116.541 246.468 117.214C247.093 117.535 247.734 118.232 247.422 118.865C247.285 119.062 247.105 119.223 246.895 119.338C246.684 119.452 246.45 119.515 246.211 119.522C241.881 120.161 237.458 119.647 233.39 118.032C235.425 116.846 238.975 116.774 241.331 116.589Z" fill="#F28482"/>
<path d="M225.464 119.474C223.73 119.743 221.955 119.527 220.336 118.849C219.703 118.529 219.07 117.839 219.374 117.198C219.512 117.002 219.694 116.84 219.905 116.726C220.117 116.612 220.352 116.549 220.592 116.541C224.923 115.9 229.346 116.414 233.414 118.032C231.37 119.218 227.804 119.29 225.464 119.474Z" fill="#F28482"/>
<path d="M237.989 111.405C239.028 109.984 240.436 108.875 242.06 108.199C242.734 107.983 243.663 108.023 243.903 108.688C243.947 108.924 243.934 109.166 243.865 109.396C243.797 109.626 243.676 109.836 243.511 110.01C240.904 113.525 237.416 116.29 233.398 118.024C233.999 115.764 236.451 113.176 237.989 111.405Z" fill="#F28482"/>
<path d="M228.814 124.667C227.774 126.089 226.363 127.198 224.735 127.872C224.07 128.089 223.132 128.049 222.9 127.384C222.857 127.148 222.87 126.905 222.938 126.675C223.006 126.446 223.128 126.235 223.293 126.061C225.897 122.547 229.383 119.783 233.398 118.048C232.805 120.308 230.345 122.864 228.814 124.667Z" fill="#F28482"/>
<path d="M240.033 122.624C241.457 123.659 242.566 125.068 243.238 126.694C243.463 127.368 243.415 128.297 242.75 128.538C242.514 128.578 242.272 128.564 242.043 128.496C241.813 128.428 241.603 128.308 241.427 128.145C237.915 125.536 235.151 122.048 233.414 118.032C235.674 118.625 238.222 121.085 240.033 122.624Z" fill="#F28482"/>
<path d="M226.771 113.44C225.35 112.402 224.241 110.994 223.565 109.369C223.349 108.696 223.389 107.766 224.062 107.526C224.296 107.485 224.537 107.499 224.765 107.567C224.994 107.635 225.203 107.755 225.376 107.919C228.893 110.523 231.658 114.012 233.39 118.032C231.13 117.439 228.606 114.979 226.771 113.44Z" fill="#F28482"/>
<path d="M235.161 118.032C235.161 118.38 235.057 118.721 234.864 119.011C234.67 119.301 234.395 119.527 234.072 119.661C233.75 119.794 233.396 119.829 233.054 119.761C232.712 119.693 232.398 119.525 232.151 119.278C231.905 119.032 231.737 118.718 231.669 118.376C231.601 118.034 231.636 117.679 231.769 117.357C231.902 117.035 232.128 116.76 232.418 116.566C232.708 116.372 233.049 116.269 233.398 116.269C233.865 116.269 234.314 116.455 234.644 116.785C234.975 117.116 235.161 117.564 235.161 118.032Z" fill="white"/>
<g opacity="0.5">
<path d="M380.006 116.557C378.687 115.659 377.182 115.071 375.604 114.836C374.026 114.601 372.416 114.726 370.893 115.2C369.369 115.675 367.973 116.487 366.808 117.577C365.643 118.667 364.738 120.006 364.163 121.494C363.366 123.429 363.171 125.56 363.602 127.608L363.939 129.115L362.945 127.929C361.992 126.795 360.713 125.982 359.283 125.6C357.852 125.218 356.338 125.287 354.947 125.795C353.556 126.304 352.355 127.228 351.508 128.443C350.661 129.657 350.208 131.104 350.211 132.584V134.38L349.554 132.721C349.002 131.457 348.003 130.442 346.75 129.868C345.483 129.266 344.087 128.99 342.687 129.067C341.269 129.171 339.874 129.49 338.552 130.012C337.213 130.517 335.923 131.15 334.633 131.775C335.868 131.038 337.148 130.377 338.464 129.796C339.792 129.19 341.21 128.803 342.663 128.65C344.141 128.521 345.628 128.772 346.982 129.379C348.397 129.973 349.54 131.073 350.187 132.464L349.546 132.592C349.513 130.954 349.992 129.345 350.915 127.992C351.839 126.638 353.163 125.606 354.701 125.04C356.239 124.473 357.915 124.401 359.497 124.833C361.078 125.264 362.485 126.179 363.522 127.448L362.865 127.768C362.429 125.572 362.657 123.295 363.522 121.229C364.344 119.163 365.788 117.404 367.655 116.197C369.522 114.989 371.718 114.392 373.94 114.49C376.125 114.544 378.242 115.265 380.006 116.557Z" fill="#8FD5A6"/>
<path d="M305.768 71.4169C307.025 70.8518 308.401 70.6041 309.775 70.6956C311.917 70.8417 313.929 71.7729 315.427 73.3107C316.925 74.8485 317.803 76.8849 317.893 79.0298L317.156 78.8615C317.744 77.8316 318.653 77.0222 319.743 76.5564C320.834 76.0906 322.047 75.9939 323.198 76.2811C324.299 76.5955 325.267 77.263 325.951 78.1809C326.636 79.0989 327.001 80.2165 326.988 81.3617C326.879 80.2956 326.443 79.2892 325.74 78.4802C325.038 77.6712 324.102 77.099 323.062 76.8421C322.05 76.6521 321.004 76.7814 320.07 77.2121C319.135 77.6429 318.357 78.3537 317.845 79.2461L317.188 80.4562L317.108 79.0778C317.02 77.7752 316.639 76.5091 315.994 75.374C315.349 74.239 314.456 73.2643 313.381 72.5227C312.291 71.7724 311.039 71.2917 309.727 71.1204C308.402 70.9262 307.05 71.0275 305.768 71.4169Z" fill="#8FD5A6"/>
<path d="M75.5466 131.951C76.9646 131.149 78.5533 130.697 80.181 130.631C81.8088 130.566 83.4287 130.889 84.9065 131.575C86.4032 132.288 87.7107 133.344 88.7229 134.657C89.7352 135.97 90.4236 137.503 90.7323 139.132L90.0512 138.971C90.7395 138.063 91.651 137.348 92.697 136.896C93.743 136.444 94.8882 136.27 96.0213 136.391C97.1492 136.522 98.2236 136.945 99.1386 137.617C100.064 138.271 100.799 139.159 101.27 140.189L100.789 140.061C101.65 139.477 102.652 139.134 103.69 139.067C104.707 139.002 105.726 139.155 106.679 139.516C107.62 139.861 108.474 140.408 109.18 141.119C109.886 141.824 110.383 142.712 110.614 143.683C110.299 142.756 109.746 141.927 109.011 141.279C108.294 140.64 107.451 140.159 106.535 139.869C105.649 139.547 104.698 139.442 103.763 139.562C102.828 139.682 101.935 140.023 101.158 140.558L100.845 140.79L100.677 140.43C100.24 139.518 99.5761 138.733 98.7487 138.151C97.9214 137.569 96.9585 137.21 95.9522 137.107C94.946 137.004 93.9302 137.161 93.0022 137.563C92.0741 137.965 91.265 138.599 90.6522 139.404L90.1153 140.093L89.971 139.236C89.6875 137.71 89.0622 136.269 88.142 135.02C87.2219 133.771 86.0307 132.746 84.6581 132.023C83.2413 131.331 81.6874 130.965 80.1105 130.953C78.5337 130.94 76.9741 131.281 75.5466 131.951Z" fill="#8FD5A6"/>
<path d="M10.813 100.242C10.7761 99.0424 11.0764 97.8569 11.6799 96.8199C12.2834 95.7829 13.1658 94.9361 14.2267 94.3758C15.3314 93.8246 16.5681 93.5933 17.7972 93.708C19.0264 93.8227 20.199 94.2788 21.1825 95.0249L20.5575 95.3054C20.6144 94.4908 20.8914 93.707 21.3588 93.0375C21.8173 92.3798 22.4129 91.8292 23.1046 91.4239C23.7963 91.0185 24.5677 90.768 25.3656 90.6895C26.1744 90.6064 26.9904 90.7507 27.7216 91.1062L27.1927 91.4348C27.2081 90.3595 27.3126 89.2874 27.5052 88.2294C27.6945 87.1569 28.0949 86.1327 28.6832 85.2163C29.2917 84.3006 30.18 83.6063 31.2155 83.2369C31.7137 83.0324 32.2519 82.9441 32.7893 82.9788C33.3267 83.0135 33.8491 83.1703 34.3168 83.4373C33.844 83.2294 33.3315 83.1274 32.8151 83.1385C32.2988 83.1495 31.7911 83.2734 31.3277 83.5014C30.3918 83.9255 29.6046 84.6206 29.0679 85.4967C28.5677 86.3716 28.2412 87.3349 28.1062 88.3335C27.968 89.3561 27.8984 90.3869 27.8979 91.4188V91.9877L27.369 91.7393C26.738 91.4991 26.061 91.4044 25.3883 91.4622C24.7157 91.52 24.0647 91.7288 23.484 92.0731C22.9032 92.4174 22.4076 92.8883 22.0341 93.4507C21.6606 94.0131 21.4188 94.6525 21.3268 95.3214L21.2867 96.0666L20.7017 95.6019C19.8276 94.9197 18.786 94.4854 17.6863 94.3444C16.5865 94.2034 15.469 94.3609 14.4511 94.8005C13.4118 95.297 12.5255 96.0643 11.8853 97.0218C11.2451 97.9793 10.8747 99.0916 10.813 100.242Z" fill="#8FD5A6"/>
<path d="M-3.05042 58.1865C-1.74812 57.1231 -0.191897 56.4163 1.46576 56.1354C3.12341 55.8544 4.82563 56.0089 6.40559 56.5838C8.00434 57.1981 9.41786 58.2139 10.5099 59.5333C11.6019 60.8527 12.3356 62.4312 12.6401 64.1165L11.9109 64.0124C12.3707 63.0343 13.101 62.2085 14.0154 61.6324C14.9297 61.0564 15.99 60.7543 17.0707 60.7618C18.1514 60.7694 19.2073 61.0864 20.1135 61.6752C21.0197 62.264 21.7383 63.1001 22.1843 64.0845L21.7596 63.9162C22.7439 63.5414 23.8091 63.4307 24.8495 63.5952C25.8898 63.7596 26.869 64.1936 27.6896 64.8538C28.4717 65.517 29.0629 66.3767 29.4024 67.3444C29.7418 68.312 29.8172 69.3526 29.6209 70.3591C29.7347 69.3851 29.5961 68.3981 29.2187 67.493C28.8412 66.5879 28.2374 65.795 27.4652 65.1904C26.6983 64.6173 25.7947 64.2551 24.8442 64.1398C23.8938 64.0245 22.9298 64.1601 22.0481 64.5332L21.7596 64.6615L21.6234 64.365C21.2201 63.5163 20.5844 62.7993 19.7901 62.2973C18.9958 61.7953 18.0754 61.5288 17.1358 61.5288C16.1961 61.5288 15.2757 61.7953 14.4814 62.2973C13.6871 62.7993 13.0514 63.5163 12.6482 64.365L12.1032 65.4708L11.9109 64.2688C11.628 62.7027 10.9608 61.2313 9.9692 59.9865C8.97759 58.7417 7.69254 57.7626 6.22929 57.1367C4.7156 56.5344 3.07663 56.3151 1.45783 56.4982C-0.16097 56.6814 -1.70953 57.2613 -3.05042 58.1865Z" fill="#8FD5A6"/>
</g>
</g>
<mask id="mask1_22_35752" style="mask-type:luminance" maskUnits="userSpaceOnUse" x="267" y="57" width="123" height="144">
<path d="M389.678 57.6816H267.872V200.708H389.678V57.6816Z" fill="white"/>
</mask>
<g mask="url(#mask1_22_35752)">
<path d="M389.43 125.701C388.308 115.916 386.601 105.787 380.927 97.7334C379.245 95.3293 376.063 93.0214 373.715 94.7283C372.864 95.4612 372.253 96.4327 371.96 97.517C366.671 112.078 370.83 128.177 375.005 143.098C379.076 157.619 391.746 200.708 391.746 200.708C391.746 200.708 391.89 167.355 391.746 160.52C391.465 148.892 390.76 137.256 389.43 125.701Z" fill="#34B77B"/>
<path d="M369.957 128.89C366.319 119.739 362.032 110.403 354.459 104.112C352.215 102.245 348.529 100.827 346.686 103.094C346.057 104.024 345.722 105.121 345.724 106.244C344.418 121.678 352.624 136.142 360.549 149.453C368.266 162.411 391.73 200.74 391.73 200.74C391.73 200.74 383.171 168.469 381.248 161.914C377.963 150.751 374.252 139.7 369.957 128.89Z" fill="#249161"/>
<path d="M351.502 137.352C345.556 129.507 338.92 121.662 329.937 117.631C327.269 116.437 323.342 116.028 322.18 118.729C321.822 119.793 321.791 120.941 322.092 122.023C324.969 137.248 336.757 148.98 347.952 159.686C358.858 170.104 391.73 200.716 391.73 200.716C391.73 200.716 374.845 171.947 371.231 166.145C365.077 156.264 358.546 146.616 351.502 137.352Z" fill="#33B77B"/>
<path d="M335.843 150.623C327.99 144.677 319.48 138.923 309.735 137.481C306.85 137.056 302.964 137.745 302.571 140.638C302.51 141.763 302.789 142.88 303.372 143.843C310.264 157.715 324.785 165.817 338.472 173.085C351.782 180.153 391.722 200.716 391.722 200.716C391.722 200.716 367.681 177.597 362.625 172.997C354.034 165.152 345.131 157.627 335.843 150.623Z" fill="#249161"/>
</g>
<mask id="mask2_22_35752" style="mask-type:luminance" maskUnits="userSpaceOnUse" x="-11" y="57" width="122" height="144">
<path d="M-11 200.708L110.806 200.708L110.806 57.6816L-11 57.6816L-11 200.708Z" fill="white"/>
</mask>
<g mask="url(#mask2_22_35752)">
<path d="M-11.585 153.965C-10.8638 147.642 -9.75795 141.095 -6.09575 135.894C-5.00591 134.355 -2.94642 132.849 -1.42385 133.947C-0.876301 134.423 -0.480653 135.05 -0.285919 135.75C3.12786 145.166 0.443315 155.567 -2.25726 165.208C-4.88571 174.583 -13.0756 202.431 -13.0756 202.431C-13.0756 202.431 -13.1637 180.882 -13.0756 176.467C-12.8993 168.95 -12.4505 161.433 -11.585 153.965Z" fill="#34B77B"/>
<path d="M1.0203 156.024C3.36827 150.11 6.14097 144.084 11.0373 139.997C12.4877 138.795 14.8677 137.873 16.0537 139.34C16.4595 139.941 16.6771 140.65 16.6788 141.375C17.5202 151.352 12.2153 160.696 7.06253 169.295C2.0861 177.685 -13.0756 202.431 -13.0756 202.431C-13.0756 202.431 -7.5462 181.595 -6.29609 177.364C-4.1805 170.152 -1.78445 163.012 1.0203 156.024Z" fill="#249161"/>
</g>
</svg>
