<svg width="37" height="38" viewBox="0 0 37 38" fill="none" xmlns="http://www.w3.org/2000/svg">
<path fill-rule="evenodd" clip-rule="evenodd" d="M24.1111 0.566848C21.8062 -0.150683 19.1168 -0.0656091 17.0964 0.164858C9.01964 1.08604 1.2752 7.97099 0.571044 16.3279C-0.692182 28.7526 8.91356 34.5441 8.91356 34.5441L13.4684 31.3802C3.66476 26.2952 5.39505 16.6569 5.44061 16.3236C6.76647 6.64564 14.3638 5.78527 14.3638 5.78527L14.912 7.50656L24.1112 0.566848H24.1111Z" fill="#374982"/>
<path fill-rule="evenodd" clip-rule="evenodd" d="M12.8741 37.1044C23.1395 40.3001 35.526 31.885 36.4142 21.3434C37.6774 8.9186 28.0717 3.12728 28.0717 3.12728L23.5169 6.29113C33.3205 11.376 31.5903 21.0144 31.5446 21.3477C30.2188 31.0257 22.6215 31.886 22.6215 31.886L21.9307 29.4178L12.874 37.1044H12.8741Z" fill="#9DD459"/>
<path d="M22.7231 12.1534L20.1926 15.4373C21.1327 15.7077 21.8796 16.1842 22.4334 16.8667C23 17.5493 23.2833 18.3606 23.2833 19.3007C23.2833 20.6915 22.8133 21.7797 21.8732 22.5652C20.9588 23.3508 19.8192 23.7435 18.4541 23.7435C17.3852 23.7435 16.4387 23.4988 15.6145 23.0095C14.7903 22.5073 14.1915 21.799 13.8181 20.8846L16.0975 19.5711C16.4194 20.6142 17.2049 21.1358 18.4541 21.1358C19.1366 21.1358 19.6646 20.9748 20.0381 20.6528C20.4244 20.318 20.6176 19.8673 20.6176 19.3007C20.6176 18.7469 20.4244 18.3026 20.0381 17.9678C19.6646 17.633 19.1366 17.4656 18.4541 17.4656H17.8746L16.8508 15.9202L19.5165 12.4432H14.2237V9.95132H22.7231V12.1534Z" fill="#3A3A3A"/>
</svg>
