<svg width="144" height="165" viewBox="0 0 144 165" fill="none" xmlns="http://www.w3.org/2000/svg">
<g clip-path="url(#clip0_22_34246)">
<path fill-rule="evenodd" clip-rule="evenodd" d="M87.8432 1.60051C81.3354 -0.425457 73.7416 -0.185249 68.0369 0.465482C45.232 3.06647 23.3654 22.5063 21.3772 46.1023C17.8104 81.1839 44.9325 97.5364 44.9325 97.5364L57.7933 88.6028C30.1124 74.2454 34.9979 47.0313 35.1265 46.0901C38.8702 18.7641 60.3215 16.3349 60.3215 16.3349L61.8694 21.195L87.8434 1.60051H87.8432Z" fill="#374982"/>
<path fill-rule="evenodd" clip-rule="evenodd" d="M56.1155 104.765C85.1003 113.789 120.074 90.0281 122.582 60.2637C126.148 25.1819 99.0264 8.82996 99.0264 8.82996L86.1658 17.7632C113.847 32.1206 108.961 59.3348 108.832 60.2759C105.089 87.602 83.6376 90.0311 83.6376 90.0311L81.6871 83.0621L56.1153 104.765H56.1155Z" fill="#9DD459"/>
<path d="M83.9242 35.3156L76.7792 44.5876C79.4336 45.3512 81.5425 46.6966 83.1061 48.6237C84.706 50.5509 85.5059 52.8416 85.5059 55.496C85.5059 59.423 84.1787 62.4955 81.5244 64.7135C78.9427 66.9315 75.7248 68.0405 71.8705 68.0405C68.8525 68.0405 66.18 67.3497 63.8529 65.9679C61.5258 64.5499 59.835 62.55 58.7805 59.9684L65.2164 56.2595C66.1255 59.2048 68.3435 60.6774 71.8705 60.6774C73.7976 60.6774 75.2884 60.2229 76.3429 59.3139C77.4337 58.3685 77.9792 57.0958 77.9792 55.496C77.9792 53.9324 77.4337 52.678 76.3429 51.7326C75.2884 50.7872 73.7976 50.3145 71.8705 50.3145H70.2343L67.3436 45.9512L74.8703 36.1337H59.9259V29.0978H83.9242V35.3156Z" fill="#3A3A3A"/>
<path d="M24.458 140.296C21.6971 143.03 18.337 144.398 14.3779 144.398C10.4188 144.398 7.0587 143.03 4.29773 140.296C1.56281 137.508 0.195343 134.135 0.195343 130.176C0.195343 126.191 1.56281 122.831 4.29773 120.096C7.0587 117.335 10.4188 115.955 14.3779 115.955C18.337 115.955 21.6971 117.335 24.458 120.096C27.219 122.831 28.5995 126.191 28.5995 130.176C28.5995 134.161 27.219 137.535 24.458 140.296ZM8.08756 136.623C9.75456 138.29 11.8513 139.123 14.3779 139.123C16.9044 139.123 19.0012 138.29 20.6682 136.623C22.3613 134.93 23.2078 132.781 23.2078 130.176C23.2078 127.572 22.3613 125.423 20.6682 123.73C18.9752 122.037 16.8784 121.19 14.3779 121.19C11.8774 121.19 9.78061 122.037 8.08756 123.73C6.39451 125.423 5.54798 127.572 5.54798 130.176C5.54798 132.781 6.39451 134.93 8.08756 136.623Z" fill="#3A3A3A"/>
<path d="M33.2352 116.502H53.3564V121.659H45.9721V143.851H40.5804V121.659H33.2352V116.502ZM71.9163 127.363V116.502H77.269V143.851H71.9163V132.52H61.7581V143.851H56.3663V116.502H61.7581V127.363H71.9163ZM103.174 143.851H97.3527L91.8438 134.357H87.7414V143.851H82.3497V116.502H93.2894C95.8159 116.502 97.9648 117.387 99.736 119.158C101.507 120.929 102.393 123.065 102.393 125.566C102.393 127.259 101.911 128.835 100.947 130.293C99.9834 131.726 98.7071 132.807 97.1183 133.536L103.174 143.851ZM93.2894 121.542H87.7414V129.629H93.2894C94.3052 129.629 95.1778 129.238 95.9071 128.457C96.6364 127.65 97.001 126.686 97.001 125.566C97.001 124.446 96.6364 123.495 95.9071 122.714C95.1778 121.932 94.3052 121.542 93.2894 121.542ZM111.741 132.559V138.693H123.266V143.851H106.349V116.502H123.071V121.659H111.741V127.48H122.094V132.559H111.741ZM132.459 132.559V138.693H143.984V143.851H127.067V116.502H143.789V121.659H132.459V127.48H142.812V132.559H132.459Z" fill="#3A3A3A"/>
</g>
<defs>
<clipPath id="clip0_22_34246">
<rect width="144" height="164.836" fill="white"/>
</clipPath>
</defs>
</svg>
