<svg width="262" height="218" viewBox="0 0 262 218" fill="none" xmlns="http://www.w3.org/2000/svg">
<g clip-path="url(#clip0_45_31273)">
<g style="mix-blend-mode:multiply" opacity="0.3">
<path d="M92.8049 24.0856C86.6083 30.4398 85.6688 40.6515 79.2225 46.7572C67.7572 57.5428 46.783 49.0469 34.4614 58.8622C27.2777 64.5893 25.5412 74.8365 26.4689 83.9595C27.3966 93.0826 30.5127 101.898 30.9468 111.045C31.5415 123.765 26.9982 136.113 25.1666 148.72C23.335 161.328 25.0715 175.924 35.1809 183.775C43.8691 190.543 56.1432 190.283 66.9306 187.97C77.718 185.656 88.3567 181.734 99.4057 182.278C115.141 183.035 128.765 192.685 142.859 199.696C156.952 206.707 175.019 210.878 187.644 201.506C204.098 189.283 201.16 161.938 216.64 148.513C226.155 140.23 240.427 139.42 250.411 131.675C254.113 128.802 257.067 125.088 259.025 120.843C260.984 116.598 261.889 111.947 261.665 107.282C261.442 102.617 260.095 98.0732 257.739 94.0333C255.384 89.9933 252.087 86.5751 248.128 84.066C237.061 77.0374 221.058 77.0965 213.714 66.2695C205.389 54.0167 214.083 36.0959 206.887 23.1508C195.458 2.59136 169.066 14.5425 151.981 18.0213C134.135 21.6422 106.964 9.56679 92.8049 24.0856Z" fill="#718CCD"/>
</g>
<path d="M164.66 133.208C165.421 129.439 169.798 126.274 173.205 128.084C171.796 125.788 170.357 123.416 169.928 120.759C169.5 118.103 170.327 115.056 172.622 113.624C175.31 111.944 179.586 112.595 181.067 109.796C182.547 106.998 179.568 103.602 180.323 100.52C180.829 98.4488 182.845 97.1708 184.308 95.603C187.019 92.7099 187.941 88.5329 187.876 84.5748C187.81 80.6168 186.787 76.7415 186.169 72.8308C185.782 70.3814 185.574 67.8255 186.312 65.459C187.049 63.0924 189.035 60.9625 191.515 60.6963C194.334 60.3945 197.016 62.4712 199.841 62.1399C202.665 61.8085 204.657 59.0752 205.597 56.3714C206.537 53.6676 206.828 50.7331 208.19 48.2186C209.552 45.7041 212.543 43.6689 215.225 44.6688C217.71 45.6154 218.733 48.6091 220.922 50.1118C223.479 51.8868 227.065 51.1472 229.681 49.4847C232.298 47.8222 234.284 45.3432 236.645 43.3494C239.006 41.3556 242.074 39.7404 245.119 40.3379C249.591 41.2195 251.91 46.6034 251.095 51.0644C250.281 55.5253 247.218 59.2172 244.358 62.767C241.497 66.3168 238.572 70.1033 238.001 74.5998C237.537 78.3094 238.595 82.581 236.217 85.4564C232.785 89.5446 225.471 87.1307 221.35 90.5326C215.587 95.3012 220.898 106.69 214.862 111.11C212.037 113.181 207.904 112.559 204.978 114.5C198.978 118.488 202.743 128.995 197.694 134.125C193.983 137.893 187.156 136.964 183.469 140.763C181.685 142.609 180.983 145.236 180.424 147.75C179.277 152.897 176.262 159.908 172.23 152.749C169.191 147.371 163.363 139.68 164.66 133.208Z" fill="#9DD459"/>
<path d="M173.05 143.615C172.949 143.608 172.852 143.577 172.765 143.526C172.347 143.265 171.994 142.912 171.734 142.495C171.475 142.078 171.315 141.606 171.266 141.118C171.188 140.42 171.263 139.713 171.485 139.047C171.706 138.38 172.07 137.769 172.551 137.254C173.954 135.793 175.893 135.213 177.772 134.657L178.272 134.503C180.056 133.959 182.012 133.19 182.898 131.592C183.963 129.675 183.154 127.451 182.303 125.126C181.655 123.351 180.983 121.517 181.049 119.641C181.174 116.162 183.784 113.039 188.821 110.358L189.767 109.856C193.002 108.158 196.344 106.394 197.741 103.259C198.895 100.667 198.574 97.3424 196.802 93.2956C196.409 92.4022 195.963 91.5207 195.535 90.6214C194.375 88.2548 193.156 85.7995 192.71 83.1312C192.062 79.4216 193.305 74.8009 196.938 73.1384C199.828 71.8191 202.951 72.7539 205.966 73.6591C206.435 73.8011 206.905 73.9431 207.369 74.0732C210.64 74.9903 214.505 74.7773 215.831 72.2273C216.592 70.7541 216.289 68.9792 215.962 67.0978C215.599 64.9916 215.231 62.8143 216.402 60.9388C217.455 59.2645 219.637 58.2705 222.248 58.2824C223.342 58.3093 224.433 58.4121 225.512 58.59C226.434 58.7374 227.363 58.8342 228.296 58.8799C230.847 58.9071 233.348 58.1671 235.47 56.7567C237.592 55.3464 239.237 53.3314 240.189 50.9756C240.217 50.8963 240.261 50.8233 240.319 50.7611C240.376 50.6989 240.445 50.6487 240.522 50.6134C240.598 50.578 240.682 50.5583 240.766 50.5554C240.851 50.5525 240.935 50.5664 241.014 50.5963C241.094 50.6262 241.166 50.6716 241.227 50.7297C241.289 50.7878 241.338 50.8575 241.372 50.9347C241.405 51.0119 241.423 51.0951 241.425 51.1793C241.426 51.2635 241.41 51.3472 241.378 51.4253C240.328 54.0318 238.509 56.261 236.162 57.8197C233.814 59.3784 231.047 60.1935 228.224 60.1579C227.246 60.1102 226.271 60.0075 225.304 59.8502C224.281 59.6833 223.248 59.5845 222.212 59.5544C220.047 59.5544 218.275 60.3176 217.455 61.6133C216.539 63.0747 216.86 64.9265 217.193 66.8848C217.526 68.8431 217.889 70.9553 216.937 72.8012C215.153 76.209 210.479 76.2741 206.988 75.292C206.513 75.1618 206.037 75.0199 205.555 74.8719C202.772 74.0377 199.888 73.1739 197.438 74.2803C194.393 75.6707 193.37 79.6701 193.935 82.8946C194.369 85.3854 195.529 87.7579 196.653 90.0416C197.087 90.929 197.533 91.8461 197.943 92.769C199.864 97.1294 200.179 100.827 198.877 103.756C197.301 107.306 193.757 109.163 190.332 110.968L189.392 111.459C184.789 113.914 182.399 116.677 182.292 119.671C182.232 121.298 182.886 123.014 183.481 124.67C184.397 127.179 185.348 129.77 183.998 132.196C182.892 134.184 180.662 135.089 178.646 135.704L178.141 135.858C176.422 136.373 174.65 136.899 173.478 138.118C173.132 138.495 172.869 138.941 172.708 139.427C172.547 139.912 172.491 140.426 172.545 140.934C172.573 141.233 172.668 141.522 172.824 141.779C172.979 142.036 173.191 142.255 173.443 142.419C173.572 142.49 173.672 142.603 173.727 142.74C173.781 142.876 173.787 143.027 173.742 143.167C173.697 143.307 173.604 143.426 173.481 143.506C173.357 143.585 173.209 143.62 173.062 143.603L173.05 143.615Z" fill="#374982"/>
<path d="M89.2959 123.386C87.1848 120.156 88.1066 114.831 91.8292 113.79C89.2127 113.116 86.5128 112.411 84.3482 110.802C82.1836 109.193 80.6434 106.43 81.2916 103.815C82.0468 100.744 85.5673 98.2476 84.6753 95.2125C83.7833 92.1774 79.2697 91.8047 77.6522 89.0713C76.5639 87.2313 77.117 84.9298 77.0575 82.7822C76.9743 78.8241 74.7145 75.1855 71.8779 72.4107C69.0413 69.636 65.616 67.5415 62.4345 65.1632C60.4423 63.6722 58.4859 61.9979 57.3798 59.7733C56.2737 57.5488 56.1904 54.6616 57.7841 52.7506C59.5682 50.5793 62.9756 50.2243 64.7597 48.0175C66.5437 45.8106 66.0739 42.4856 64.8548 39.8942C63.6357 37.3029 61.7922 34.9955 61.0073 32.2443C60.2223 29.4932 60.9537 25.967 63.5941 24.837C66.0382 23.7957 68.8689 25.2393 71.4854 24.8015C74.548 24.2868 76.6294 21.2872 77.337 18.2935C78.0447 15.2998 77.7533 12.1404 78.0447 9.06391C78.3361 5.98738 79.4184 2.71562 82.0231 1.03536C85.8468 -1.42586 91.2821 0.828287 93.8155 4.5852C96.3488 8.34211 96.7888 13.093 97.1813 17.6013C97.5738 22.1096 98.1566 26.8723 100.898 30.499C103.158 33.4868 106.916 35.8238 107.196 39.5452C107.594 44.8699 100.654 48.189 100.06 53.4783C99.2627 60.8915 111.043 65.388 109.8 72.7421C109.206 76.1854 105.822 78.6052 105.079 82.019C103.562 89.0417 113.612 93.976 113.576 101.153C113.576 106.43 108.004 110.495 108.01 115.772C108.01 118.346 109.36 120.706 110.716 122.872C113.499 127.368 116.223 134.497 108.337 132.137C102.42 130.391 92.864 128.918 89.2959 123.386Z" fill="#374982"/>
<path d="M102.587 125.043C102.51 125.109 102.419 125.156 102.32 125.179C101.837 125.281 101.338 125.272 100.859 125.152C100.381 125.032 99.9368 124.804 99.5606 124.487C99.0166 124.041 98.5757 123.483 98.2679 122.852C97.96 122.221 97.7924 121.532 97.7766 120.831C97.7766 118.813 98.7518 117.05 99.7093 115.352L99.965 114.896C100.869 113.263 101.749 111.347 101.249 109.601C100.655 107.489 98.5437 106.465 96.2839 105.377C94.5772 104.554 92.811 103.703 91.5265 102.312C89.1478 99.7326 88.8683 95.674 90.6048 90.2605L90.9319 89.2488C92.0677 85.7877 93.2392 82.2083 92.0439 78.9898C91.0567 76.3333 88.4759 74.1442 84.3964 72.4817C83.4865 72.109 82.5351 71.7658 81.6193 71.4345C79.1276 70.5411 76.5526 69.6123 74.3464 68.0208C71.2898 65.808 68.9468 61.6251 70.3918 57.9215C71.5455 54.9633 74.4356 53.4783 77.2365 52.0406C77.6706 51.8158 78.1107 51.5909 78.5329 51.3602C81.5063 49.7569 84.1585 46.9111 83.32 44.1718C82.8324 42.5921 81.3695 41.5271 79.8234 40.403C78.0869 39.1428 76.2969 37.8353 75.8271 35.6699C75.4109 33.7412 76.285 31.5284 78.1642 29.718C78.9687 28.976 79.8252 28.2919 80.7273 27.671C81.4898 27.139 82.2242 26.5683 82.9276 25.9611C84.7845 24.2126 86.0666 21.9463 86.6058 19.4598C87.1449 16.9733 86.9158 14.3827 85.9485 12.028C85.9142 11.9512 85.8955 11.8683 85.8937 11.7843C85.8919 11.7002 85.9069 11.6167 85.9379 11.5385C85.9689 11.4603 86.0153 11.389 86.0743 11.3288C86.1333 11.2686 86.2037 11.2207 86.2815 11.1879C86.4378 11.1221 86.6139 11.12 86.7718 11.1819C86.9297 11.2439 87.0568 11.365 87.126 11.5192C88.1936 14.1189 88.4463 16.979 87.8509 19.7242C87.2556 22.4694 85.84 24.9714 83.7898 26.9018C83.0531 27.5339 82.2828 28.1264 81.4825 28.6767C80.6273 29.2622 79.8146 29.9067 79.0503 30.6055C77.4922 32.0964 76.7548 33.8773 77.0819 35.3741C77.4447 37.0603 78.967 38.1666 80.5786 39.3381C82.1902 40.5095 83.9444 41.8171 84.5391 43.8345C85.669 47.4968 82.3388 50.8041 79.1395 52.5198C78.7113 52.7505 78.2713 52.9754 77.8253 53.2061C75.2384 54.5373 72.5624 55.9099 71.5871 58.4125C70.3978 61.5246 72.4375 65.0981 75.1016 67.0209C77.1592 68.5118 79.645 69.3875 82.0534 70.2749C82.987 70.6121 83.9504 70.9553 84.884 71.3339C89.3144 73.1089 92.1272 75.5701 93.2452 78.5756C94.5891 82.2142 93.3522 86.0066 92.151 89.6748L91.8239 90.6805C90.2361 95.6267 90.4561 99.2652 92.4721 101.49C93.5722 102.673 95.2195 103.49 96.8191 104.259C99.2335 105.442 101.731 106.625 102.457 109.299C103.051 111.494 102.088 113.689 101.059 115.541L100.803 116.003C99.9293 117.559 99.0194 119.168 99.0194 120.854C99.0342 121.364 99.158 121.866 99.3825 122.325C99.6071 122.784 99.9272 123.19 100.322 123.517C100.55 123.713 100.82 123.856 101.111 123.934C101.403 124.012 101.708 124.023 102.005 123.966C102.145 123.932 102.293 123.946 102.424 124.006C102.556 124.067 102.662 124.17 102.727 124.299C102.791 124.428 102.809 124.575 102.779 124.715C102.748 124.856 102.67 124.982 102.558 125.073L102.587 125.043Z" fill="#374982"/>
<path d="M67.8883 148.945C67.818 148.944 67.748 148.934 67.6802 148.916C60.0378 146.833 53.0083 142.958 47.1801 137.617C41.352 132.275 36.895 125.623 34.1822 118.215C33.3734 115.955 32.7193 113.607 32.0949 111.335C31.0185 107.465 29.9124 103.466 27.9976 99.916C26.3581 97.0995 24.4716 94.4326 22.3601 91.9467C21.0696 90.3374 19.7376 88.6749 18.5423 86.9473C15.8305 83.0247 12.9048 77.1024 14.3795 71.1919C14.4045 71.0906 14.4494 70.995 14.5114 70.9109C14.5735 70.8267 14.6517 70.7556 14.7414 70.7014C14.8311 70.6473 14.9307 70.6113 15.0344 70.5955C15.1381 70.5797 15.244 70.5843 15.3459 70.6092C15.4478 70.634 15.5438 70.6786 15.6284 70.7404C15.713 70.8022 15.7845 70.8799 15.8389 70.9692C15.8933 71.0585 15.9295 71.1575 15.9454 71.2607C15.9613 71.3639 15.9566 71.4692 15.9316 71.5706C14.6174 76.8954 17.3529 82.3858 19.8803 86.0421C21.0696 87.7283 22.3601 89.3671 23.6267 90.9527C25.8039 93.5108 27.7445 96.2593 29.4248 99.1647C31.4229 102.868 32.5587 106.957 33.6529 110.915C34.2476 113.157 34.9196 115.476 35.7105 117.683C38.3361 124.846 42.6481 131.28 48.2858 136.445C53.9234 141.61 60.7226 145.357 68.1143 147.371C68.3005 147.423 68.4616 147.54 68.568 147.701C68.6745 147.861 68.7192 148.055 68.6939 148.245C68.6686 148.436 68.575 148.611 68.4303 148.739C68.2856 148.866 68.0995 148.937 67.9062 148.939L67.8883 148.945Z" fill="#9DD459"/>
<path d="M48.1212 100.336C49.2694 98.6449 50.7729 97.2218 52.5277 96.165C53.409 95.6436 54.3996 95.3322 55.422 95.2552C56.4444 95.1782 57.4708 95.3377 58.4209 95.7213C61.5132 97.1531 62.4112 101.324 61.3943 104.56C59.8482 109.43 55.287 112.613 52.0639 116.588C47.0091 122.83 48.3769 128.977 46.1825 135.781C38.8026 126.12 41.3241 109.542 48.1212 100.336Z" fill="#9DD459"/>
<path d="M25.9278 110.69C22.4843 107.566 18.2287 105.466 13.6451 104.63C9.06154 103.793 4.33392 104.253 0 105.957C0.528654 108.696 1.7043 111.271 3.42998 113.469C5.15565 115.667 7.38191 117.426 9.92511 118.6C13.4575 120.192 17.4002 120.558 21.2656 120.907C26.0646 121.345 31.5713 122.523 36.3227 122.037C34.1343 118.381 29.2342 113.766 25.9278 110.69Z" fill="#9DD459"/>
<path d="M26.4395 84.5334C26.7546 81.7586 27.379 78.9365 28.9371 76.6114C30.4951 74.2862 33.0998 72.529 35.9364 72.6415C38.773 72.7539 41.455 75.1382 41.342 77.9307C41.2231 80.9777 38.2854 82.9892 35.9899 85.0304C34.242 86.5929 32.7476 88.415 31.5596 90.4321C30.9127 91.5327 30.3578 92.6844 29.9005 93.8754C29.5972 94.6564 29.3771 96.9993 28.83 97.5376C26.8617 99.4901 26.5762 95.0646 26.4157 93.5914C26.0897 90.5803 26.0977 87.5427 26.4395 84.5334Z" fill="#9DD459"/>
<path d="M16.8529 85.1073C15.277 82.7408 14.4742 79.9601 13.2135 77.416C11.0668 73.0793 7.34409 69.3283 2.65211 68.0563C-0.321258 73.7833 1.75416 81.6107 7.20137 85.1073C9.53844 86.6042 12.268 87.326 14.9321 88.0241C15.7647 88.243 20.5518 90.0179 20.5459 88.7282C20.5637 88.2075 17.3703 85.8764 16.8529 85.1073Z" fill="#9DD459"/>
<path d="M12.5177 56.9512C13.6059 51.7034 16.3355 46.9644 19.0234 42.3259C21.4195 44.225 23.1154 46.8605 23.8459 49.8204C24.5765 52.7802 24.3006 55.8975 23.0613 58.6847C21.9433 61.0513 20.1711 63.0096 18.6904 65.1928C17.8995 66.3346 16.9956 70.411 16.2166 71.0086C14.9142 72.0144 13.8795 69.2751 13.38 68.1214C11.9665 64.5698 11.6659 60.6759 12.5177 56.9512Z" fill="#9DD459"/>
<path d="M172.034 149.862C172.075 149.887 172.119 149.906 172.164 149.921C177.382 151.555 182.916 151.921 188.305 150.988C193.693 150.056 198.779 147.852 203.135 144.561C204.455 143.549 205.71 142.431 206.929 141.349C209.004 139.503 211.151 137.592 213.595 136.243C215.605 135.218 217.703 134.373 219.863 133.716C221.213 133.261 222.611 132.793 223.955 132.231C226.999 130.965 230.924 128.622 232.28 124.647C232.314 124.513 232.297 124.372 232.231 124.25C232.166 124.129 232.057 124.036 231.926 123.991C231.795 123.945 231.652 123.95 231.525 124.005C231.398 124.06 231.296 124.16 231.239 124.286C229.99 127.877 226.345 130.036 223.509 131.22C222.2 131.764 220.827 132.225 219.489 132.675C217.266 133.352 215.109 134.225 213.042 135.284C210.491 136.692 208.285 138.639 206.174 140.526C204.984 141.597 203.73 142.703 202.439 143.691C198.226 146.873 193.307 149.004 188.096 149.906C182.884 150.808 177.531 150.454 172.486 148.874C172.416 148.851 172.343 148.842 172.271 148.848C172.198 148.853 172.127 148.873 172.063 148.906C171.998 148.939 171.94 148.985 171.893 149.04C171.847 149.096 171.811 149.16 171.79 149.229C171.753 149.347 171.758 149.473 171.802 149.587C171.846 149.702 171.928 149.799 172.034 149.862Z" fill="#374982"/>
<path d="M201.773 129.031C201.743 127.62 201.404 126.233 200.78 124.966C200.463 124.337 200.005 123.789 199.441 123.366C198.877 122.942 198.222 122.653 197.527 122.523C195.196 122.203 193.109 124.298 192.49 126.552C191.562 129.954 193.013 133.498 193.388 137C193.983 142.502 190.873 145.561 189.594 150.324C197.491 147.442 202.284 136.882 201.773 129.031Z" fill="#374982"/>
<path d="M210.765 143.271C213.936 142.737 217.194 143.099 220.168 144.317C223.142 145.534 225.713 147.558 227.588 150.158C226.252 151.549 224.602 152.605 222.775 153.237C220.948 153.87 218.996 154.062 217.08 153.797C214.434 153.412 212.008 152.158 209.635 150.927C206.661 149.389 203.046 148.028 200.471 145.981C203.117 144.668 207.696 143.822 210.765 143.271Z" fill="#374982"/>
<path d="M220.291 127.907C221.229 126.21 221.751 124.316 221.813 122.381C221.813 120.452 220.915 118.452 219.244 117.47C217.573 116.488 215.082 116.878 214.118 118.529C213.048 120.339 213.993 122.605 214.558 124.629C214.984 126.185 215.167 127.798 215.1 129.409C215.062 130.288 214.953 131.163 214.772 132.024C214.654 132.616 213.898 134.036 214.011 134.545C214.422 136.414 216.247 133.953 216.895 133.154C218.216 131.533 219.355 129.774 220.291 127.907Z" fill="#374982"/>
<path d="M225.631 131.8C227.415 131.013 228.949 129.699 230.638 128.688C233.511 126.972 237.085 126.179 240.278 127.185C240.001 129.401 238.938 131.445 237.279 132.95C235.621 134.455 233.476 135.32 231.233 135.391C229.319 135.291 227.432 134.892 225.643 134.207C225.048 134.024 221.629 133.273 222.123 132.527C222.331 132.202 225.048 132.054 225.631 131.8Z" fill="#374982"/>
<path d="M238.726 117.074C240.064 113.63 240.266 109.861 240.444 106.17C238.341 106.382 236.368 107.282 234.832 108.728C233.297 110.174 232.287 112.085 231.958 114.163C231.72 115.938 232.012 117.748 232.065 119.547C232.065 120.505 231.084 123.203 231.31 123.842C231.691 124.907 233.32 123.706 234.04 123.221C236.19 121.69 237.824 119.547 238.726 117.074Z" fill="#374982"/>
<path d="M220.904 197.395C220.904 197.726 220.904 198.063 220.904 198.394C220.904 198.726 220.904 199.033 220.862 199.347C220.811 200.075 220.677 200.796 220.464 201.495C220.279 202.162 219.948 202.78 219.494 203.304C219.041 203.829 218.476 204.248 217.841 204.53C217.22 204.733 216.561 204.796 215.912 204.716C215.263 204.635 214.641 204.412 214.089 204.062C211.924 202.784 210.105 199.477 209.409 197.069C209.326 196.779 209.248 196.478 209.183 196.199C209.117 195.921 209.028 195.608 208.957 195.33C208.838 194.851 208.731 194.365 208.642 193.886C208.576 193.62 208.535 193.354 208.493 193.093C208.451 192.833 208.41 192.65 208.374 192.425C208.332 192.169 208.32 191.909 208.338 191.65C208.347 191.483 208.365 191.317 208.392 191.153C208.496 190.564 208.697 189.996 208.987 189.473C209.581 188.402 210.842 187.508 211.776 186.763C213.03 185.763 213.994 184.396 215.243 183.385C216.164 182.639 217.383 181.864 218.454 182.385C219.423 182.852 219.643 184.118 219.726 185.183C219.768 185.739 219.828 186.313 219.887 186.899L219.994 187.763C220.214 189.668 220.505 191.668 220.702 193.602L220.791 194.501C220.844 195.501 220.904 196.478 220.904 197.395Z" fill="#9DD459"/>
<path d="M219.964 187.763C216.131 188.696 212.417 190.058 208.891 191.821C208.832 191.849 208.766 191.863 208.701 191.863C208.626 191.862 208.553 191.843 208.488 191.805C208.423 191.768 208.369 191.714 208.332 191.65C208.295 191.572 208.282 191.485 208.295 191.399C208.308 191.314 208.345 191.235 208.403 191.171C208.44 191.136 208.48 191.104 208.522 191.076C212.14 189.28 215.948 187.891 219.875 186.934L219.964 187.763Z" fill="#581C09"/>
<path d="M220.761 194.501C216.829 193.546 212.75 193.345 208.742 193.91H208.635C208.547 193.897 208.465 193.857 208.4 193.796C208.336 193.734 208.292 193.654 208.276 193.566C208.259 193.479 208.271 193.389 208.309 193.308C208.347 193.227 208.409 193.161 208.487 193.117C208.527 193.087 208.574 193.069 208.623 193.064C212.64 192.51 216.725 192.701 220.672 193.626L220.761 194.501Z" fill="#581C09"/>
<path d="M220.898 198.394C220.898 198.708 220.898 199.033 220.856 199.347C217.203 197.559 213.237 196.49 209.177 196.199C209.046 196.199 208.909 196.199 208.778 196.164C208.721 196.161 208.665 196.146 208.613 196.122C208.561 196.097 208.515 196.062 208.476 196.02C208.438 195.977 208.408 195.928 208.389 195.874C208.37 195.82 208.362 195.763 208.365 195.705C208.368 195.648 208.383 195.592 208.408 195.541C208.432 195.489 208.467 195.443 208.51 195.405C208.553 195.367 208.603 195.337 208.657 195.318C208.711 195.299 208.769 195.291 208.826 195.294H208.945C213.093 195.552 217.152 196.604 220.898 198.394Z" fill="#581C09"/>
<path d="M192.734 171.274L200.501 172.386C202.005 172.599 203.575 172.842 204.8 173.741C206.65 175.096 207.221 177.805 206.352 179.923C205.874 180.969 205.149 181.883 204.239 182.59C203.328 183.296 202.26 183.774 201.125 183.982C198.837 184.365 196.487 184.008 194.417 182.965C192.366 181.919 190.485 180.571 188.839 178.965C187.454 177.687 184.022 174.534 184.968 172.315C185.913 170.096 190.938 171.037 192.734 171.274Z" fill="#9DD459"/>
<path d="M202.915 176.362H202.826C198.568 174.474 193.62 174.398 189.261 174.332C189.204 174.332 189.15 174.31 189.11 174.27C189.07 174.23 189.047 174.176 189.047 174.119C189.049 174.063 189.072 174.01 189.111 173.971C189.151 173.931 189.205 173.908 189.261 173.906C193.662 173.972 198.651 174.048 202.998 175.971C203.044 175.991 203.081 176.026 203.103 176.07C203.126 176.113 203.132 176.164 203.122 176.212C203.111 176.26 203.084 176.303 203.046 176.334C203.007 176.364 202.958 176.38 202.909 176.38L202.915 176.362Z" fill="#581C09"/>
<path d="M190.754 179.657C190.703 179.658 190.654 179.64 190.616 179.607C190.578 179.575 190.553 179.529 190.546 179.48C190.54 179.452 190.541 179.424 190.547 179.396C190.553 179.369 190.564 179.343 190.58 179.32C190.596 179.297 190.616 179.277 190.64 179.262C190.664 179.247 190.69 179.236 190.718 179.231L197.123 178.095C199.091 177.746 201.149 177.504 202.713 178.604C202.759 178.637 202.791 178.687 202.8 178.743C202.81 178.799 202.796 178.857 202.763 178.903C202.73 178.949 202.68 178.98 202.623 178.99C202.567 178.999 202.509 178.986 202.463 178.953C201.036 177.941 199.079 178.184 197.194 178.515L190.795 179.651L190.754 179.657Z" fill="#581C09"/>
<path d="M191.289 216.771C193.365 217.244 195.512 217.322 197.616 217.002C199.299 216.824 201.066 216.528 202.374 215.469C203.011 214.957 203.507 214.292 203.815 213.537C204.123 212.782 204.233 211.961 204.135 211.152C204.037 210.343 203.734 209.572 203.254 208.911C202.774 208.251 202.134 207.722 201.393 207.376C199.805 206.729 198.026 206.729 196.439 207.376C194.872 208.024 193.397 208.873 192.05 209.902L189.243 211.86C188.649 212.28 187.406 212.884 187.275 213.7C187.013 215.292 190.177 216.404 191.289 216.771Z" fill="#9DD459"/>
<path d="M201.624 212.156C198.871 212.111 196.197 211.232 193.959 209.636C193.919 209.6 193.895 209.552 193.889 209.5C193.883 209.447 193.897 209.395 193.928 209.352C193.959 209.309 194.005 209.28 194.057 209.269C194.109 209.258 194.163 209.266 194.209 209.292C196.378 210.837 198.969 211.687 201.636 211.73C201.693 211.73 201.747 211.752 201.787 211.792C201.828 211.832 201.85 211.887 201.85 211.943C201.85 212 201.828 212.054 201.787 212.094C201.747 212.134 201.693 212.156 201.636 212.156H201.624Z" fill="#581C09"/>
<path d="M198.716 215.102H198.657C195.615 214.214 192.686 212.981 189.927 211.428C189.879 211.4 189.843 211.354 189.827 211.3C189.812 211.246 189.818 211.188 189.844 211.138C189.872 211.09 189.919 211.055 189.974 211.04C190.028 211.026 190.086 211.033 190.135 211.061C192.869 212.591 195.768 213.809 198.776 214.694C198.828 214.706 198.873 214.737 198.904 214.781C198.934 214.825 198.946 214.878 198.939 214.931C198.931 214.984 198.904 215.032 198.863 215.066C198.822 215.099 198.77 215.117 198.716 215.114V215.102Z" fill="#581C09"/>
<path d="M136.703 31.4102C136.574 31.9227 136.512 32.4497 136.519 32.978C137.928 33.1791 139.492 33.3389 141.039 33.4454C141.916 31.8543 142.555 30.1441 142.936 28.3691C143.102 27.8668 143.085 27.3221 142.888 26.8309C142.772 26.6359 142.612 26.47 142.421 26.3459C142.231 26.2219 142.014 26.1428 141.788 26.115C141.332 26.0606 140.87 26.128 140.45 26.3102C139.419 26.7251 138.544 27.4488 137.946 28.381C137.35 29.3071 136.929 30.3337 136.703 31.4102Z" fill="#E9ECF5"/>
<path d="M137.638 21.7783C137.792 20.9736 137.792 20.0033 137.162 19.5004C136.907 19.3124 136.603 19.2022 136.286 19.1833C135.969 19.1644 135.654 19.2376 135.378 19.3939C134.834 19.7018 134.397 20.1658 134.123 20.7251C133.395 22.0588 133.21 23.6198 133.606 25.0855C133.897 26.1445 135.069 27.032 135.872 25.9138C136.75 24.6767 137.353 23.2665 137.638 21.7783Z" fill="#E9ECF5"/>
<path d="M140.73 23.1804C140.443 22.9036 140.217 22.57 140.068 22.2011C139.918 21.8322 139.848 21.4362 139.862 21.0387C139.82 20.4623 139.97 19.8882 140.29 19.4058C140.563 19.0656 140.94 18.8236 141.364 18.7168C141.788 18.6099 142.236 18.6441 142.639 18.8141C143.036 18.9994 143.374 19.2903 143.615 19.6547C143.857 20.0191 143.992 20.4428 144.007 20.879C144.06 22.435 142.288 24.5057 140.73 23.1804Z" fill="#E9ECF5"/>
<path d="M152.022 17.5066C150.999 17.6553 150.049 18.1235 149.31 18.8437C148.915 19.1353 148.582 19.5028 148.332 19.9245C148.082 20.3462 147.919 20.8136 147.854 21.299C147.852 21.9874 148.092 22.6549 148.531 23.1863C148.97 23.7101 149.467 24.1825 150.012 24.5944C150.472 25.0301 151.028 25.3523 151.636 25.5351C152.183 25.6291 152.746 25.5527 153.247 25.3162C153.827 25.0556 154.337 24.6627 154.736 24.1693C155.135 23.6759 155.411 23.0959 155.543 22.4764C155.81 21.1452 155.293 20.1986 154.651 19.0981C154.008 17.9977 153.319 17.3942 152.022 17.5066Z" fill="#E9ECF5"/>
<path d="M79.5851 92.42L110.996 180.054C111.967 182.767 111.815 185.754 110.574 188.356C109.333 190.959 107.104 192.965 104.377 193.934L81.6783 201.986C79.0161 202.923 76.0922 202.798 73.5208 201.636C70.9493 200.475 68.9303 198.367 67.8878 195.756C67.8343 195.637 67.7927 195.525 67.751 195.407L36.3166 107.773C34.6753 103.188 43.8451 92.562 43.8451 92.562L39.504 80.4452L59.7229 73.2627L64.0641 85.3795C64.0641 85.3795 77.9378 87.8348 79.5851 92.42Z" fill="#E9ECF5"/>
<g style="mix-blend-mode:multiply" opacity="0.5">
<path d="M79.585 92.42L110.996 180.054C111.966 182.768 111.815 185.754 110.574 188.356C109.333 190.959 107.104 192.965 104.377 193.934L81.6782 201.986C79.016 202.923 76.0921 202.798 73.5207 201.636C70.9492 200.475 68.9302 198.367 67.8877 195.756C94.1961 182.769 84.3364 117.914 77.0814 102.448C73.2814 94.3665 62.6011 92.6448 62.6011 92.6448L58.9914 82.587L41.4366 85.841L39.5039 80.4511L59.7228 73.2686L64.064 85.3854C64.064 85.3854 77.9377 87.8348 79.585 92.42Z" fill="#718CCD"/>
</g>
<path d="M55.5364 61.7553L35.4304 68.8846C35.0276 69.0276 34.6571 69.2482 34.3401 69.5338C34.0231 69.8195 33.7658 70.1645 33.5829 70.5492C33.4001 70.9338 33.2953 71.3506 33.2746 71.7756C33.2538 72.2006 33.3175 72.6255 33.462 73.026L37.4404 84.137L63.6774 74.8305L59.6931 63.7196C59.5506 63.3185 59.3299 62.9494 59.0436 62.6334C58.7573 62.3174 58.4111 62.0608 58.0249 61.8783C57.6387 61.6958 57.22 61.591 56.793 61.5699C56.3659 61.5488 55.9389 61.6118 55.5364 61.7553Z" fill="#463F69"/>
<path d="M38.7769 70.651L37.5447 71.0883L40.845 80.2941L42.0773 79.8569L38.7769 70.651Z" fill="#E9ECF5"/>
<path d="M43.8958 68.8322L42.6636 69.2695L45.9639 78.4753L47.1961 78.0381L43.8958 68.8322Z" fill="#E9ECF5"/>
<path d="M49.015 67.0135L47.7827 67.4508L51.083 76.6566L52.3153 76.2194L49.015 67.0135Z" fill="#E9ECF5"/>
<path d="M54.1397 65.2007L52.9075 65.6379L56.2078 74.8438L57.44 74.4065L54.1397 65.2007Z" fill="#E9ECF5"/>
<path d="M82.955 118.886L45.125 132.31L55.8031 162.095L93.6331 148.671L82.955 118.886Z" fill="#463F69"/>
<path d="M75.6637 96.2219L41.7712 108.249L42.0769 109.101L75.9693 97.0745L75.6637 96.2219Z" fill="#5153A0"/>
<path d="M77.6541 101.767L43.7617 113.794L44.0674 114.647L77.9598 102.62L77.6541 101.767Z" fill="#5153A0"/>
<path d="M81.6322 112.862L47.7397 124.889L48.0454 125.742L81.9378 113.715L81.6322 112.862Z" fill="#5153A0"/>
<path d="M96.139 153.314L62.2466 165.341L62.5522 166.193L96.4447 154.166L96.139 153.314Z" fill="#5153A0"/>
<path d="M98.7647 160.647L64.8723 172.674L65.178 173.527L99.0704 161.5L98.7647 160.647Z" fill="#5153A0"/>
<path d="M101.367 168.003L67.4729 180.024L67.7784 180.877L101.673 168.856L101.367 168.003Z" fill="#5153A0"/>
<path d="M104.016 175.31L70.124 187.337L70.4297 188.19L104.322 176.163L104.016 175.31Z" fill="#5153A0"/>
<path d="M168.757 50.81C168.757 50.81 160.717 61.8855 160.318 67.5001C159.92 73.1148 160.181 85.3913 160.181 85.3913L181.376 90.1895L133.207 94.4966L101.303 73.1976L151.951 82.1728C151.951 82.1728 153.265 57.7499 160.955 50.2834C160.949 50.3426 166.414 48.3014 168.757 50.81Z" fill="#B6BFD2"/>
<path d="M114.814 83.9714C114.814 83.9714 126.113 54.2356 122.652 47.2069C119.191 40.1782 114.035 41.0893 111.151 46.5206C108.266 51.9518 101.636 75.4044 101.636 75.4044L96.9617 68.5296C96.9617 68.5296 104.009 35.7587 116.586 35.5694C129.163 35.38 130.543 44.3611 132.125 51.378C133.707 58.3948 139.124 92.6271 139.124 92.6271C139.124 92.6271 116.788 93.7985 114.814 83.9714Z" fill="#E9ECF5"/>
<path d="M169.738 86.6515C169.738 86.6515 175.007 74.3099 172.788 64.7608C170.57 55.2118 165.414 47.8459 160.948 50.3426C160.948 50.3426 166.146 42.6868 174.031 47.0945C181.917 51.5022 184.819 77.9307 184.819 77.9307L178.872 96.0053L169.738 86.6515Z" fill="#E9ECF5"/>
<path d="M192.336 147.454C188.173 157.654 154.318 189.076 120.517 175.462C118.101 174.49 115.767 173.329 113.535 171.99C77.5693 150.472 91.7107 85.9534 96.9676 68.5296C96.9676 68.5296 119.304 90.2901 145.671 90.5681C172.039 90.8462 184.843 77.9011 184.843 77.9011C184.843 77.9011 187.953 93.1832 190.397 109.595C192.77 125.339 194.506 142.112 192.336 147.454Z" fill="#E9ECF5"/>
<g style="mix-blend-mode:multiply" opacity="0.5">
<path d="M170.678 107.678C170.678 107.678 160.205 141.177 132.428 145.898C132.428 145.898 165.415 118.002 170.678 107.678Z" fill="#B6BFD2"/>
</g>
<path d="M169.993 134.947C169.993 134.947 159.658 142.638 152.421 141.958C152.421 141.928 161.252 147.537 169.993 134.947Z" fill="#B6BFD2"/>
<path d="M119.625 158.613C119.416 158.554 119.226 158.444 119.071 158.293C94.1606 134.302 105.442 86.823 105.935 84.8115C105.975 84.6455 106.047 84.489 106.148 84.351C106.249 84.2131 106.377 84.0964 106.523 84.0078C106.67 83.9192 106.833 83.8605 107.002 83.8349C107.172 83.8093 107.345 83.8175 107.511 83.8589C107.68 83.8947 107.84 83.9644 107.981 84.0639C108.121 84.1633 108.24 84.2904 108.33 84.4372C108.42 84.584 108.478 84.7476 108.502 84.9178C108.526 85.0879 108.514 85.2612 108.468 85.4268C108.35 85.906 97.0626 133.474 120.885 156.423C121.094 156.625 121.23 156.89 121.271 157.176C121.311 157.463 121.255 157.755 121.11 158.006C120.966 158.257 120.741 158.453 120.472 158.563C120.203 158.673 119.905 158.69 119.625 158.613Z" fill="#B6BFD2"/>
<path d="M126.356 172.871C126.176 172.82 126.009 172.731 125.865 172.611C125.722 172.49 125.605 172.341 125.524 172.173L118.798 157.926C118.693 157.707 118.652 157.462 118.679 157.22C118.707 156.978 118.803 156.749 118.956 156.559C119.108 156.369 119.312 156.225 119.543 156.145C119.773 156.064 120.022 156.05 120.261 156.104L137.025 159.796C137.358 159.878 137.646 160.083 137.831 160.371C138.016 160.658 138.083 161.005 138.018 161.34C137.981 161.507 137.912 161.665 137.814 161.805C137.716 161.945 137.59 162.065 137.446 162.157C137.301 162.248 137.139 162.311 136.97 162.34C136.801 162.37 136.628 162.366 136.46 162.328L122.289 159.204L127.891 171.037C128.037 171.349 128.054 171.705 127.937 172.029C127.82 172.353 127.579 172.617 127.266 172.765C126.987 172.911 126.663 172.949 126.356 172.871Z" fill="#B6BFD2"/>
<g style="mix-blend-mode:multiply" opacity="0.5">
<path d="M192.335 147.454C188.172 157.654 154.318 189.076 120.516 175.462C127.721 176.983 135.179 176.847 142.323 175.066C160.306 170.457 174.852 156.252 182.672 139.509C186.618 130.828 189.188 121.591 190.289 112.127C190.377 111.286 190.412 110.441 190.397 109.595C192.769 125.339 194.506 142.112 192.335 147.454Z" fill="#718CCD"/>
</g>
<path d="M243.026 72.5232L222.504 75.7831C221.021 76.0188 219.648 76.7048 218.573 77.747C217.498 78.7892 216.773 80.1367 216.497 81.6048L200.084 170.15L194.946 169.209L193.323 168.907L209.76 80.3387C210.293 77.4818 211.702 74.859 213.793 72.8304C215.884 70.8018 218.555 69.4669 221.439 69.0088L241.95 65.7785L242.586 69.772L243.026 72.5232Z" fill="#463F69"/>
<g style="mix-blend-mode:multiply" opacity="0.5">
<path d="M243.026 72.5232L222.503 75.7831C221.021 76.0188 219.648 76.7048 218.573 77.747C217.498 78.7892 216.773 80.1367 216.497 81.6048L200.084 170.15L194.946 169.209C197.289 156.607 212.002 77.9722 214.648 75.8245C216.991 73.9194 235.753 70.8429 242.598 69.772L243.026 72.5232Z" fill="#463F69"/>
</g>
<path d="M229.676 170.812C234.622 170.812 238.631 166.823 238.631 161.902C238.631 156.981 234.622 152.992 229.676 152.992C224.729 152.992 220.72 156.981 220.72 161.902C220.72 166.823 224.729 170.812 229.676 170.812Z" fill="#8AA6DD"/>
<path d="M229.675 171.445C227.776 171.446 225.92 170.887 224.341 169.838C222.761 168.79 221.53 167.298 220.803 165.553C220.076 163.808 219.885 161.888 220.255 160.035C220.626 158.182 221.54 156.48 222.882 155.144C224.225 153.808 225.936 152.899 227.798 152.53C229.661 152.162 231.591 152.352 233.345 153.075C235.099 153.799 236.598 155.023 237.652 156.595C238.706 158.166 239.269 160.013 239.267 161.902C239.264 164.432 238.253 166.858 236.454 168.647C234.656 170.436 232.218 171.442 229.675 171.445ZM229.675 153.631C228.029 153.631 226.419 154.117 225.05 155.027C223.681 155.937 222.614 157.231 221.984 158.744C221.353 160.258 221.189 161.923 221.51 163.53C221.831 165.137 222.624 166.612 223.788 167.771C224.953 168.929 226.436 169.718 228.051 170.038C229.666 170.357 231.34 170.193 232.861 169.566C234.383 168.939 235.683 167.878 236.598 166.516C237.512 165.154 238.001 163.552 238.001 161.914C238.001 159.717 237.124 157.61 235.562 156.057C234.001 154.504 231.883 153.631 229.675 153.631Z" fill="#E9ECF5"/>
<path opacity="0.5" d="M234.992 158.198C235.237 158.597 235.393 159.043 235.45 159.506C235.506 159.973 235.373 160.444 235.081 160.814C234.856 161.048 234.57 161.216 234.255 161.297C233.94 161.379 233.608 161.371 233.297 161.275C232.675 161.065 232.146 160.647 231.798 160.092C231.459 159.536 231.193 158.94 231.007 158.317C230.686 157.382 230.627 155.388 232.197 155.719C233.327 155.927 234.427 157.222 234.992 158.198Z" fill="#E9ECF5"/>
<path d="M146.04 57.8091C149.157 57.8091 151.683 55.2953 151.683 52.1944C151.683 49.0935 149.157 46.5798 146.04 46.5798C142.923 46.5798 140.396 49.0935 140.396 52.1944C140.396 55.2953 142.923 57.8091 146.04 57.8091Z" fill="#8AA6DD"/>
<path d="M146.04 58.2055C144.843 58.2055 143.674 57.8524 142.679 57.191C141.684 56.5296 140.909 55.5895 140.452 54.4897C139.994 53.3899 139.875 52.1798 140.109 51.0125C140.342 49.8451 140.919 48.773 141.765 47.9318C142.612 47.0905 143.69 46.5179 144.864 46.2864C146.037 46.0549 147.253 46.1749 148.358 46.6313C149.463 47.0876 150.407 47.8597 151.071 48.85C151.735 49.8402 152.089 51.0041 152.088 52.1944C152.084 53.7887 151.446 55.3167 150.312 56.4435C149.179 57.5703 147.642 58.2039 146.04 58.2055ZM146.04 46.9643C145.004 46.9643 143.991 47.27 143.129 47.8428C142.268 48.4155 141.596 49.2296 141.2 50.182C140.803 51.1344 140.699 52.1825 140.901 53.1936C141.104 54.2047 141.603 55.1334 142.335 55.8624C143.068 56.5913 144.001 57.0878 145.018 57.2889C146.034 57.49 147.087 57.3868 148.045 56.9923C149.002 56.5978 149.82 55.9297 150.396 55.0725C150.972 54.2153 151.279 53.2076 151.279 52.1767C151.273 50.7978 150.718 49.4775 149.736 48.5042C148.755 47.5309 147.426 46.9836 146.04 46.9821V46.9643Z" fill="#E9ECF5"/>
<path opacity="0.5" d="M149.358 49.8575C149.513 50.108 149.612 50.3883 149.65 50.6799C149.684 50.9755 149.601 51.2727 149.418 51.5081C149.275 51.6581 149.093 51.7649 148.892 51.8162C148.691 51.8675 148.479 51.8612 148.282 51.7981C147.887 51.6618 147.552 51.3917 147.336 51.0348C147.122 50.6831 146.954 50.3053 146.837 49.9107C146.635 49.3191 146.599 48.0648 147.58 48.2719C148.354 48.556 148.99 49.1231 149.358 49.8575Z" fill="#E9ECF5"/>
<path d="M43.9384 163.41C44.7353 160.223 42.7846 156.997 39.5815 156.204C36.3785 155.412 33.1359 157.352 32.339 160.539C31.5422 163.726 33.4928 166.952 36.6959 167.745C39.899 168.537 43.1416 166.597 43.9384 163.41Z" fill="#8AA6DD"/>
<path d="M38.1544 168.345C36.8874 168.345 35.6489 167.971 34.5956 167.271C33.5422 166.57 32.7213 165.575 32.2367 164.41C31.7521 163.246 31.6257 161.964 31.8733 160.728C32.1209 159.492 32.7314 158.356 33.6277 157.465C34.524 156.574 35.6658 155.968 36.9086 155.723C38.1513 155.478 39.4393 155.605 40.6095 156.088C41.7797 156.571 42.7795 157.389 43.4826 158.437C44.1856 159.486 44.5602 160.719 44.559 161.979C44.5575 163.668 43.882 165.287 42.6811 166.481C41.4801 167.675 39.852 168.345 38.1544 168.345ZM38.1544 156.459C37.057 156.459 35.9843 156.783 35.0719 157.389C34.1595 157.996 33.4484 158.858 33.0284 159.867C32.6085 160.875 32.4986 161.985 32.7127 163.056C32.9268 164.127 33.4552 165.11 34.2311 165.882C35.0071 166.654 35.9957 167.18 37.072 167.393C38.1482 167.606 39.2638 167.497 40.2776 167.079C41.2915 166.661 42.158 165.954 42.7676 165.046C43.3773 164.138 43.7027 163.071 43.7027 161.979C43.7011 160.515 43.1161 159.112 42.0759 158.078C41.0357 157.043 39.6254 156.461 38.1544 156.459Z" fill="#E9ECF5"/>
<path opacity="0.5" d="M41.6805 159.506C41.8391 159.773 41.9422 160.069 41.9837 160.376C42.0031 160.53 41.9915 160.687 41.9497 160.838C41.9078 160.988 41.8366 161.129 41.7399 161.251C41.5886 161.406 41.3979 161.516 41.1883 161.57C40.9787 161.624 40.7582 161.62 40.5506 161.559C40.1341 161.414 39.781 161.129 39.5515 160.754C39.328 160.383 39.1503 159.985 39.0223 159.571C38.8082 158.944 38.7725 157.613 39.8132 157.838C40.5744 158.021 41.3118 158.855 41.6805 159.506Z" fill="#E9ECF5"/>
<path d="M136.137 189.903C136.767 187.257 135.122 184.605 132.464 183.978C129.805 183.351 127.138 184.988 126.508 187.633C125.878 190.278 127.523 192.931 130.182 193.558C132.841 194.184 135.507 192.548 136.137 189.903Z" fill="#8AA6DD"/>
<path d="M131.328 194.046C130.278 194.047 129.252 193.738 128.379 193.159C127.505 192.58 126.824 191.755 126.422 190.791C126.02 189.826 125.914 188.765 126.119 187.74C126.323 186.716 126.829 185.775 127.571 185.037C128.313 184.298 129.259 183.796 130.288 183.592C131.318 183.389 132.385 183.494 133.355 183.894C134.324 184.294 135.152 184.971 135.735 185.84C136.317 186.709 136.627 187.73 136.626 188.774C136.623 190.172 136.064 191.511 135.071 192.498C134.078 193.486 132.732 194.043 131.328 194.046ZM131.328 184.201C130.419 184.2 129.53 184.467 128.774 184.968C128.017 185.469 127.427 186.183 127.078 187.017C126.729 187.852 126.636 188.771 126.812 189.659C126.987 190.546 127.424 191.361 128.065 192.002C128.707 192.643 129.524 193.08 130.416 193.258C131.307 193.436 132.231 193.348 133.071 193.004C133.912 192.659 134.631 192.075 135.138 191.324C135.645 190.574 135.916 189.691 135.919 188.786C135.92 187.573 135.438 186.408 134.577 185.549C133.716 184.689 132.547 184.204 131.328 184.201Z" fill="#E9ECF5"/>
<path opacity="0.5" d="M134.26 186.727C134.394 186.947 134.479 187.194 134.509 187.449C134.535 187.602 134.519 187.759 134.464 187.905C134.41 188.05 134.317 188.179 134.197 188.277C134.077 188.376 133.932 188.442 133.778 188.468C133.625 188.494 133.467 188.479 133.32 188.425C132.975 188.304 132.683 188.068 132.494 187.757C132.307 187.447 132.161 187.115 132.059 186.769C131.881 186.254 131.845 185.148 132.714 185.331C133.386 185.589 133.937 186.087 134.26 186.727Z" fill="#E9ECF5"/>
<path d="M197.844 25.7069C198.972 20.9224 195.988 16.134 191.179 15.0118C186.37 13.8896 181.557 16.8585 180.429 21.6431C179.301 26.4276 182.285 31.2159 187.095 32.3381C191.904 33.4603 196.717 30.4914 197.844 25.7069Z" fill="#8AA6DD"/>
<path d="M189.124 33.1851C187.228 33.1839 185.374 32.6231 183.798 31.5736C182.222 30.5242 180.994 29.0332 180.27 27.2894C179.546 25.5455 179.358 23.6272 179.73 21.777C180.102 19.9269 181.017 18.2281 182.36 16.8956C183.703 15.5631 185.413 14.6568 187.273 14.2913C189.134 13.9258 191.061 14.1175 192.812 14.8422C194.563 15.567 196.059 16.7922 197.11 18.3628C198.161 19.9334 198.72 21.7788 198.716 23.6656C198.71 26.1925 197.697 28.6137 195.898 30.3983C194.1 32.1829 191.664 33.1851 189.124 33.1851ZM189.124 15.3885C187.478 15.3885 185.868 15.8743 184.499 16.7845C183.13 17.6946 182.063 18.9882 181.432 20.5017C180.802 22.0153 180.637 23.6807 180.959 25.2874C181.28 26.8942 182.073 28.37 183.237 29.5284C184.402 30.6868 185.885 31.4757 187.5 31.7953C189.115 32.1149 190.789 31.9509 192.31 31.3239C193.831 30.697 195.132 29.6354 196.046 28.2733C196.961 26.9111 197.45 25.3097 197.45 23.6715C197.437 21.4829 196.554 19.3883 194.994 17.8451C193.434 16.302 191.324 15.4358 189.124 15.4359V15.3885Z" fill="#E9ECF5"/>
<path opacity="0.5" d="M194.429 19.9679C194.669 20.3676 194.823 20.813 194.881 21.2754C194.937 21.7399 194.806 22.2076 194.518 22.577C194.294 22.8133 194.008 22.9821 193.693 23.0637C193.377 23.1454 193.045 23.1366 192.734 23.0385C192.11 22.8313 191.58 22.4124 191.235 21.8552C190.897 21.2994 190.631 20.703 190.444 20.0803C190.123 19.1396 190.064 17.1221 191.634 17.483C192.769 17.7019 193.876 18.9857 194.429 19.9679Z" fill="#E9ECF5"/>
<g style="mix-blend-mode:multiply" opacity="0.5">
<path d="M40.432 43.1364C45.6869 43.1364 49.9468 38.8982 49.9468 33.6702C49.9468 28.4421 45.6869 24.2039 40.432 24.2039C35.1771 24.2039 30.9172 28.4421 30.9172 33.6702C30.9172 38.8982 35.1771 43.1364 40.432 43.1364Z" fill="#718CCD"/>
</g>
<g style="mix-blend-mode:multiply" opacity="0.5">
<path d="M217.692 28.8779C220.32 28.8779 222.45 26.7588 222.45 24.1448C222.45 21.5308 220.32 19.4117 217.692 19.4117C215.065 19.4117 212.935 21.5308 212.935 24.1448C212.935 26.7588 215.065 28.8779 217.692 28.8779Z" fill="#718CCD"/>
</g>
<g style="mix-blend-mode:multiply" opacity="0.3">
<path d="M116.551 205.277C117.223 201.141 114.398 197.247 110.242 196.579C106.085 195.911 102.171 198.721 101.499 202.857C100.827 206.992 103.652 210.886 107.809 211.554C111.966 212.223 115.88 209.412 116.551 205.277Z" fill="#718CCD"/>
</g>
<g style="mix-blend-mode:multiply" opacity="0.5">
<path d="M18.7032 141.066C21.1327 140.071 22.2913 137.304 21.2909 134.887C20.2905 132.47 17.51 131.317 15.0805 132.313C12.6509 133.308 11.4924 136.074 12.4928 138.491C13.4932 140.909 16.2737 142.061 18.7032 141.066Z" fill="#718CCD"/>
</g>
<g style="mix-blend-mode:multiply" opacity="0.3">
<path d="M64.1121 9.46623C66.4637 9.46623 68.37 7.56965 68.37 5.2301C68.37 2.89054 66.4637 0.993958 64.1121 0.993958C61.7606 0.993958 59.8542 2.89054 59.8542 5.2301C59.8542 7.56965 61.7606 9.46623 64.1121 9.46623Z" fill="#718CCD"/>
</g>
</g>
<defs>
<clipPath id="clip0_45_31273">
<rect width="261.669" height="217.185" fill="white"/>
</clipPath>
</defs>
</svg>
