<svg width="38" height="37" viewBox="0 0 38 37" fill="none" xmlns="http://www.w3.org/2000/svg">
<g clip-path="url(#clip0_110_31549)">
<path d="M21.0298 14.1833H17.0215V17.7292H21.0298C21.9548 17.7292 22.8798 16.9583 22.8798 15.8792C22.7257 14.9542 21.9548 14.1833 21.0298 14.1833Z" fill="#374982"/>
<path d="M18.717 0.770844C9.00446 0.770844 0.987793 8.78751 0.987793 18.5C0.987793 28.2125 9.00446 36.2292 18.717 36.2292C28.4295 36.2292 36.4461 28.2125 36.4461 18.5C36.4461 8.78751 28.4295 0.770844 18.717 0.770844ZM21.0295 22.6625H17.0211V26.9792C17.0211 27.4417 16.7128 27.75 16.2503 27.75H12.7045C12.242 27.75 11.9336 27.4417 11.9336 26.9792V10.0208C12.0878 9.55834 12.3961 9.25001 12.7045 9.25001H20.8753C24.5753 9.25001 27.5045 12.1792 27.5045 15.8792C27.6586 19.5792 24.7295 22.6625 21.0295 22.6625Z" fill="#374982"/>
</g>
<defs>
<clipPath id="clip0_110_31549">
<rect width="37" height="37" fill="white" transform="translate(0.217041)"/>
</clipPath>
</defs>
</svg>
