<svg width="66" height="66" viewBox="0 0 66 66" fill="none" xmlns="http://www.w3.org/2000/svg">
<circle cx="32.5897" cy="32.5897" r="32.5897" fill="#374982"/>
<g clip-path="url(#clip0_22_37733)">
<path d="M28.8438 17.875H17.875V28.8438H28.8438V17.875ZM27.0156 27.0156H19.7031V19.7031H27.0156V27.0156Z" fill="white"/>
<path d="M21.5312 21.5312H25.1875V25.1875H21.5312V21.5312ZM17.875 47.125H28.8438V36.1562H17.875V47.125ZM19.7031 37.9844H27.0156V45.2969H19.7031V37.9844Z" fill="white"/>
<path d="M21.5312 39.8125H25.1875V43.4688H21.5312V39.8125ZM36.1562 17.875V28.8438H47.125V17.875H36.1562ZM45.2969 27.0156H37.9844V19.7031H45.2969V27.0156Z" fill="white"/>
<path d="M39.8125 21.5312H43.4688V25.1875H39.8125V21.5312ZM21.5312 30.6719H17.875V34.3281H23.3594V32.5H21.5312V30.6719ZM30.6719 34.3281H34.3281V37.9844H30.6719V34.3281ZM23.3594 30.6719H27.0156V32.5H23.3594V30.6719ZM34.3281 39.8125H30.6719V41.6406H32.5V43.4688H34.3281V41.6406V39.8125ZM28.8438 30.6719V32.5H27.0156V34.3281H30.6719V30.6719H28.8438ZM32.5 25.1875H34.3281V28.8438H32.5V25.1875ZM34.3281 32.5V34.3281H37.9844V30.6719H32.5V32.5H34.3281ZM30.6719 28.8438H32.5V30.6719H30.6719V28.8438ZM34.3281 43.4688H37.9844V47.125H34.3281V43.4688ZM30.6719 43.4688H32.5V47.125H30.6719V43.4688ZM34.3281 37.9844H36.1562V39.8125H34.3281V37.9844ZM34.3281 23.3594V19.7031H32.5V17.875H30.6719V25.1875H32.5V23.3594H34.3281ZM39.8125 43.4688H41.6406V47.125H39.8125V43.4688ZM39.8125 39.8125H43.4688V41.6406H39.8125V39.8125ZM37.9844 41.6406H39.8125V43.4688H37.9844V41.6406ZM36.1562 39.8125H37.9844V41.6406H36.1562V39.8125ZM43.4688 36.1562V37.9844H45.2969V39.8125H47.125V36.1562H45.2969H43.4688ZM45.2969 41.6406H43.4688V47.125H47.125V43.4688H45.2969V41.6406ZM36.1562 36.1562V37.9844H41.6406V34.3281H37.9844V36.1562H36.1562ZM39.8125 30.6719V32.5H43.4688V34.3281H47.125V30.6719H43.4688H39.8125Z" fill="white"/>
</g>
<defs>
<clipPath id="clip0_22_37733">
<rect width="29.25" height="29.25" fill="white" transform="translate(17.875 17.875)"/>
</clipPath>
</defs>
</svg>
