<svg width="69" height="69" viewBox="0 0 69 69" fill="none" xmlns="http://www.w3.org/2000/svg">
<circle cx="34.5827" cy="34.6107" r="33.8027" fill="#F8FAFC"/>
<g clip-path="url(#clip0_22_37573)">
<path d="M16.4866 38.1002C16.4866 37.5378 16.4933 36.0346 16.4781 35.8494C16.4914 33.6125 14.7074 32.0346 13.5803 32.1576C12.8005 32.2193 12.1469 32.5092 11.7959 33.3432C11.4707 34.1205 11.7615 35.1543 12.8429 35.3969C13.9992 35.6574 14.6745 35.8742 15.1631 36.18C15.7619 36.5544 16.2507 37.2697 16.2637 38.1011" fill="#0060AF"/>
<path d="M16.9479 41.5005C14.909 41.5005 12.8135 41.0427 10.7209 40.1372L10.6695 40.1141L10.6449 40.0664C9.70585 38.2593 9.20923 36.2827 9.20923 34.3488C9.20923 32.4179 9.68547 30.5259 10.6253 28.7212L10.6511 28.6732L10.7034 28.6493C12.6392 27.8133 14.7217 27.3898 16.8949 27.3898C18.9193 27.3898 21.0813 27.8612 23.1462 28.7555L23.1992 28.777L23.2237 28.8259C24.1807 30.6663 24.6855 32.6424 24.6855 34.5442C24.6855 36.4386 24.2008 38.3323 23.2426 40.1716L23.2174 40.22L23.1641 40.2424C21.2578 41.065 19.1081 41.5005 16.9479 41.5005ZM10.9145 39.8894C12.9475 40.7611 14.975 41.2014 16.9479 41.2014C19.0399 41.2014 21.1204 40.7845 22.9723 39.9943C23.8923 38.212 24.3587 36.3776 24.3587 34.5442C24.3587 32.7035 23.8719 30.7887 22.9513 29.0024C20.9474 28.1436 18.8546 27.6882 16.8949 27.6882C14.7909 27.6882 12.7743 28.095 10.8969 28.8976C9.99581 30.6469 9.53715 32.4798 9.53715 34.3488C9.53715 36.2214 10.0138 38.1369 10.9145 39.8894Z" fill="#0060AF"/>
<path d="M16.003 38.1012C16.0068 37.3803 15.5654 36.7428 14.9886 36.4003C14.4769 36.0975 13.79 35.8985 12.6817 35.6423C12.3392 35.5625 11.9808 35.385 11.8699 35.1588C11.5765 35.4284 11.5231 36.0344 11.5748 36.3886C11.6348 36.7984 12.1601 37.4739 12.9512 37.5004C13.4343 37.5181 14.045 37.4056 14.3379 37.3489C14.8432 37.2494 15.6426 37.5379 15.7699 38.1003" fill="#0060AF"/>
<path d="M16.8951 28.6714C15.5538 28.6714 14.3952 29.4778 14.3994 30.8732C14.4036 32.0466 15.4387 32.6748 15.8081 33.1234C16.3662 33.7996 16.6683 34.5998 16.6997 35.8244C16.7241 36.7989 16.7229 37.7613 16.7283 38.1023H17.0244C17.0193 37.7455 17.0059 36.7239 17.0212 35.7942C17.0413 34.5693 17.3543 33.7996 17.9127 33.1234C18.2853 32.6748 19.3196 32.0466 19.3218 30.8732C19.3268 29.4778 18.1689 28.6714 16.8288 28.6714" fill="#0060AF"/>
<path d="M17.2353 38.1002C17.2353 37.5378 17.2283 36.0346 17.2432 35.8494C17.2301 33.6125 19.013 32.0346 20.141 32.1576C20.9209 32.2193 21.5738 32.5092 21.9257 33.3432C22.2507 34.1205 21.9582 35.1543 20.8781 35.3969C19.7212 35.6574 19.0468 35.8742 18.5568 36.18C17.9588 36.5544 17.5042 37.2697 17.4902 38.1011" fill="#0060AF"/>
<path d="M17.7183 38.1012C17.7141 37.3803 18.1553 36.7428 18.7305 36.4003C19.2443 36.0975 19.9321 35.8985 21.0393 35.6423C21.3826 35.5625 21.7405 35.385 21.8495 35.1588C22.1443 35.4284 22.1975 36.0344 22.1459 36.3886C22.0846 36.7984 21.5606 37.4739 20.771 37.5004C20.288 37.5181 19.6741 37.4056 19.3824 37.3489C18.8791 37.2494 18.0775 37.5379 17.9496 38.1003" fill="#0060AF"/>
<path d="M18.1321 40.4286L17.9604 39.2869L18.3747 39.2297C18.4756 39.2171 18.5984 39.2331 18.6475 39.2907C18.7018 39.3509 18.7184 39.4006 18.7289 39.4795C18.7445 39.5771 18.7135 39.6899 18.593 39.7461V39.7496C18.7276 39.7496 18.809 39.8377 18.8326 39.9866C18.8361 40.018 18.8462 40.0939 18.8361 40.1573C18.8087 40.308 18.71 40.3565 18.5436 40.3777L18.1321 40.4286ZM18.3987 40.2242C18.4479 40.2178 18.4977 40.2154 18.5366 40.1928C18.5962 40.1573 18.5907 40.0813 18.5825 40.025C18.5617 39.9011 18.5263 39.854 18.3821 39.8735L18.2916 39.8862L18.3489 40.2306L18.3987 40.2242ZM18.3119 39.6967C18.3668 39.6885 18.4412 39.6825 18.4721 39.6351C18.4883 39.6034 18.5091 39.5782 18.4954 39.5078C18.4786 39.4242 18.4481 39.3724 18.3318 39.3925L18.2233 39.4084L18.266 39.701" fill="#0060AF"/>
<path d="M19.9266 39.7419C19.9298 39.7632 19.9336 39.7868 19.935 39.8081C19.9685 40.0163 19.9266 40.1887 19.6699 40.2361C19.2903 40.3028 19.2176 40.0878 19.1508 39.7868L19.1152 39.624C19.0629 39.336 19.0404 39.1179 19.4105 39.0508C19.6191 39.0161 19.7569 39.0917 19.8143 39.281C19.8232 39.3093 19.8344 39.3373 19.8386 39.3656L19.6115 39.4084C19.5853 39.3373 19.5506 39.2102 19.4484 39.2209C19.2651 39.241 19.3256 39.4489 19.3445 39.5358L19.4127 39.8484C19.4332 39.9429 19.4739 40.0939 19.6326 40.0648C19.7614 40.0412 19.7053 39.8583 19.6939 39.7834" fill="#0060AF"/>
<path d="M20.2907 40.0874L20.2122 38.9059L20.5172 38.821L21.1567 39.8487L20.9165 39.9142L20.765 39.653L20.4984 39.726L20.5328 40.0229L20.2907 40.0874ZM20.476 39.5352L20.6687 39.4843L20.4128 39.0063" fill="#0060AF"/>
<path d="M12.757 39.1941C12.8525 38.9155 12.938 38.7105 13.3022 38.8016C13.4971 38.8512 13.618 38.9295 13.6122 39.136C13.6113 39.1819 13.5947 39.2287 13.5838 39.2741L13.357 39.217C13.3867 39.1031 13.4056 39.0126 13.2515 38.9694C13.0735 38.9248 13.0301 39.1216 13.0055 39.2066L12.9133 39.5164C12.884 39.6083 12.8488 39.7603 13.0055 39.7995C13.135 39.8313 13.2136 39.7154 13.2605 39.5462L13.1018 39.508L13.1566 39.3287L13.5296 39.4381L13.3526 40.0351L13.1809 39.9926L13.2196 39.8664H13.2147C13.1357 39.9696 13.0393 39.9804 12.9549 39.9657C12.5819 39.8737 12.6208 39.6515 12.7098 39.3545" fill="#0060AF"/>
<path d="M14.1452 39.6983L14.0329 40.184L13.78 40.1341L14.0495 39.0001L14.4805 39.0889C14.7328 39.1385 14.809 39.2409 14.7733 39.4517C14.7529 39.5726 14.6874 39.703 14.5277 39.6925L14.526 39.6905C14.6611 39.7336 14.6725 39.7957 14.6489 39.9031C14.6388 39.9487 14.5686 40.2259 14.617 40.2707L14.6187 40.3047L14.357 40.2425C14.3461 40.1656 14.3831 40.0275 14.3978 39.951C14.4126 39.8833 14.4361 39.7879 14.3608 39.7521C14.3018 39.7234 14.2799 39.7248 14.2132 39.7108L14.1452 39.6983ZM14.1883 39.5226L14.3586 39.5645C14.462 39.5781 14.5194 39.5293 14.5398 39.4154C14.5582 39.311 14.5344 39.2701 14.4416 39.2499L14.2591 39.2162" fill="#0060AF"/>
<path d="M15.7673 39.2534L16.0173 39.2799L15.9096 40.0771C15.8573 40.3299 15.7501 40.4404 15.4451 40.4058C15.1347 40.3701 15.0611 40.2412 15.0799 39.9864L15.1883 39.1898L15.4403 39.2162L15.3322 39.9949C15.3207 40.0795 15.2992 40.2048 15.4643 40.22C15.6107 40.2301 15.6439 40.1417 15.6604 40.0318" fill="#0060AF"/>
<path d="M16.293 40.4494L16.3682 39.3094L16.8486 39.3283C17.0756 39.3385 17.1351 39.5076 17.128 39.6689C17.1214 39.767 17.0878 39.8765 16.994 39.9359C16.9171 39.9864 16.8183 39.9984 16.7267 39.9943L16.5701 39.9864L16.5388 40.4642L16.293 40.4494ZM16.5772 39.8125L16.7045 39.819C16.8079 39.8224 16.8764 39.7852 16.8853 39.6468C16.8903 39.5138 16.8352 39.4913 16.7013 39.486L16.6004 39.4828" fill="#0060AF"/>
<path d="M50.1774 29.7733L48.2679 32.9329C47.5472 32.3993 46.6671 32.0067 45.5443 32.0067C42.887 32.0067 41.8077 33.8124 41.8077 35.0844C41.8077 36.0285 42.4858 37.4216 44.8502 37.4216C45.8426 37.4216 47.2535 36.7922 47.6595 36.5058L45.771 40.1714C44.8708 40.3351 44.5752 40.4366 43.8131 40.4581C39.5813 40.5733 37.8713 38.2033 37.8726 35.7816C37.8754 32.5802 40.9975 28.6868 46.1733 28.6868C46.4905 28.6868 46.8784 28.7868 47.2101 28.8976L47.5452 28.5068" fill="#0060AF"/>
<path d="M58.0561 28.6059L58.5968 40.0895H54.5728L54.5704 38.12H51.8265L50.9234 40.0895H46.5593L51.1218 31.8892L50.093 31.8831L52.0478 28.6059H58.0561ZM54.5443 32.1189L52.9929 35.4591H54.591" fill="#0060AF"/>
<path d="M35.332 28.606C37.3247 28.6162 38.4508 29.6023 38.4508 31.0268C38.4508 32.34 37.2632 33.5025 35.9595 34.1036C37.3017 34.5534 37.4178 35.6576 37.4178 36.4388C37.4178 38.3261 35.3405 40.0896 32.6403 40.0896H26.7515L29.0486 32.0036L28.105 31.9986L30.0338 28.606C30.0338 28.606 33.7115 28.5958 35.332 28.606ZM33.3769 33.2619C33.7891 33.2619 34.5169 33.1668 34.6989 32.4395C34.8983 31.6501 34.2152 31.6288 33.8876 31.6288L32.7169 31.6241L32.3086 33.262L33.3769 33.2619ZM31.7217 35.2912L31.1827 37.1785H32.5612C33.1035 37.1785 33.8427 36.9331 34.0238 36.3189C34.2027 35.703 33.686 35.2912 33.1455 35.2912" fill="#0060AF"/>
</g>
<defs>
<clipPath id="clip0_22_37573">
<rect width="49.3875" height="14.1107" fill="white" transform="translate(9.20923 27.3898)"/>
</clipPath>
</defs>
</svg>
