<svg width="69" height="69" viewBox="0 0 69 69" fill="none" xmlns="http://www.w3.org/2000/svg">
<circle cx="34.417" cy="34.2831" r="33.8027" fill="#F8FAFC"/>
<path fill-rule="evenodd" clip-rule="evenodd" d="M16.0911 27.4651C13.9154 27.6723 12.1541 28.8229 11.0854 30.6005C10.3928 31.7565 10.0657 33.1198 10.1638 34.5266C10.4146 37.962 13.3647 40.8684 17.1381 40.5685C20.5298 40.2958 23.3217 37.2476 23.0381 33.5015C22.9345 32.1273 22.4547 30.9986 21.6913 29.9734C21.3423 29.5099 21.2768 29.5045 20.917 29.1282C20.4644 28.6593 19.5156 28.1195 18.9103 27.8795C18.1032 27.5578 17.0672 27.3724 16.0911 27.4651Z" fill="#108DE8"/>
<path fill-rule="evenodd" clip-rule="evenodd" d="M12.863 32.1001C12.7812 32.3401 12.8303 34.9847 12.8303 35.4755C12.8303 36.0044 12.7267 36.1735 13.5555 36.457C15.7585 37.2095 17.9342 34.6575 20.1208 35.9172C20.219 35.9772 20.3444 36.0971 20.3717 35.9063L20.3771 32.4982C20.3771 32.1328 20.4098 32.0183 20.1644 31.8493C18.2068 30.4861 16.0911 32.8199 14.1063 32.5582C13.3701 32.46 13.0648 32.0838 12.863 32.1001Z" fill="white"/>
<path fill-rule="evenodd" clip-rule="evenodd" d="M27.9732 37.3458C28.8293 37.4058 29.8272 36.746 30.1816 36.3643C31.4031 35.0392 31.4303 33.1252 30.2034 31.7402C29.7454 31.2276 28.6712 30.6551 27.9841 30.7369H25.5139V37.3403L27.9732 37.3458ZM26.9044 35.9171C27.0844 35.9498 27.8314 35.9389 28.0386 35.9171C29.7236 35.7644 30.3234 33.4579 28.9056 32.4872C28.6657 32.3291 28.404 32.1982 28.0604 32.1601C27.875 32.1437 27.068 32.1274 26.9044 32.1601V35.9171Z" fill="#108DE8"/>
<path fill-rule="evenodd" clip-rule="evenodd" d="M49.6101 37.3622L51.0169 37.3567V35.9335L53.8088 35.9389L53.8143 37.3567H55.2211C55.2211 36.566 55.2211 35.7863 55.2211 35.001C55.2211 34.2922 55.2811 33.4088 55.1066 32.7708C54.8122 31.6857 53.7816 30.7205 52.4238 30.715C51.0497 30.7096 50.0518 31.6693 49.7355 32.7381C49.5501 33.3706 49.6101 34.2813 49.6101 34.9738C49.6101 35.7699 49.6046 36.566 49.6101 37.3622ZM51.0169 34.5048H53.8143C53.8197 33.8941 53.8852 33.2997 53.6125 32.8362C53.4162 32.4982 53.0018 32.1492 52.4238 32.1492C51.8294 32.1437 51.4368 32.4818 51.2241 32.8253C50.9461 33.2834 51.0115 33.9105 51.0169 34.5048Z" fill="#108DE8"/>
<path fill-rule="evenodd" clip-rule="evenodd" d="M33.5407 37.3567H34.9366C34.9421 37.0622 34.8985 36.1516 34.953 35.9334L37.7285 35.9389L37.7394 37.3567L39.1408 37.3621C39.1354 36.5714 39.1408 35.7862 39.1408 35.001C39.1408 34.3248 39.2063 33.3651 39.0263 32.7653C38.2247 30.0497 34.4895 30.0334 33.6607 32.738C33.4698 33.3542 33.5352 34.2921 33.5352 34.9737C33.5352 35.7644 33.5189 36.5714 33.5407 37.3567ZM34.9421 34.5048H37.7394C37.7449 33.905 37.8103 33.2997 37.5377 32.8362C37.0306 31.9801 35.7546 31.8547 35.1493 32.8307C34.8712 33.2724 34.9312 33.9213 34.9421 34.5048Z" fill="#108DE8"/>
<path fill-rule="evenodd" clip-rule="evenodd" d="M41.6053 33.3161L41.589 34.2977C41.589 35.1265 41.5453 36.6697 41.589 37.3404H42.9631C42.9958 36.8714 42.914 33.5179 43.0013 33.4088C43.0013 32.7545 43.6829 32.1492 44.37 32.1492C44.7898 32.1437 45.1006 32.3182 45.3242 32.52C45.4987 32.6836 45.7659 33.0435 45.7604 33.4143C45.8259 33.447 45.7768 36.9478 45.7932 37.3404H47.1727L47.1618 33.3325C47.1946 33.0217 47.0037 32.5364 46.8837 32.291C45.8641 30.2189 42.9467 30.1916 41.8998 32.2528C41.7744 32.4927 41.5781 32.9944 41.6053 33.3161Z" fill="#108DE8"/>
<path fill-rule="evenodd" clip-rule="evenodd" d="M27.9729 37.3458L25.5137 37.3403V30.7368H27.9838C27.9402 30.6714 26.9096 30.7096 26.7678 30.7096C26.4079 30.7096 25.8408 30.6769 25.5028 30.715C25.4755 30.8186 25.4591 37.1931 25.5028 37.3621C25.7318 37.3894 27.3186 37.3676 27.8148 37.3676L27.9566 37.3567C27.9566 37.3567 27.9675 37.3512 27.9729 37.3458Z" fill="#79BBE7"/>
<path fill-rule="evenodd" clip-rule="evenodd" d="M45.7602 33.4143C45.7765 33.9541 45.7329 37.1713 45.782 37.3622L47.1834 37.3676C47.2216 37.2149 47.1943 34.7066 47.1943 34.3249C47.1943 34.1449 47.2434 33.4306 47.1616 33.3325L47.1725 37.3404H45.7929C45.7765 36.9477 45.8256 33.447 45.7602 33.4143Z" fill="#79BBE7"/>
<path fill-rule="evenodd" clip-rule="evenodd" d="M43.0011 33.4087C42.9139 33.5178 42.9957 36.8713 42.963 37.3403H41.5888C41.5452 36.6696 41.5888 35.1264 41.5888 34.2976L41.6052 33.316C41.5289 33.3488 41.5616 35.1046 41.5616 35.3227C41.5616 35.6444 41.5234 37.1822 41.5779 37.3621L42.9793 37.3676L43.0011 33.4087Z" fill="#79BBE7"/>
</svg>
