<svg width="70" height="69" viewBox="0 0 70 69" fill="none" xmlns="http://www.w3.org/2000/svg">
<circle cx="34.9997" cy="34.2831" r="34.1638" fill="#F8FAFC"/>
<path d="M15.0567 29.7134C18.3145 29.7134 20.9574 32.2647 20.9574 35.4048C20.9574 38.5514 18.3145 41.1027 15.0567 41.1027C11.7989 41.1027 9.15601 38.5514 9.15601 35.4048C9.15601 32.2647 11.7989 29.7134 15.0567 29.7134Z" fill="#108DE8"/>
<path fill-rule="evenodd" clip-rule="evenodd" d="M18.4981 35.2348C18.4523 34.5086 17.8177 33.9526 17.0654 33.9853H13.3366C13.1992 33.9853 13.088 33.8806 13.088 33.7498C13.088 33.619 13.1992 33.5077 13.3366 33.5077H17.1112C17.0916 33.0171 16.7448 32.5984 16.2542 32.4676C15.1486 32.2779 14.0235 32.2779 12.9244 32.4676C12.2964 32.6115 11.8319 33.1152 11.7404 33.7302C11.5703 34.8488 11.5703 35.9871 11.7404 37.0992C11.8777 37.7534 12.4142 38.2571 13.088 38.3683C14.4552 38.5384 15.8355 38.5384 17.2028 38.3683C17.8112 38.2506 18.2691 37.7665 18.341 37.1712C18.4653 36.5366 18.5177 35.8824 18.4981 35.2348ZM17.2682 36.0329V36.2357C17.2682 36.3665 17.157 36.4777 17.0261 36.4777C16.8888 36.4777 16.7776 36.3665 16.7776 36.2357V36.0329C16.6991 35.9609 16.6533 35.8628 16.6533 35.7647C16.6533 35.5684 16.8233 35.4049 17.0261 35.4049C17.2289 35.4049 17.3925 35.5684 17.3925 35.7647C17.3925 35.8628 17.3467 35.9609 17.2682 36.0329Z" fill="white"/>
<path d="M37.7634 34.7703C37.7699 33.7694 36.9391 32.9517 35.9055 32.9451C34.8719 32.9386 34.028 33.7432 34.0149 34.7376C34.0084 35.7385 34.8392 36.5562 35.8793 36.5628C35.8859 36.5628 35.899 36.5628 35.9055 36.5628C36.8868 36.6151 37.7241 35.8824 37.7765 34.9404C37.783 34.8815 37.783 34.8226 37.783 34.7703H37.7634ZM32.1963 34.7703C32.1963 32.8666 33.7532 31.4209 35.9055 31.4209C38.0578 31.4209 39.6147 32.8797 39.6147 34.7703C39.6147 36.6543 38.0774 38.1197 35.9055 38.1197C33.7402 38.1197 32.1963 36.6609 32.1963 34.7703Z" fill="black"/>
<path d="M29.2463 35.117C29.2463 35.8954 28.422 36.5365 27.3753 36.5365C26.4137 36.6281 25.5567 35.9543 25.4586 35.0254C25.4455 34.9338 25.4455 34.8357 25.452 34.7441C25.452 33.7105 26.237 32.9974 27.4473 32.9974C28.4351 32.9974 29.2463 33.6451 29.2463 34.3843V35.117ZM29.3248 31.4143V32.1666C28.7229 31.6433 27.9314 31.3751 27.1267 31.4208C25.2165 31.4405 23.6857 32.9451 23.6988 34.7833C23.7184 36.6281 25.2819 38.1066 27.1856 38.087C27.9706 38.1262 28.736 37.8384 29.2986 37.3085V37.9496C29.2986 38.8131 28.5201 39.4542 27.4996 39.4542C26.7146 39.5065 25.9492 39.2449 25.3735 38.7281L24.1764 39.8402C25.0726 40.6906 26.2894 41.1485 27.5454 41.1027C29.6388 41.1027 31.078 39.7486 31.078 37.9365V31.4143H29.3248Z" fill="black"/>
<path d="M40.6941 31.6106H42.4538V32.1732H42.48C43.0557 31.6629 43.8211 31.3947 44.5996 31.434C46.5163 31.4994 48.0078 33.0563 47.9359 34.9077C47.8705 36.6543 46.4182 38.0608 44.5996 38.1262C43.8538 38.1459 43.1276 37.9038 42.5454 37.459V40.6252H40.7137L40.6941 31.6106ZM44.3117 32.9974C43.3304 32.9974 42.5323 33.6582 42.5323 34.3712V35.1759C42.5323 35.9413 43.3239 36.5693 44.3248 36.5693C45.3453 36.6216 46.2219 35.8628 46.2743 34.8749C46.3266 33.8871 45.535 33.0498 44.5145 32.9974C44.4491 32.9909 44.3902 32.9909 44.3248 32.9974H44.3117Z" fill="black"/>
<path d="M51.4619 34.1553C52.6656 33.9983 53.0254 33.8348 53.0254 33.5077C53.0254 33.089 52.5675 32.8404 51.861 32.8404C51.0956 32.7815 50.4022 33.2656 50.219 33.9852L48.4919 33.6385C48.734 32.3498 50.1143 31.4274 51.8086 31.4274C53.7254 31.4274 54.916 32.3759 54.916 33.9133V37.943H53.2675V37.2365H53.2478C52.6852 37.8449 51.8675 38.172 51.0302 38.1131C49.5779 38.1131 48.5704 37.3477 48.5704 36.216C48.5704 35.0777 49.3947 34.4301 51.4619 34.1553ZM53.1693 34.8226H53.1497C52.9862 35.0515 52.6525 35.1824 51.7432 35.3394C50.6704 35.5291 50.2713 35.7384 50.2713 36.1048C50.2713 36.4776 50.5919 36.6543 51.2853 36.6543C52.3385 36.6543 53.1563 36.1833 53.1563 35.5814L53.1693 34.8226Z" fill="black"/>
<path d="M58.2393 37.5831L55.2039 31.6105H57.2253L59.214 35.7514H59.2467L61.2092 31.6105H63.2437L58.6972 40.6251H56.6758L58.2393 37.5831Z" fill="black"/>
</svg>
