<svg width="69" height="69" viewBox="0 0 69 69" fill="none" xmlns="http://www.w3.org/2000/svg">
<circle cx="34.5827" cy="34.2831" r="33.8027" fill="#F8FAFC"/>
<g clip-path="url(#clip0_22_37459)">
<path d="M9.37116 36.7186C9.37116 36.0298 9.35724 35.4491 9.32104 34.9332H10.6657L10.7297 35.8219H10.7687C11.0722 35.3546 11.6317 34.7981 12.6729 34.7981C13.4859 34.7981 14.1206 35.2411 14.3851 35.9056H14.4101C14.6245 35.5733 14.8778 35.3275 15.1701 35.1547C15.5126 34.9197 15.9079 34.7954 16.4146 34.7954C17.4419 34.7954 18.4831 35.4734 18.4831 37.3939V40.927H16.9602V37.6154C16.9602 36.6187 16.6039 36.0271 15.855 36.0271C15.3233 36.0271 14.9279 36.3972 14.7637 36.8267C14.7247 36.9725 14.6885 37.1589 14.6885 37.3291V40.9243H13.1657V37.4506C13.1657 36.616 12.8233 36.0244 12.0994 36.0244C11.5176 36.0244 11.1223 36.4674 10.9831 36.8861C10.919 37.0374 10.894 37.2102 10.894 37.3831V40.9297H9.37116V36.7186Z" fill="#003D79"/>
<path d="M24.4146 39.4894C24.4146 40.0297 24.4396 40.5591 24.5036 40.9292H23.095L22.9947 40.2647H22.9558C22.5744 40.732 21.9285 41.0642 21.1295 41.0642C19.8851 41.0642 19.1863 40.1917 19.1863 39.2788C19.1863 37.7634 20.5671 37.0017 22.8528 37.0125V36.9153C22.8528 36.5209 22.6857 35.8672 21.5972 35.8672C20.9875 35.8672 20.3528 36.0536 19.9352 36.3102L19.6317 35.3243C20.0883 35.0542 20.8873 34.7949 21.8644 34.7949C23.8438 34.7949 24.4173 36.0158 24.4173 37.3204V39.4894H24.4146ZM22.8917 38.0011C21.7865 37.9768 20.7342 38.2091 20.7342 39.1194C20.7342 39.7109 21.1295 39.9811 21.6222 39.9811C22.2431 39.9811 22.6996 39.5867 22.8388 39.1545C22.8778 39.0438 22.8889 38.9222 22.8889 38.8223V38.0011H22.8917Z" fill="#003D79"/>
<path d="M25.4922 36.7186C25.4922 36.0298 25.4783 35.4491 25.4421 34.9332H26.8118L26.887 35.8327H26.926C27.1933 35.3654 27.8642 34.7954 28.8915 34.7954C29.9716 34.7954 31.088 35.4734 31.088 37.3696V40.927H29.5262V37.5425C29.5262 36.6808 29.1949 36.0271 28.3458 36.0271C27.725 36.0271 27.2935 36.4593 27.1264 36.9131C27.0791 37.0509 27.0652 37.2372 27.0652 37.4074V40.9297H25.4922V36.7186Z" fill="#003D79"/>
<path d="M37.8546 32.5249V39.2427C37.8546 39.8585 37.8797 40.523 37.9047 40.9309H36.5099L36.4459 39.9828H36.4209C36.0534 40.6472 35.3045 41.0659 34.4025 41.0659C32.9298 41.0659 31.7633 39.8477 31.7633 38.0001C31.7494 35.9932 33.0439 34.7966 34.5278 34.7966C35.3769 34.7966 35.9866 35.1423 36.265 35.5853H36.29L36.2956 32.5249H37.8546ZM36.2956 37.4329C36.2956 37.3113 36.2817 37.1628 36.2566 37.0385C36.1174 36.4497 35.6219 35.9689 34.912 35.9689C33.9097 35.9689 33.3502 36.8305 33.3502 37.9515C33.3502 39.0455 33.9097 39.8477 34.9008 39.8477C35.5328 39.8477 36.0924 39.429 36.2455 38.7754C36.2844 38.6403 36.2956 38.4917 36.2956 38.3324V37.4329Z" fill="#003D79"/>
<path d="M38.958 34.9326H40.5326V40.9291H38.958V34.9326Z" fill="#003D79"/>
<path d="M41.6353 36.8669C41.6353 36.0539 41.6214 35.4759 41.5852 34.9329H42.9438L42.9939 36.0755H43.044C43.3475 35.2274 44.0713 34.9329 44.7339 34.9329C44.8842 34.9329 44.9733 34.9086 45.1013 34.9329V36.2646C44.9761 36.2403 44.8369 36.216 44.6448 36.216C43.8959 36.216 43.3864 36.6833 43.2472 37.3585C43.2222 37.4936 43.1971 37.6557 43.1971 37.8285V40.9294H41.6353V36.8669Z" fill="#003D79"/>
<path d="M45.8247 34.9326H47.3971V40.9291H45.8247V34.9326Z" fill="#003D79"/>
<path d="M45.5031 27.6757C44.5565 28.2078 41.4691 29.9204 41.4691 29.9204C40.311 30.385 39.4229 29.8204 39.1361 29.4045C39.1222 29.3882 39.1111 29.3693 39.1027 29.3558L39.0638 29.2937L38.8689 28.9831C38.7854 28.8561 38.6935 28.7238 38.5849 28.5887C38.4903 28.4699 38.3845 28.3537 38.2703 28.2403C37.527 27.511 36.3355 26.9977 34.3533 27.9134C33.1534 28.5779 30.3639 30.1256 30.3639 30.1256C29.2169 30.7631 28.3232 31.2574 28.3232 31.2574L29.3784 32.5162C29.8238 32.9267 30.659 33.602 31.9507 33.0321C31.9507 33.0321 35.5198 31.0278 35.5337 31.0224C38.5849 29.399 40.091 30.9495 40.7536 31.984C40.7759 32.0164 40.7954 32.0516 40.8177 32.0813L40.8204 32.084C40.8288 32.0975 40.8344 32.1083 40.8399 32.1191L40.9151 32.2379C41.238 32.716 41.7503 33.024 42.36 33.0077C42.6968 33.0023 42.9251 32.8943 43.2564 32.716L46.7085 30.7739C46.7113 30.7739 46.7113 30.7712 46.7169 30.7712C49.8043 29.1262 51.3355 30.7793 51.9897 31.8139C52.0398 31.903 52.0983 31.9894 52.1567 32.0678C52.4797 32.4945 52.9279 32.7728 53.493 32.7592C53.8661 32.7511 54.2865 32.5351 54.3505 32.4945L58.4902 30.177C58.4902 30.177 58.0671 29.5584 57.1957 28.5914C56.4162 27.7297 55.5894 28.1187 54.9323 28.4374C54.6567 28.5698 52.6578 29.6692 52.6578 29.6692C51.5637 30.1067 50.7119 29.6286 50.375 29.2262C50.3416 29.1829 50.311 29.1451 50.2887 29.1046L50.2107 28.975C50.091 28.7778 49.9463 28.5563 49.7709 28.3375C49.6762 28.2187 49.5704 28.0998 49.4563 27.9891C48.9969 27.538 48.3678 27.1706 47.4852 27.1706C46.9257 27.1706 46.2742 27.3138 45.5031 27.6757Z" fill="#FFB700"/>
</g>
<defs>
<clipPath id="clip0_22_37459">
<rect width="49.3875" height="14.1107" fill="white" transform="translate(9.20923 27.0623)"/>
</clipPath>
</defs>
</svg>
