<svg width="70" height="69" viewBox="0 0 70 69" fill="none" xmlns="http://www.w3.org/2000/svg">
<circle cx="34.9834" cy="34.6107" r="34.1638" fill="#F8FAFC"/>
<path fill-rule="evenodd" clip-rule="evenodd" d="M29.8438 29.1015H35.1252L35.1482 31.2233H33.8337L36.9241 38.5341L39.9683 31.2233H38.6307V29.1015H42.8511V30.3008L37.7543 42.2011C36.532 42.2011 35.7248 41.7629 35.2866 40.8173L31.1123 31.2233H29.8438V29.1015ZM22.5791 28.7325C26.2461 28.7325 29.2442 31.7307 29.2442 35.4207C29.2442 39.1338 26.2461 42.1319 22.5791 42.1319C18.8891 42.1319 15.9141 39.1338 15.9141 35.4207C15.9141 31.7307 18.8891 28.7325 22.5791 28.7325ZM22.5561 30.9235C24.8854 30.9235 26.7535 32.953 26.7535 35.4668C26.7535 38.0037 24.8854 40.0332 22.5561 40.0332C20.2268 40.0332 18.3587 38.0037 18.3587 35.4668C18.3587 32.953 20.2268 30.9235 22.5561 30.9235ZM50.3695 28.7325C54.0365 28.7325 57.0115 31.7307 57.0115 35.4207C57.0115 39.1338 54.0365 42.1319 50.3695 42.1319C46.6795 42.1319 43.7044 39.1338 43.7044 35.4207C43.7044 31.7307 46.6795 28.7325 50.3695 28.7325ZM50.3465 30.9235C52.6527 30.9235 54.5438 32.953 54.5438 35.4668C54.5438 38.0037 52.6527 40.0332 50.3465 40.0332C48.0171 40.0332 46.1491 38.0037 46.1491 35.4668C46.1491 32.953 48.0171 30.9235 50.3465 30.9235Z" fill="#C04AAA"/>
</svg>
