<svg width="69" height="69" viewBox="0 0 69 69" fill="none" xmlns="http://www.w3.org/2000/svg">
<circle cx="34.5664" cy="34.6107" r="33.8027" fill="#F8FAFC"/>
<path fill-rule="evenodd" clip-rule="evenodd" d="M16.0131 28.0993H29.4637C30.3574 28.0993 31.0887 28.8421 31.0887 29.7498V39.3134C31.0887 40.2211 30.3574 40.9638 29.4637 40.9638H15.6249C14.7312 40.9638 14 40.2211 14 39.3134V27.5033C14 27.0724 14.3521 26.779 14.7673 26.7239L27.1708 25.1193C27.5951 25.1193 27.9381 25.4678 27.9381 25.8987V27.2374H15.2367C15.2367 27.7968 15.3992 28.1085 16.0131 28.1085V28.0993ZM23.5599 38.5707C22.4315 38.7907 20.9781 38.4056 20.1837 37.5437C19.8226 37.1586 20.4003 36.5626 20.7614 36.9569C21.294 37.5345 22.2419 37.8096 23.0183 37.7913C24.0022 37.7729 24.8869 36.856 24.3182 35.8382C23.5418 34.4261 21.6281 34.8204 20.6531 33.7201C19.8587 32.8307 20.2379 31.4186 21.1677 30.7951C22.1426 30.1441 23.8217 30.1716 24.6161 31.0977C24.9591 31.5011 24.3814 32.088 24.0383 31.6845C23.3884 30.9326 21.8628 31.0335 21.285 31.8129C20.4545 32.9224 21.7003 33.5184 22.5669 33.7843C23.7585 34.1511 25.0765 34.8204 25.2931 36.205C25.4647 37.3236 24.6161 38.3598 23.5599 38.5707Z" fill="#EE4E2C"/>
<path fill-rule="evenodd" clip-rule="evenodd" d="M23.5508 38.5798C22.4224 38.7999 20.969 38.4148 20.1746 37.5529C19.8135 37.1678 20.3913 36.5718 20.7524 36.9661C21.285 37.5437 22.2328 37.8188 23.0092 37.8005C23.9932 37.7821 24.8778 36.8652 24.3091 35.8474C23.5328 34.4353 21.619 34.8296 20.644 33.7293C19.8496 32.8399 20.2288 31.4278 21.1586 30.8043C22.1335 30.1533 23.8126 30.1808 24.607 31.1069C24.9501 31.5103 24.3723 32.0972 24.0293 31.6937C23.3793 30.9418 21.8537 31.0427 21.276 31.8221C20.4454 32.9316 21.6912 33.5276 22.5578 33.7935C23.7494 34.1603 25.0674 34.8296 25.2931 36.2142C25.4646 37.3328 24.616 38.369 23.5599 38.5798H23.5508Z" fill="#FEFEFE"/>
<path d="M46.7149 27.5126C46.2364 27.5126 45.8031 27.7235 45.5052 28.0445V27.6594C45.5052 27.3109 44.9636 27.3109 44.9636 27.6594V32.1706C44.9636 32.5191 45.5052 32.5191 45.5052 32.1706V30.1626C45.8031 30.4927 46.2364 30.6944 46.7149 30.6944C47.6086 30.6944 48.3307 29.9792 48.3307 29.0989C48.3307 28.2187 47.6086 27.5035 46.7149 27.5035V27.5126ZM46.7149 30.1259C46.1461 30.1259 45.6767 29.6674 45.6767 29.1081C45.6767 28.6038 46.0559 28.182 46.5433 28.0995H46.5524C46.6065 28.0903 46.6517 28.0903 46.7058 28.0903C47.1301 28.0903 47.4912 28.3379 47.6537 28.6955C47.7079 28.8239 47.744 28.9614 47.744 29.0989C47.744 29.6583 47.2836 30.1167 46.7149 30.1167V30.1259ZM42.6977 30.7036C41.804 30.7036 41.0818 29.9884 41.0818 29.1081C41.0818 28.2279 41.804 27.5126 42.6977 27.5126C43.5914 27.5126 44.3136 28.2279 44.3136 29.1081C44.3136 29.9884 43.5914 30.7036 42.6977 30.7036ZM42.6977 28.0903C42.129 28.0903 41.6596 28.5488 41.6596 29.1081C41.6596 29.6674 42.12 30.1259 42.6977 30.1259C43.2664 30.1259 43.7358 29.6674 43.7358 29.1081C43.7358 28.5488 43.2755 28.0903 42.6977 28.0903ZM55.7151 29.0806C55.706 28.3471 55.3179 27.6869 54.5325 27.5402C53.8554 27.4118 53.061 27.7694 52.7722 28.3929C52.4743 29.0439 52.6006 29.9425 53.1874 30.3918C53.8284 30.8869 54.8304 30.7311 55.4894 30.3643C55.7963 30.1992 55.5255 29.7316 55.2095 29.8967C54.7943 30.1259 54.2436 30.2359 53.7832 30.0892C53.4312 29.97 53.2326 29.6766 53.1784 29.3465H55.4442C55.5887 29.3465 55.7151 29.2273 55.7151 29.0806ZM53.1964 28.8147C53.1964 28.7963 53.2055 28.778 53.2145 28.7597C53.3409 28.3195 53.7922 28.072 54.2436 28.0536C54.7582 28.0353 55.0561 28.3929 55.1463 28.8147H53.2055H53.1964ZM52.0861 29.0898C52.0771 28.3562 51.6889 27.696 50.9035 27.5493C50.2265 27.421 49.4321 27.7786 49.1432 28.4021C48.8453 29.0531 48.9717 29.9517 49.5584 30.401C50.1994 30.8961 51.2014 30.7402 51.8604 30.3735C52.1673 30.2084 51.8965 29.7408 51.5806 29.9058C51.1653 30.1351 50.6146 30.2451 50.1542 30.0984C49.8022 29.9792 49.6126 29.6858 49.5494 29.3557H51.8153C51.9597 29.3557 52.0861 29.2365 52.0861 29.0898ZM49.5675 28.8239C49.5675 28.8055 49.5765 28.7872 49.5855 28.7688C49.7119 28.3287 50.1633 28.0811 50.6146 28.0628C51.1292 28.0445 51.4271 28.4021 51.5174 28.8239H49.5765H49.5675ZM40.4409 28.5763V30.4376C40.4409 30.7861 39.8993 30.7861 39.8993 30.4376V28.613C39.8812 28.2554 39.5743 28.0811 39.5652 28.0811C39.1771 27.9069 38.4729 27.9895 38.0577 28.5304V30.4468C38.0577 30.7952 37.516 30.7952 37.516 30.4468V25.6605C37.516 25.312 38.0577 25.312 38.0577 25.6605V27.8152C38.7257 27.3659 39.5743 27.4118 39.9715 27.6869C39.9715 27.6869 40.4499 27.9528 40.4409 28.5855V28.5763ZM36.6133 25.8713C36.0807 25.2753 34.9613 25.257 34.3114 25.6788C33.6885 26.0822 33.4357 26.9808 33.9683 27.5585C34.6273 28.2737 35.9002 28.017 36.4147 28.9247C36.7848 29.5757 36.1981 30.1626 35.5481 30.1809C35.0335 30.1901 34.4016 30.0159 34.0405 29.6399C33.7968 29.3923 33.4177 29.7683 33.6524 30.0159C34.176 30.5752 35.1509 30.8136 35.9092 30.676C36.6133 30.5477 37.182 29.8783 37.0647 29.1539C36.9202 28.2645 36.0356 27.8336 35.2412 27.5952C34.6634 27.421 33.8329 27.045 34.3836 26.3298C34.7718 25.8347 35.7918 25.7705 36.2251 26.2473C36.4599 26.504 36.839 26.1281 36.6133 25.8713Z" fill="#EE4E2C"/>
<path fill-rule="evenodd" clip-rule="evenodd" d="M50.822 43.7422H49.0887L50.9393 40.1845L47.8971 34.3528H49.7748L51.8781 38.3873L53.9815 34.3528H55.7147L50.822 43.7422ZM33.5798 40.9639H35.0332V38.2681H36.9921C39.0233 38.2681 40.6663 36.8194 40.6663 35.0405C40.6663 33.2617 39.0233 31.8129 36.9921 31.8129H33.5889C33.5889 34.8663 33.5889 37.9105 33.5889 40.9639H33.5798ZM35.0332 36.801V33.2892H36.9921C38.0935 33.2892 38.9872 34.0777 38.9872 35.0405C38.9872 36.0125 38.0935 36.7918 36.9921 36.7918H35.0332V36.801ZM46.0917 34.417H47.3645V40.9089H46.0917V40.1753C45.5229 40.6704 44.7917 40.9639 43.9883 40.9639C42.1919 40.9639 40.7385 39.4876 40.7385 37.6629C40.7385 35.8382 42.1919 34.362 43.9883 34.362C44.7917 34.362 45.532 34.6554 46.0917 35.1505V34.417ZM43.9883 35.7557C45.0264 35.7557 45.875 36.6085 45.875 37.6721C45.875 38.7266 45.0355 39.5885 43.9883 39.5885C42.9502 39.5885 42.1016 38.7357 42.1016 37.6721C42.1016 36.6176 42.9411 35.7557 43.9883 35.7557Z" fill="#EE4E2C"/>
</svg>
