<svg width="54" height="54" viewBox="0 0 54 54" fill="none" xmlns="http://www.w3.org/2000/svg">
<circle cx="27" cy="26.7045" r="26.7045" fill="#F8FAFC"/>
<path d="M30.6275 25.7253C30.385 25.7207 30.1441 25.7657 29.9195 25.8576C29.695 25.9494 29.4917 26.0862 29.3219 26.2594C29.149 26.4273 29.012 26.6285 28.9192 26.8509C28.8264 27.0733 28.7797 27.3122 28.7819 27.5531C28.7796 27.7955 28.8269 28.0358 28.9208 28.2593C29.0147 28.4827 29.1532 28.6847 29.3279 28.8527C29.5864 29.1099 29.9151 29.2849 30.2728 29.356C30.6304 29.427 31.0011 29.3908 31.3383 29.252C31.6754 29.1132 31.9641 28.878 32.1681 28.5757C32.3721 28.2735 32.4823 27.9177 32.4849 27.5531C32.4864 27.3117 32.4387 27.0726 32.3449 26.8502C32.251 26.6278 32.1129 26.4268 31.939 26.2594C31.7685 26.0854 31.5642 25.9482 31.3386 25.8564C31.113 25.7645 30.871 25.7199 30.6275 25.7253ZM37.2324 24.4138C37.1108 23.5992 36.8025 22.8237 36.3314 22.1479C35.8604 21.4722 35.2395 20.9146 34.5171 20.5187C33.7948 20.1227 32.9907 19.8993 32.1677 19.8657C31.3447 19.8321 30.5251 19.9893 29.7729 20.3251C28.9078 19.0488 27.6613 18.0787 26.2116 17.5534C24.762 17.0282 23.1834 16.9747 21.7015 17.4006C20.2196 17.8266 18.9103 18.7101 17.9608 19.9249C17.0113 21.1398 16.4701 22.6237 16.4147 24.1646C15.0929 24.7724 14.0196 25.8154 13.3741 27.1193C12.7286 28.4231 12.55 29.909 12.8681 31.3287C13.1863 32.7484 13.9818 34.016 15.122 34.9197C16.2621 35.8235 17.6778 36.3087 19.1327 36.2944H34.9952C36.4296 36.2983 37.8202 35.8001 38.9258 34.886C40.0313 33.972 40.7821 32.6998 41.0478 31.2901C41.3135 29.8805 41.0774 28.4223 40.3805 27.1684C39.6836 25.9146 38.5699 24.9443 37.2324 24.4257V24.4138ZM20.7053 28.8527C20.875 29.026 21.0784 29.1628 21.3029 29.2546C21.5274 29.3464 21.7683 29.3914 22.0108 29.3868C22.254 29.3902 22.4955 29.3446 22.7208 29.2529C22.9461 29.1611 23.1506 29.0251 23.3223 28.8527C23.3441 28.8244 23.3727 28.8019 23.4054 28.7875C23.462 28.6909 23.5297 28.6013 23.6072 28.5204C23.7797 28.3503 23.9985 28.2348 24.2363 28.1882C24.474 28.1416 24.7203 28.166 24.9443 28.2584C25.1682 28.3508 25.3601 28.507 25.4959 28.7077C25.6317 28.9084 25.7054 29.1445 25.7079 29.3868C25.7143 29.5501 25.6858 29.7129 25.6244 29.8643C25.5631 30.0157 25.4701 30.1524 25.3518 30.2651C25.2755 30.3748 25.188 30.4762 25.0907 30.5678C24.693 30.9735 24.2171 31.2941 23.6917 31.5104C23.1664 31.7267 22.6026 31.834 22.0346 31.8258C21.4672 31.8356 20.9038 31.729 20.3792 31.5126C19.8545 31.2963 19.3798 30.9747 18.9843 30.5678C18.5838 30.172 18.2659 29.7007 18.0489 29.1812C17.8319 28.6617 17.7201 28.1043 17.7201 27.5412C17.7201 26.9782 17.8319 26.4208 18.0489 25.9013C18.2659 25.3818 18.5838 24.9105 18.9843 24.5147C19.3816 24.1106 19.8568 23.7912 20.3811 23.576C20.9054 23.3608 21.4679 23.2541 22.0346 23.2626C22.602 23.2547 23.1653 23.3616 23.6904 23.5767C24.2156 23.7919 24.6919 24.1109 25.0907 24.5147C25.1849 24.6076 25.2703 24.7089 25.3459 24.8174H25.3756C25.4913 24.9308 25.5827 25.0667 25.6439 25.2167C25.7051 25.3667 25.735 25.5277 25.7316 25.6897C25.7366 25.8521 25.7082 26.0138 25.6482 26.1648C25.5881 26.3157 25.4977 26.4528 25.3825 26.5674C25.2674 26.682 25.1299 26.7717 24.9787 26.831C24.8274 26.8903 24.6656 26.918 24.5032 26.9122C24.3404 26.914 24.1789 26.8823 24.0288 26.819C23.8787 26.7557 23.7433 26.6622 23.6309 26.5443C23.5486 26.4685 23.4786 26.3804 23.4232 26.2832C23.3926 26.2707 23.366 26.2502 23.346 26.2238C23.1744 26.0515 22.9698 25.9154 22.7445 25.8237C22.5192 25.7319 22.2778 25.6864 22.0346 25.6897C21.792 25.6851 21.5511 25.7301 21.3266 25.822C21.1021 25.9138 20.8987 26.0506 20.729 26.2238C20.555 26.3912 20.4169 26.5922 20.3231 26.8146C20.2292 27.037 20.1816 27.2761 20.183 27.5175C20.1728 27.7641 20.2139 28.0102 20.3038 28.24C20.3937 28.4699 20.5304 28.6785 20.7053 28.8527ZM33.6777 30.5796C32.8672 31.3856 31.7705 31.838 30.6275 31.838C29.4844 31.838 28.3878 31.3856 27.5772 30.5796C27.1768 30.1839 26.8588 29.7126 26.6418 29.1931C26.4248 28.6736 26.3131 28.1161 26.3131 27.5531C26.3131 26.9901 26.4248 26.4327 26.6418 25.9131C26.8588 25.3936 27.1768 24.9223 27.5772 24.5266C28.3901 23.7249 29.4858 23.2755 30.6275 23.2755C31.7691 23.2755 32.8649 23.7249 33.6777 24.5266C34.0797 24.9215 34.3989 25.3925 34.6168 25.9122C34.8347 26.4318 34.9469 26.9896 34.9469 27.5531C34.9469 28.1166 34.8347 28.6744 34.6168 29.1941C34.3989 29.7137 34.0797 30.1847 33.6777 30.5796ZM37.3867 32.2947C37.4507 32.294 37.5142 32.3062 37.5733 32.3307C37.6325 32.3552 37.6861 32.3914 37.7309 32.4371C37.7761 32.4823 37.812 32.5359 37.8364 32.595C37.8609 32.654 37.8735 32.7173 37.8735 32.7813C37.8735 32.8452 37.8609 32.9085 37.8364 32.9676C37.812 33.0266 37.7761 33.0803 37.7309 33.1255C37.6861 33.1712 37.6325 33.2074 37.5733 33.2318C37.5142 33.2563 37.4507 33.2686 37.3867 33.2679H35.5471C35.4821 33.269 35.4176 33.257 35.3574 33.2325C35.2972 33.2081 35.2426 33.1716 35.1969 33.1255C35.1097 33.0321 35.0612 32.909 35.0612 32.7813C35.0612 32.6535 35.1097 32.5305 35.1969 32.4371C35.2285 32.4062 35.2645 32.3802 35.3037 32.3599L36.8289 31.09C36.8739 31.017 36.8966 30.9324 36.8941 30.8467C36.8942 30.7823 36.8814 30.7185 36.8565 30.6591C36.8317 30.5996 36.7953 30.5457 36.7495 30.5005C36.7037 30.4552 36.6494 30.4195 36.5896 30.3954C36.5299 30.3713 36.466 30.3593 36.4016 30.3601C36.3376 30.3594 36.2741 30.3716 36.215 30.3961C36.1558 30.4206 36.1022 30.4568 36.0574 30.5025C36.007 30.5737 35.9515 30.6412 35.8912 30.7043C35.8471 30.7508 35.7936 30.7876 35.7343 30.8121C35.675 30.8367 35.6112 30.8484 35.5471 30.8467C35.4821 30.8478 35.4176 30.8358 35.3574 30.8113C35.2972 30.7868 35.2426 30.7504 35.1969 30.7043C35.1517 30.6594 35.1163 30.6056 35.0928 30.5464C35.0693 30.4872 35.0583 30.4237 35.0604 30.3601C35.0568 30.254 35.0927 30.1503 35.1613 30.0693C35.2149 29.9743 35.283 29.8882 35.3631 29.8141C35.6407 29.5405 36.0148 29.3871 36.4046 29.3871C36.7943 29.3871 37.1685 29.5405 37.446 29.8141C37.5855 29.9493 37.6955 30.1118 37.769 30.2916C37.8426 30.4713 37.8781 30.6644 37.8733 30.8585C37.8888 30.9865 37.8755 31.1163 37.8344 31.2385C37.7933 31.3606 37.7255 31.4721 37.6359 31.5647L36.8645 32.2947H37.3867Z" fill="#374982"/>
</svg>
