<svg width="55" height="54" viewBox="0 0 55 54" fill="none" xmlns="http://www.w3.org/2000/svg">
<circle cx="27.4545" cy="26.7045" r="26.7045" fill="#F8FAFC"/>
<path fill-rule="evenodd" clip-rule="evenodd" d="M27.7613 38.8588C27.457 38.6185 27.1367 38.3782 26.8084 38.1539C25.3351 37.1367 23.5654 36.3198 21.8038 36.3198C20.0422 36.3198 18.1845 37.1287 16.551 38.1299C14.7253 39.2512 13.2359 40.5968 12.6674 41.1254H12.187C11.7466 41.1254 11.3862 41.4858 11.3862 41.9263C11.3862 42.3669 11.7466 42.7273 12.187 42.7273H42.6149C43.0553 42.7273 43.4157 42.3669 43.4157 41.9263C43.4157 41.4858 43.0553 41.1254 42.6149 41.1254H42.3507C41.7261 39.7638 39.7163 36.3198 35.4083 36.3198C32.0292 36.3198 27.7933 38.8347 27.7933 38.8347C27.7773 38.8427 27.7693 38.8507 27.7533 38.8588H27.7613ZM20.2023 33.084C20.1463 33.052 20.0662 32.9879 20.0102 32.9479C19.834 32.8037 19.6658 32.6595 19.4977 32.5474C19.1454 32.3231 18.777 32.235 18.4087 32.3311C18.0564 32.4192 17.696 32.7076 17.3677 33.1241C17.1275 33.4284 16.9033 33.8369 16.591 34.0291C16.2547 34.2293 15.7743 34.2213 15.3419 34.3094C14.8374 34.4136 14.381 34.6058 14.0287 34.9502C13.2119 35.7671 13.0117 36.8965 13.1078 37.9697C13.1398 38.3141 13.2039 38.6585 13.276 38.9709C14.0207 38.3141 15.1977 37.361 16.551 36.528C18.1765 35.5269 20.0662 34.7179 21.8038 34.7179C23.5414 34.7179 25.327 35.5349 26.8084 36.5521C26.9926 36.6802 27.1767 36.8084 27.3529 36.9445C27.433 36.6962 27.449 36.4319 27.401 36.1676C27.3289 35.7992 27.0006 35.3346 26.5842 34.8781C26.376 34.6538 26.1518 34.4216 25.9756 34.1893C25.9036 34.0932 25.8155 34.0131 25.8155 33.925C25.8155 33.3563 25.5272 32.9398 25.0228 32.6755C24.4062 32.3471 23.2772 32.3231 22.6126 32.3231C22.3563 32.3231 22.0841 32.3792 21.8118 32.4673V28.9111C21.4835 28.8631 21.2033 28.799 20.9951 28.7509C20.8029 28.8711 20.5306 29.0153 20.2103 29.1754V33.1L20.2023 33.084ZM28.8743 36.6482C29.7711 36.1916 31.1404 35.5749 32.5977 35.1584C32.4856 34.3175 32.6618 33.5005 33.1262 32.7076C33.3504 32.3231 33.8389 32.195 34.2232 32.4112C34.6076 32.6355 34.7357 33.1241 34.5195 33.5085C34.2713 33.933 34.1672 34.3655 34.1912 34.806C34.6076 34.7419 35.024 34.7099 35.4243 34.7099C38.2029 34.7099 40.0205 36.1436 41.1336 37.5292C41.3097 37.1688 41.3738 36.7683 41.3658 36.3518C41.3578 35.9434 41.2697 35.5028 41.2297 35.0783C41.1976 34.7419 41.1656 34.3975 41.4779 34.1653C42.727 33.2202 43.4317 31.8025 43.4317 29.9123C43.4317 29.624 43.2795 29.3597 43.0233 29.2155C42.7751 29.0713 42.4628 29.0793 42.2146 29.2235C42.0624 29.3116 41.9183 29.3436 41.7822 29.3356C41.3418 25.2188 38.7474 23.681 35.6565 22.7359C35.3683 22.6478 35.048 22.7359 34.8398 22.9522C34.6316 23.1764 34.5675 23.4968 34.6796 23.7851C35.032 24.7222 35.3683 26.1239 35.5044 27.2932C35.5765 27.942 35.6165 28.4946 35.4964 28.791C35.4724 28.8471 35.4163 28.8631 35.3603 28.8791C35.2402 28.9111 35.104 28.9191 34.9599 28.9111C34.4715 28.8871 33.9109 28.6949 33.4385 28.4146C33.1823 28.2624 32.854 28.2624 32.6057 28.4226C32.3495 28.5827 32.2054 28.8711 32.2374 29.1754C32.3415 30.3208 32.2374 31.1858 31.813 31.7304C31.4287 32.219 30.7721 32.3712 29.8912 32.3071C29.5229 32.2831 29.1786 32.5153 29.0665 32.8678C28.6101 34.3335 28.562 35.5909 28.8903 36.6482H28.8743ZM37.8986 29.4478C38.2109 30.1045 38.363 30.8574 37.8826 31.9947C37.7144 32.4032 37.9066 32.8678 38.315 33.044C38.7234 33.2122 39.1878 33.0199 39.3639 32.6115C40.0846 30.8894 39.8204 29.7521 39.3479 28.759C39.1558 28.3585 38.6833 28.1903 38.283 28.3745C37.8826 28.5667 37.7144 29.0393 37.9066 29.4398L37.8986 29.4478ZM20.2023 28.0541V24.8344L16.7031 23.4327C16.2947 23.2725 16.0946 22.8 16.2547 22.3915C16.4149 21.983 16.8873 21.7828 17.2957 21.943L20.2023 23.1043V16.2804C20.2023 15.8399 20.5627 15.4794 21.0031 15.4794C21.4435 15.4794 21.8038 15.8399 21.8038 16.2804V18.7873L22.9649 18.0184C23.3332 17.7701 23.8297 17.8742 24.0779 18.2427C24.3261 18.6111 24.222 19.1077 23.8537 19.356L21.8118 20.7176V27.7017C22.3243 27.7818 22.9729 27.8459 23.6695 27.7978C25.327 27.6777 27.2088 26.9568 28.1617 24.5941C29.0184 22.4556 28.8663 20.8537 28.4099 19.7164C27.9455 18.547 27.1527 17.8262 26.6403 17.4658C26.6883 15.7918 26.4 10.6818 21.0111 10.6818C19.3696 10.6818 18.1765 11.0663 17.3037 11.651C15.8623 12.6121 15.2538 14.1339 15.0856 15.6396C14.9335 16.9291 15.1097 18.1866 15.2618 18.9555C14.9735 19.0596 14.6372 19.2118 14.2929 19.404C13.4201 19.8926 12.5153 20.6615 12.1309 21.7828C11.8747 22.5437 11.8426 23.4648 12.259 24.5781C13.0838 26.7806 14.2769 27.8779 15.494 28.3825C16.6551 28.8631 17.8642 28.799 18.9051 28.5267C19.3936 28.3985 19.834 28.2303 20.2183 28.0541H20.2023ZM34.0471 16.5206C31.5408 19.0356 30.5639 22.1192 32.2774 26.204C32.4456 26.6124 32.918 26.8047 33.3264 26.6365C33.7348 26.4683 33.927 25.9957 33.7588 25.5872C32.3575 22.2393 33.1342 19.7084 35.1921 17.65C35.5044 17.3376 35.5044 16.833 35.1921 16.5206C34.8798 16.2083 34.3754 16.2083 34.0631 16.5206H34.0471ZM36.6575 21.8068C38.331 22.6478 39.9084 23.697 41.1576 25.5472C41.4058 25.9156 41.9023 26.0117 42.2706 25.7635C42.639 25.5152 42.735 25.0186 42.4868 24.6502C41.0695 22.5517 39.2839 21.3343 37.3781 20.3812C36.9858 20.1809 36.4973 20.3411 36.3051 20.7336C36.105 21.126 36.2651 21.6146 36.6575 21.8068Z" fill="#374982"/>
</svg>
