<svg width="55" height="54" viewBox="0 0 55 54" fill="none" xmlns="http://www.w3.org/2000/svg">
<circle cx="27.5454" cy="26.7045" r="26.7045" fill="#F8FAFC"/>
<g clip-path="url(#clip0_22_37416)">
<path d="M37.6425 26.8354L39.6867 30.3764C40.9779 32.6116 40.2114 35.4703 37.9776 36.7602C37.2659 37.1701 36.4608 37.3864 35.641 37.3864H32.8864V40.0568L26.2102 35.3835L32.8864 30.7102V33.3807H35.6396C35.7571 33.3807 35.872 33.35 35.9734 33.2912C36.2578 33.127 36.3753 32.7865 36.2685 32.4888L36.2178 32.3793L34.1735 28.8383L37.6425 26.8354ZM21.8534 23.2116L22.5611 31.3298L20.2511 29.9946L18.8732 32.3793C18.8144 32.4808 18.7837 32.5956 18.7837 32.7131C18.7837 33.0402 19.0201 33.3139 19.3312 33.37L19.4513 33.3807H23.5398V37.3864H19.4513C16.8703 37.3864 14.778 35.2941 14.778 32.7131C14.778 31.8933 14.9943 31.0868 15.4043 30.3764L16.7809 27.9917L14.4683 26.6565L21.8521 23.2116H21.8534ZM29.8821 14.6461C30.5925 15.056 31.1826 15.6462 31.5926 16.3566L32.9678 18.7413L35.2818 17.406L34.5741 25.5242L27.1876 22.0793L29.5002 20.7441L28.1236 18.3594C28.0649 18.2579 27.9808 18.1725 27.8793 18.115C27.5949 17.9508 27.241 18.0189 27.0368 18.2619L26.9673 18.3594L24.9244 21.9004L21.4542 19.8976L23.4971 16.3566C24.7882 14.1214 27.647 13.355 29.8821 14.6461Z" fill="#374982"/>
</g>
<defs>
<clipPath id="clip0_22_37416">
<rect width="32.0455" height="32.0455" fill="white" transform="translate(11.5227 10.6818)"/>
</clipPath>
</defs>
</svg>
